<svg width="300" height="300" viewBox="0 0 300 300" fill="none" xmlns="http://www.w3.org/2000/svg">
<g clip-path="url(#clip0_18_300)">
<path d="M261.294 15.2353C255.854 12.9331 250.153 11.7762 244.191 11.7647H191.103C187.08 11.7831 183.639 13.2145 180.779 16.0588H180.765V16.0735C177.92 18.9333 176.489 22.3744 176.471 26.3971V82.3529C176.47 83.1655 176.755 83.8567 177.324 84.4265C177.903 85.0053 178.599 85.2945 179.412 85.2941C180.224 85.2945 180.916 85.0053 181.485 84.4265C182.064 83.8567 182.353 83.1655 182.353 82.3529V26.3971C182.37 23.9951 183.228 21.9362 184.926 20.2206C186.642 18.5222 188.701 17.6643 191.103 17.6471H244.191C249.354 17.6552 254.29 18.6552 259 20.6471C263.57 22.5786 267.62 25.309 271.147 28.8382C274.677 32.3661 277.412 36.4151 279.353 40.9853C281.355 45.7184 282.355 50.6792 282.353 55.8676C282.355 61.0561 281.355 66.0169 279.353 70.75C277.414 75.3293 274.684 79.3833 271.162 82.9118L271.147 82.9265C267.619 86.4484 263.57 89.1788 259 91.1176C254.29 93.1095 249.354 94.1095 244.191 94.1176H208.824C208.011 94.1173 207.315 94.4016 206.735 94.9706C206.166 95.5502 205.882 96.2462 205.882 97.0588C205.882 97.8714 206.166 98.5626 206.735 99.1323C207.315 99.7112 208.011 100 208.824 100H244.191C250.153 99.9885 255.854 98.8316 261.294 96.5294C266.564 94.2932 271.236 91.1412 275.309 87.0735C279.377 83.0007 282.529 78.3242 284.765 73.0441C287.077 67.5813 288.234 61.8558 288.235 55.8676C288.234 49.8795 287.077 44.154 284.765 38.6912C282.529 33.4182 279.377 28.7466 275.309 24.6765C271.238 20.6077 266.567 17.4606 261.294 15.2353ZM14.7059 5.88236C13.8933 5.88197 13.1972 6.16629 12.6176 6.7353C12.0486 7.31488 11.7643 8.01095 11.7647 8.82353V100C11.7643 100.813 12.0486 101.504 12.6176 102.074C13.1972 102.652 13.8933 102.942 14.7059 102.941C15.5185 102.942 16.2096 102.652 16.7794 102.074C17.3582 101.504 17.6474 100.813 17.6471 100V8.82353C17.6474 8.01095 17.3582 7.31488 16.7794 6.7353C16.2096 6.16629 15.5185 5.88197 14.7059 5.88236ZM181.485 97.9118C180.916 97.3427 180.224 97.0584 179.412 97.0588C178.599 97.0584 177.903 97.3427 177.324 97.9118C176.755 98.4913 176.47 99.1874 176.471 100V138.235C176.47 139.048 176.755 139.739 177.324 140.309C177.903 140.888 178.599 141.177 179.412 141.176C180.224 141.177 180.916 140.888 181.485 140.309C182.064 139.739 182.353 139.048 182.353 138.235V100C182.353 99.1874 182.064 98.4913 181.485 97.9118ZM134.426 6.7353C133.857 6.16629 133.166 5.88197 132.353 5.88236C131.54 5.88197 130.844 6.16629 130.265 6.7353C129.696 7.31488 129.411 8.01095 129.412 8.82353V100C129.411 100.813 129.696 101.504 130.265 102.074C130.844 102.652 131.54 102.942 132.353 102.941C133.166 102.942 133.857 102.652 134.426 102.074C135.005 101.504 135.294 100.813 135.294 100V8.82353C135.294 8.01095 135.005 7.31488 134.426 6.7353Z" fill="#9816FF"/>
<path d="M256.706 26.0588C252.704 24.3645 248.508 23.5164 244.118 23.5147L200 23.5294C196.749 23.5304 193.979 24.6775 191.691 26.9706C191.686 26.9755 191.681 26.9804 191.676 26.9853C189.41 29.2464 188.263 31.9768 188.235 35.1765V144.118C188.235 144.93 188.519 145.621 189.088 146.191C189.668 146.77 190.364 147.059 191.176 147.059C191.989 147.059 192.68 146.77 193.25 146.191C193.829 145.621 194.118 144.93 194.118 144.118V35.2206C194.135 33.6278 194.708 32.27 195.838 31.1471L195.853 31.1324C196.994 29.9843 198.376 29.4108 200 29.4118L244.118 29.3971C247.708 29.3953 251.139 30.0865 254.412 31.4706C257.58 32.8134 260.384 34.7055 262.824 37.1471C265.275 39.5964 267.172 42.4052 268.515 45.5735C269.899 48.846 270.59 52.2774 270.588 55.8676C270.588 59.4584 269.892 62.8947 268.5 66.1765H268.515C267.174 69.344 265.282 72.143 262.838 74.5735H262.824C260.384 77.0249 257.58 78.9219 254.412 80.2647C251.162 81.639 247.755 82.3302 244.191 82.3382L202.941 82.3529C202.129 82.3526 201.433 82.6369 200.853 83.2059C200.284 83.7855 200 84.4815 200 85.2941C200 86.1067 200.284 86.7979 200.853 87.3676C201.433 87.9465 202.129 88.2357 202.941 88.2353L244.191 88.2206C248.555 88.2091 252.727 87.3611 256.706 85.6765C260.577 84.0389 264.003 81.7252 266.985 78.7353C269.973 75.7637 272.287 72.3421 273.926 68.4706C275.623 64.4583 276.471 60.2573 276.471 55.8676C276.469 51.4775 275.621 47.2814 273.926 43.2794C272.289 39.4086 269.975 35.9772 266.985 32.9853C264.003 30.0052 260.577 27.6964 256.706 26.0588ZM38.2353 3.86366e-07C37.4227 -0.000382579 36.7266 0.283931 36.1471 0.852942C35.5781 1.43252 35.2937 2.1286 35.2941 2.94118V85.2941C35.2937 86.1067 35.5781 86.7979 36.1471 87.3676C36.7266 87.9465 37.4227 88.2357 38.2353 88.2353C39.0479 88.2357 39.739 87.9465 40.3088 87.3676C40.8876 86.7979 41.1769 86.1067 41.1765 85.2941V2.94118C41.1769 2.1286 40.8876 1.43252 40.3088 0.852942C39.739 0.283931 39.0479 -0.000382579 38.2353 3.86366e-07ZM110.897 0.852942C110.327 0.283931 109.636 -0.000382579 108.824 3.86366e-07C108.011 -0.000382579 107.315 0.283931 106.735 0.852942C106.166 1.43252 105.882 2.1286 105.882 2.94118V85.2941C105.882 86.1067 106.166 86.7979 106.735 87.3676C107.315 87.9465 108.011 88.2357 108.824 88.2353C109.636 88.2357 110.327 87.9465 110.897 87.3676C111.476 86.7979 111.765 86.1067 111.765 85.2941V2.94118C111.765 2.1286 111.476 1.43252 110.897 0.852942ZM146.191 0.852942C145.621 0.283931 144.93 -0.000382579 144.118 3.86366e-07C143.305 -0.000382579 142.609 0.283931 142.029 0.852942C141.46 1.43252 141.176 2.1286 141.176 2.94118V113.235C141.178 117.022 140.448 120.645 138.985 124.103C137.566 127.447 135.571 130.408 133 132.985L132.985 133C130.408 135.571 127.447 137.566 124.103 138.985C120.645 140.448 117.022 141.178 113.235 141.176C109.449 141.178 105.826 140.448 102.368 138.985C99.0201 137.565 96.0544 135.565 93.4706 132.985C90.8948 130.411 88.8997 127.45 87.4853 124.103C86.0229 120.645 85.2926 117.022 85.2941 113.235V111.765C85.2931 108.51 84.1411 105.735 81.8382 103.441C79.5385 101.146 76.7689 99.9986 73.5294 100C70.2779 100.001 67.5083 101.148 65.2206 103.441C65.2157 103.446 65.2108 103.451 65.2059 103.456C62.9128 105.744 61.7657 108.513 61.7647 111.765V113.221C61.764 117.008 61.0287 120.635 59.5588 124.103H59.5735C58.1545 127.447 56.1594 130.408 53.5882 132.985L53.5735 133C50.9963 135.571 48.0355 137.566 44.6912 138.985C41.2328 140.448 37.6102 141.178 33.8235 141.176C30.0368 141.178 26.4143 140.448 22.9559 138.985C19.6083 137.565 16.6427 135.565 14.0588 132.985C11.483 130.411 9.48794 127.45 8.07353 124.103C6.61344 120.635 5.88304 117.008 5.88235 113.221C5.88247 112.966 5.85306 112.721 5.79412 112.485C5.85306 112.259 5.88247 112.019 5.88235 111.765V2.94118C5.88274 2.1286 5.59352 1.43252 5.01471 0.852942C4.44493 0.283931 3.75375 -0.000382579 2.94118 3.86366e-07C2.1286 -0.000382579 1.43252 0.283931 0.852942 0.852942C0.283931 1.43252 -0.000382562 2.1286 4.03594e-07 2.94118V111.765C-0.000114486 112.019 0.0243953 112.259 0.0735298 112.485C0.0243953 112.721 -0.000114486 112.966 4.03594e-07 113.221C-0.000688935 117.806 0.881664 122.198 2.64706 126.397V126.382C4.36006 130.437 6.77673 134.025 9.89706 137.147H9.91177C13.0339 140.263 16.6172 142.68 20.6618 144.397C24.8504 146.17 29.2377 147.057 33.8235 147.059C38.4094 147.057 42.7966 146.17 46.9853 144.397C51.0298 142.68 54.6132 140.263 57.7353 137.147C60.8517 134.025 63.2684 130.442 64.9853 126.397C66.7605 122.198 67.6478 117.806 67.6471 113.221V111.765C67.6461 110.141 68.2196 108.758 69.3677 107.618L69.3824 107.603C70.5231 106.455 71.9054 105.881 73.5294 105.882C75.1492 105.884 76.5316 106.457 77.6765 107.603H77.6912V107.618C78.8392 108.758 79.4128 110.141 79.4118 111.765V113.235C79.4133 117.821 80.3006 122.208 82.0735 126.397L82.0588 126.382C83.7718 130.437 86.1885 134.025 89.3088 137.147H89.3235C92.4456 140.263 96.029 142.68 100.074 144.397C104.262 146.17 108.649 147.057 113.235 147.059C117.821 147.057 122.208 146.17 126.397 144.397C130.442 142.68 134.025 140.263 137.147 137.147C140.263 134.025 142.68 130.442 144.397 126.397C146.17 122.208 147.057 117.821 147.059 113.235V2.94118C147.059 2.1286 146.77 1.43252 146.191 0.852942ZM290.191 36.4118C292.811 42.6056 294.119 49.0958 294.118 55.8824C294.119 62.6594 292.81 69.1447 290.191 75.3382C287.662 81.3205 284.089 86.6195 279.471 91.2353C274.855 95.8533 269.556 99.4268 263.574 101.956C257.405 104.564 250.945 105.873 244.191 105.882L226.471 105.868C225.666 105.867 224.975 106.152 224.397 106.721C223.82 107.299 223.531 107.99 223.529 108.794C223.528 109.609 223.813 110.305 224.382 110.882C224.961 111.458 225.652 111.748 226.456 111.75L244.191 111.765C251.741 111.753 258.967 110.288 265.868 107.368C272.552 104.544 278.474 100.554 283.632 95.3971C288.789 90.2383 292.779 84.3168 295.603 77.6324C298.533 70.7083 299.998 63.4583 300 55.8824C299.998 48.2963 298.533 41.0414 295.603 34.1176C292.779 27.4328 288.789 21.5112 283.632 16.3529C278.474 11.2062 272.552 7.22093 265.868 4.39706C258.967 1.4771 251.741 0.0114128 244.191 3.86366e-07H170.515C165.666 0.0197231 161.534 1.74031 158.118 5.16177L158.103 5.17647C154.681 8.59295 152.961 12.7253 152.941 17.5735V144.118C152.941 144.93 153.225 145.621 153.794 146.191C154.374 146.77 155.07 147.059 155.882 147.059C156.695 147.059 157.386 146.77 157.956 146.191C158.535 145.621 158.824 144.93 158.824 144.118V17.5735C158.84 14.3505 159.987 11.6005 162.265 9.32353C164.542 7.04542 167.292 5.89836 170.515 5.88235H244.191C250.942 5.89063 257.403 7.19945 263.574 9.80882C269.556 12.3379 274.855 15.9065 279.471 20.5147C284.088 25.1309 287.662 30.43 290.191 36.4118Z" fill="#2C1B47"/>
<path d="M254.5 45.4706C257.382 48.3513 258.823 51.8219 258.824 55.8823C258.825 59.9417 257.388 63.4025 254.515 66.2647H254.5V66.2794C251.656 69.1351 248.219 70.5713 244.191 70.5882H214.706C213.893 70.5878 213.197 70.8722 212.618 71.4412C212.049 72.0208 211.764 72.7168 211.765 73.5294C211.764 74.342 212.049 75.0332 212.618 75.6029C213.197 76.1817 213.893 76.471 214.706 76.4706H244.191C249.842 76.4516 254.666 74.4369 258.662 70.4265C262.69 66.4126 264.705 61.5645 264.706 55.8823C264.707 50.1977 262.692 45.3398 258.662 41.3088C254.669 37.3169 249.846 35.312 244.191 35.2941H208.824C208.011 35.2937 207.315 35.578 206.735 36.1471C206.166 36.7266 205.882 37.4227 205.882 38.2353C205.882 39.0479 206.166 39.739 206.735 40.3088C207.315 40.8876 208.011 41.1768 208.824 41.1765H244.191C248.22 41.1944 251.656 42.6257 254.5 45.4706ZM63.9706 96.9265C66.873 95.0536 70.0544 94.1173 73.5147 94.1176C76.9842 94.117 80.1656 95.0532 83.0588 96.9265H83.0735C85.8979 98.7426 88.0302 101.164 89.4706 104.191C89.83 104.924 90.3889 105.424 91.1471 105.691C91.9145 105.966 92.6645 105.927 93.3971 105.574C94.1306 105.223 94.6306 104.664 94.8971 103.897C95.1731 103.14 95.1338 102.395 94.7794 101.662C92.857 97.63 90.0139 94.4045 86.25 91.9853C82.3883 89.4859 78.1432 88.2359 73.5147 88.2353C68.8966 88.2356 64.6515 89.4856 60.7794 91.9853H60.7941C57.0302 94.4045 54.1822 97.63 52.25 101.662C51.9054 102.395 51.8662 103.14 52.1324 103.897C52.4086 104.664 52.9135 105.223 53.6471 105.574C54.3796 105.927 55.1247 105.966 55.8824 105.691C56.6504 105.424 57.2092 104.924 57.5588 104.191C59.009 101.164 61.1462 98.7426 63.9706 96.9265ZM14.7059 110.294C13.8933 110.294 13.1972 110.578 12.6176 111.147C12.0486 111.727 11.7643 112.423 11.7647 113.235C11.7639 119.322 13.9158 124.518 18.2206 128.824C22.5359 133.138 27.7369 135.295 33.8235 135.294C39.9102 135.295 45.1062 133.138 49.4118 128.824C53.7263 124.518 55.8832 119.322 55.8824 113.235C55.8827 112.423 55.5935 111.727 55.0147 111.147C54.4449 110.578 53.7538 110.294 52.9412 110.294C52.1286 110.294 51.4325 110.578 50.8529 111.147C50.2839 111.727 49.9996 112.423 50 113.235C49.9992 117.698 48.4158 121.507 45.25 124.662C42.0947 127.828 38.2859 129.411 33.8235 129.412C29.3611 129.411 25.5474 127.828 22.3824 124.662C19.2263 121.507 17.6479 117.698 17.6471 113.235C17.6474 112.423 17.3582 111.727 16.7794 111.147C16.2096 110.578 15.5185 110.294 14.7059 110.294ZM97.0588 113.221C97.0592 112.408 96.77 111.712 96.1912 111.132C95.6214 110.563 94.9302 110.279 94.1177 110.279C93.3051 110.279 92.609 110.563 92.0294 111.132C91.4604 111.712 91.1761 112.408 91.1765 113.221C91.1782 119.315 93.3301 124.511 97.6324 128.809H97.6471C101.945 133.121 107.141 135.278 113.235 135.279C119.323 135.278 124.514 133.121 128.809 128.809C133.123 124.503 135.28 119.307 135.279 113.221C135.28 112.408 134.991 111.712 134.412 111.132C133.842 110.563 133.151 110.279 132.338 110.279C131.526 110.279 130.83 110.563 130.25 111.132C129.681 111.712 129.397 112.408 129.397 113.221C129.396 117.683 127.813 121.492 124.647 124.647V124.662C121.501 127.82 117.697 129.398 113.235 129.397C108.765 129.399 104.951 127.82 101.794 124.662V124.647C98.6357 121.5 97.0572 117.691 97.0588 113.221Z" fill="#DE16FF"/>
<path d="M264.706 250C264.706 249.187 264.417 248.491 263.838 247.912C263.268 247.343 262.577 247.058 261.765 247.059C260.952 247.058 260.256 247.343 259.676 247.912C259.107 248.491 258.823 249.187 258.824 250V297.059C258.823 297.871 259.107 298.563 259.676 299.132C260.256 299.711 260.952 300 261.765 300C262.577 300 263.268 299.711 263.838 299.132C264.417 298.563 264.706 297.871 264.706 297.059V250ZM157.956 153.794C157.386 153.225 156.695 152.941 155.882 152.941C155.07 152.941 154.374 153.225 153.794 153.794C153.225 154.374 152.941 155.07 152.941 155.882V208.824C152.941 220.101 155.554 228.268 160.779 233.324C165.845 238.559 174.016 241.177 185.294 241.176H261.765C262.577 241.177 263.268 240.888 263.838 240.309C264.417 239.739 264.706 239.048 264.706 238.235C264.706 237.423 264.417 236.727 263.838 236.147C263.268 235.578 262.577 235.294 261.765 235.294H185.294C175.982 235.294 169.198 233.25 164.941 229.162C160.863 224.915 158.824 218.135 158.824 208.824V155.882C158.824 155.07 158.535 154.374 157.956 153.794ZM36.1471 216.779C36.7266 217.358 37.4227 217.647 38.2353 217.647H102.941C108.13 217.645 113.09 218.645 117.824 220.647C122.394 222.579 126.443 225.309 129.971 228.838C133.501 232.366 136.236 236.42 138.176 241C140.178 245.733 141.178 250.694 141.176 255.882C141.178 261.071 140.178 266.032 138.176 270.765C136.238 275.335 133.507 279.384 129.985 282.912L129.971 282.926C126.443 286.448 122.394 289.179 117.824 291.118C113.09 293.119 108.13 294.119 102.941 294.118H2.94118C2.1286 294.117 1.43252 294.402 0.852943 294.971C0.283932 295.55 -0.000381655 296.246 1.31118e-06 297.059C-0.000381655 297.871 0.283932 298.563 0.852943 299.132C1.43252 299.711 2.1286 300 2.94118 300H102.941C108.929 299.998 114.655 298.841 120.118 296.529C125.388 294.293 130.059 291.141 134.132 287.074C138.2 283 141.352 278.329 143.588 273.059C145.9 267.596 147.057 261.871 147.059 255.882C147.057 249.894 145.9 244.169 143.588 238.706C141.352 233.423 138.2 228.746 134.132 224.676C130.062 220.608 125.39 217.461 120.118 215.235C114.655 212.923 108.929 211.766 102.941 211.765H38.2353C37.4227 211.764 36.7266 212.049 36.1471 212.618C35.5781 213.197 35.2937 213.893 35.2941 214.706C35.2937 215.518 35.5781 216.21 36.1471 216.779ZM11.75 152.941C8.50709 152.94 5.73258 154.087 3.42647 156.382C1.14354 158.676 0.00137999 161.45 1.31118e-06 164.706V229.412C-0.00141566 232.651 1.14564 235.421 3.44118 237.721C5.73522 240.023 8.50973 241.175 11.7647 241.176H97.0588C99.4913 241.177 101.565 242.035 103.279 243.75C105.013 245.483 105.881 247.566 105.882 250C105.882 252.432 105.02 254.506 103.294 256.221H103.279V256.235C101.564 257.961 99.4909 258.824 97.0588 258.824H73.5294C72.7168 258.823 72.0208 259.107 71.4412 259.676C70.8722 260.256 70.5879 260.952 70.5882 261.765C70.5879 262.577 70.8722 263.268 71.4412 263.838C72.0208 264.417 72.7168 264.706 73.5294 264.706H97.0588C101.113 264.706 104.574 263.265 107.441 260.382C110.323 257.515 111.765 254.055 111.765 250C111.766 245.943 110.325 242.473 107.441 239.588C104.577 236.725 101.117 235.294 97.0588 235.294H11.7647C10.1407 235.295 8.75839 234.722 7.61765 233.574H7.60294V233.559C6.4573 232.414 5.88377 231.032 5.88235 229.412V164.706C5.88101 163.079 6.44964 161.692 7.58824 160.544C8.74292 159.398 10.1302 158.825 11.75 158.824H144.118C144.93 158.824 145.621 158.535 146.191 157.956C146.77 157.386 147.059 156.695 147.059 155.882C147.059 155.07 146.77 154.374 146.191 153.794C145.621 153.225 144.93 152.941 144.118 152.941H11.75ZM300 155.882C300 155.07 299.711 154.374 299.132 153.794C298.563 153.225 297.871 152.941 297.059 152.941C296.246 152.941 295.55 153.225 294.971 153.794C294.402 154.374 294.117 155.07 294.118 155.882V297.059C294.117 297.871 294.402 298.563 294.971 299.132C295.55 299.711 296.246 300 297.059 300C297.871 300 298.563 299.711 299.132 299.132C299.711 298.563 300 297.871 300 297.059V155.882ZM193.25 153.794C192.68 153.225 191.989 152.941 191.176 152.941C190.364 152.941 189.668 153.225 189.088 153.794C188.519 154.374 188.235 155.07 188.235 155.882V202.941C188.235 203.754 188.519 204.445 189.088 205.015C189.668 205.594 190.364 205.883 191.176 205.882C191.989 205.883 192.68 205.594 193.25 205.015C193.829 204.445 194.118 203.754 194.118 202.941V155.882C194.118 155.07 193.829 154.374 193.25 153.794ZM259.676 153.794C259.107 154.374 258.823 155.07 258.824 155.882V202.941C258.823 203.754 259.107 204.445 259.676 205.015C260.256 205.594 260.952 205.883 261.765 205.882C262.577 205.883 263.268 205.594 263.838 205.015C264.417 204.445 264.706 203.754 264.706 202.941V155.882C264.706 155.07 264.417 154.374 263.838 153.794C263.268 153.225 262.577 152.941 261.765 152.941C260.952 152.941 260.256 153.225 259.676 153.794Z" fill="#1B473C"/>
<path d="M276.471 238.235C276.471 237.423 276.182 236.727 275.603 236.147C275.033 235.578 274.342 235.294 273.529 235.294C272.717 235.294 272.021 235.578 271.441 236.147C270.872 236.727 270.588 237.423 270.588 238.235V285.294C270.588 286.107 270.872 286.798 271.441 287.368C272.021 287.946 272.717 288.236 273.529 288.235C274.342 288.236 275.033 287.946 275.603 287.368C276.182 286.798 276.471 286.107 276.471 285.294V238.235ZM36.1323 169.721C36.7119 170.299 37.408 170.589 38.2206 170.588H132.338C133.151 170.589 133.842 170.299 134.412 169.721C134.991 169.151 135.28 168.46 135.279 167.647C135.28 166.834 134.991 166.138 134.412 165.559C133.842 164.99 133.151 164.705 132.338 164.706H38.2206C37.408 164.705 36.7119 164.99 36.1323 165.559C35.5633 166.138 35.279 166.834 35.2794 167.647C35.279 168.46 35.5633 169.151 36.1323 169.721ZM26.4412 164.706C25.6375 164.708 24.9463 164.997 24.3676 165.574C23.7986 166.15 23.5143 166.841 23.5147 167.647L23.5294 214.706C23.5319 215.518 23.8211 216.209 24.3971 216.779C24.9743 217.359 25.6655 217.648 26.4706 217.647C27.284 217.645 27.9752 217.356 28.5441 216.779C29.123 216.203 29.4122 215.512 29.4118 214.706L29.3971 167.647C29.3946 166.835 29.1054 166.139 28.5294 165.559C27.9521 164.989 27.256 164.705 26.4412 164.706ZM271.441 165.559C270.872 166.138 270.588 166.834 270.588 167.647V205.882C270.587 207.502 270.008 208.885 268.853 210.029C267.708 211.185 266.326 211.763 264.706 211.765H185.294C184.484 211.765 183.792 211.481 183.221 210.912L183.206 210.897C182.639 210.323 182.355 209.632 182.353 208.824V167.647C182.353 166.834 182.064 166.138 181.485 165.559C180.916 164.99 180.224 164.705 179.412 164.706C178.599 164.705 177.903 164.99 177.324 165.559C176.755 166.138 176.47 166.834 176.471 167.647V208.824C176.469 211.247 177.327 213.326 179.044 215.059C180.77 216.784 182.853 217.646 185.294 217.647H264.706C267.949 217.648 270.718 216.497 273.015 214.191C275.32 211.895 276.472 209.125 276.471 205.882V167.647C276.471 166.834 276.182 166.138 275.603 165.559C275.033 164.99 274.342 164.705 273.529 164.706C272.717 164.705 272.021 164.99 271.441 165.559Z" fill="#16FFBD"/>
<path d="M288.235 238.235C288.236 237.423 287.946 236.727 287.368 236.147C286.798 235.578 286.107 235.294 285.294 235.294C284.482 235.294 283.785 235.578 283.206 236.147C282.637 236.727 282.353 237.423 282.353 238.235V291.176C282.353 291.989 282.637 292.68 283.206 293.25C283.785 293.829 284.482 294.118 285.294 294.118C286.107 294.118 286.798 293.829 287.368 293.25C287.946 292.68 288.236 291.989 288.235 291.176V238.235ZM123.529 255.882C123.536 254.772 123.399 253.385 123.118 251.721C122.581 248.477 121.635 245.501 120.279 242.794C119.911 242.075 119.342 241.585 118.574 241.324C117.806 241.071 117.056 241.125 116.324 241.485C115.603 241.855 115.113 242.424 114.853 243.191C114.599 243.958 114.653 244.703 115.015 245.426C116.11 247.631 116.875 250.053 117.309 252.691C117.528 253.968 117.64 255.032 117.647 255.882C117.648 259.942 116.212 263.403 113.338 266.265H113.324V266.279C110.461 269.153 107.001 270.589 102.941 270.588H8.82353C8.01095 270.588 7.31487 270.872 6.73529 271.441C6.16628 272.021 5.88197 272.717 5.88235 273.529C5.88197 274.342 6.16628 275.033 6.73529 275.603C7.31487 276.182 8.01095 276.471 8.82353 276.471H102.941C108.623 276.47 113.471 274.455 117.485 270.426C121.514 266.413 123.528 261.565 123.529 255.882ZM165.559 159.676C164.99 160.256 164.705 160.952 164.706 161.765V211.765C164.705 212.577 164.99 213.268 165.559 213.838C166.138 214.417 166.834 214.706 167.647 214.706C168.46 214.706 169.151 214.417 169.721 213.838C170.299 213.268 170.589 212.577 170.588 211.765V161.765C170.589 160.952 170.299 160.256 169.721 159.676C169.151 159.107 168.46 158.823 167.647 158.824C166.834 158.823 166.138 159.107 165.559 159.676ZM41.1765 185.294C41.1759 184.48 41.4602 183.784 42.0294 183.206C42.6076 182.637 43.3037 182.352 44.1176 182.353H138.221C139.033 182.353 139.724 182.064 140.294 181.485C140.873 180.916 141.162 180.224 141.162 179.412C141.162 178.599 140.873 177.903 140.294 177.324C139.724 176.755 139.033 176.47 138.221 176.471H44.1176C41.6767 176.471 39.5933 177.329 37.8676 179.044C36.1525 180.77 35.2947 182.853 35.2941 185.294V202.941C35.2937 203.754 35.578 204.445 36.1471 205.015C36.7266 205.594 37.4227 205.883 38.2353 205.882C39.0479 205.883 39.739 205.594 40.3088 205.015C40.8876 204.445 41.1768 203.754 41.1765 202.941V185.294ZM285.294 158.824C284.482 158.823 283.785 159.107 283.206 159.676C282.637 160.256 282.353 160.952 282.353 161.765V214.706C282.353 215.518 282.637 216.21 283.206 216.779C283.785 217.358 284.482 217.647 285.294 217.647C286.107 217.647 286.798 217.358 287.368 216.779C287.946 216.21 288.236 215.518 288.235 214.706V161.765C288.236 160.952 287.946 160.256 287.368 159.676C286.798 159.107 286.107 158.823 285.294 158.824Z" fill="#12C998"/>
<path d="M47.9118 228.544C48.4913 229.123 49.1874 229.412 50 229.412H102.941C106.531 229.41 109.963 230.101 113.235 231.485C116.404 232.828 119.208 234.72 121.647 237.162H121.662C124.105 239.602 125.997 242.406 127.338 245.574H127.324C128.715 248.855 129.411 252.292 129.412 255.882C129.413 259.473 128.722 262.904 127.338 266.176C125.995 269.345 124.098 272.149 121.647 274.588C119.208 277.04 116.404 278.937 113.235 280.279C109.963 281.663 106.531 282.355 102.941 282.353H14.7059C13.8933 282.353 13.1972 282.637 12.6176 283.206C12.0486 283.785 11.7643 284.482 11.7647 285.294C11.7643 286.107 12.0486 286.798 12.6176 287.368C13.1972 287.946 13.8933 288.236 14.7059 288.235H102.941C107.331 288.234 111.527 287.386 115.529 285.691C119.4 284.054 122.827 281.74 125.809 278.75C128.799 275.768 131.112 272.341 132.75 268.471C134.444 264.469 135.292 260.273 135.294 255.882C135.295 251.493 134.447 247.292 132.75 243.279C131.11 239.408 128.797 235.981 125.809 233C122.827 230.02 119.4 227.711 115.529 226.074C111.527 224.379 107.331 223.531 102.941 223.529H50C49.1874 223.529 48.4913 223.813 47.9118 224.382C47.3428 224.962 47.0584 225.658 47.0588 226.471C47.0584 227.283 47.3428 227.974 47.9118 228.544ZM14.6765 170.588C13.8728 170.59 13.1816 170.879 12.6029 171.456C12.0339 172.032 11.7496 172.723 11.75 173.529L11.7647 219.118C11.764 221.955 12.764 224.382 14.7647 226.397C16.7736 228.405 19.2049 229.41 22.0588 229.412H38.2353C39.0479 229.412 39.7391 229.123 40.3088 228.544C40.8876 227.974 41.1769 227.283 41.1765 226.471C41.1769 225.658 40.8876 224.962 40.3088 224.382C39.7391 223.813 39.0479 223.529 38.2353 223.529H22.0588C20.8378 223.531 19.7986 223.105 18.9412 222.25L18.9265 222.235C18.0742 221.374 17.6477 220.335 17.6471 219.118L17.6324 173.529C17.6299 172.717 17.3406 172.021 16.7647 171.441C16.1874 170.871 15.4913 170.587 14.6765 170.588ZM288.235 226.471C288.236 225.658 287.946 224.962 287.368 224.382C286.798 223.813 286.107 223.529 285.294 223.529H179.412C178.599 223.529 177.903 223.813 177.324 224.382C176.755 224.962 176.47 225.658 176.471 226.471C176.47 227.283 176.755 227.974 177.324 228.544C177.903 229.123 178.599 229.412 179.412 229.412H285.294C286.107 229.412 286.798 229.123 287.368 228.544C287.946 227.974 288.236 227.283 288.235 226.471Z" fill="#16FF57"/>
<path d="M26.4559 76.4706C25.6433 76.4702 24.9472 76.7545 24.3676 77.3235C23.7986 77.9031 23.5143 78.5992 23.5147 79.4118L23.5294 102.926C23.529 103.739 23.8133 104.43 24.3824 105C24.9619 105.579 25.658 105.868 26.4706 105.868C27.2832 105.868 27.9743 105.579 28.5441 105C29.1229 104.43 29.4121 103.739 29.4118 102.926L29.3971 79.4118C29.3974 78.5992 29.1082 77.9031 28.5294 77.3235C27.9596 76.7545 27.2685 76.4702 26.4559 76.4706ZM26.4706 17.6471C25.658 17.6467 24.9619 17.931 24.3824 18.5C23.8133 19.0796 23.529 19.7757 23.5294 20.5882V64.7059C23.529 65.5185 23.8133 66.2096 24.3824 66.7794C24.9619 67.3582 25.658 67.6474 26.4706 67.6471C27.2832 67.6474 27.9743 67.3582 28.5441 66.7794C29.1229 66.2096 29.4121 65.5185 29.4118 64.7059V20.5882C29.4121 19.7757 29.1229 19.0796 28.5441 18.5C27.9743 17.931 27.2832 17.6467 26.4706 17.6471ZM169.721 74.3824C169.151 73.8133 168.46 73.529 167.647 73.5294C166.834 73.529 166.138 73.8133 165.559 74.3824C164.99 74.9619 164.705 75.658 164.706 76.4706V126.471C164.705 127.283 164.99 127.974 165.559 128.544C166.138 129.123 166.834 129.412 167.647 129.412C168.46 129.412 169.151 129.123 169.721 128.544C170.299 127.974 170.589 127.283 170.588 126.471V76.4706C170.589 75.658 170.299 74.9619 169.721 74.3824ZM98.4853 86.7941C95.2261 83.5497 91.4859 81.035 87.2647 79.25C82.9001 77.3986 78.3217 76.4721 73.5294 76.4706C68.7375 76.4722 64.1542 77.3987 59.7794 79.25C55.5551 81.0346 51.8149 83.5493 48.5588 86.7941C45.314 90.0502 42.7993 93.7904 41.0147 98.0147C39.1634 102.39 38.2369 106.973 38.2353 111.765V113.221C38.237 114.445 37.8056 115.484 36.9412 116.338C36.0808 117.209 35.0416 117.645 33.8235 117.647C32.602 117.648 31.5628 117.217 30.7059 116.353H30.6912V116.338C29.8365 115.484 29.41 114.445 29.4118 113.221C29.4121 112.408 29.1229 111.712 28.5441 111.132C27.9743 110.563 27.2832 110.279 26.4706 110.279C25.658 110.279 24.9619 110.563 24.3824 111.132C23.8133 111.712 23.529 112.408 23.5294 113.221C23.5311 116.071 24.5311 118.497 26.5294 120.5C28.5387 122.519 30.97 123.529 33.8235 123.529C36.6643 123.531 39.0908 122.521 41.1029 120.5C43.111 118.501 44.1159 116.074 44.1176 113.221V111.765C44.116 107.772 44.8856 103.954 46.4265 100.309C47.9164 96.788 50.0144 93.6704 52.7206 90.9559C55.4351 88.2497 58.5527 86.1517 62.0735 84.6618C65.7183 83.1209 69.537 82.3513 73.5294 82.3529C77.5213 82.3514 81.335 83.1211 84.9706 84.6618C88.4945 86.1513 91.6171 88.2493 94.3382 90.9559H94.3235C97.0395 93.6704 99.1425 96.788 100.632 100.309C102.173 103.954 102.943 107.772 102.941 111.765V113.221C102.943 116.071 103.943 118.497 105.941 120.5C107.95 122.519 110.382 123.529 113.235 123.529C116.076 123.531 118.503 122.521 120.515 120.5C122.523 118.501 123.528 116.074 123.529 113.221C123.53 112.408 123.241 111.712 122.662 111.132C122.092 110.563 121.401 110.279 120.588 110.279C119.776 110.279 119.08 110.563 118.5 111.132C117.931 111.712 117.647 112.408 117.647 113.221C117.649 114.445 117.217 115.484 116.353 116.338C115.493 117.209 114.453 117.645 113.235 117.647C112.014 117.648 110.975 117.217 110.118 116.353H110.103V116.338C109.248 115.484 108.822 114.445 108.824 113.221V111.765C108.822 106.973 107.895 102.39 106.044 98.0147C104.259 93.7904 101.74 90.0502 98.4853 86.7941ZM122.647 77.3235C122.077 76.7545 121.386 76.4702 120.574 76.4706C119.761 76.4702 119.065 76.7545 118.485 77.3235C117.916 77.9031 117.632 78.5992 117.632 79.4118L117.647 102.926C117.647 103.739 117.931 104.43 118.5 105C119.08 105.579 119.776 105.868 120.588 105.868C121.401 105.868 122.092 105.579 122.662 105C123.241 104.43 123.53 103.739 123.529 102.926L123.515 79.4118C123.515 78.5992 123.226 77.9031 122.647 77.3235ZM122.662 18.5C122.092 17.931 121.401 17.6467 120.588 17.6471C119.776 17.6467 119.08 17.931 118.5 18.5C117.931 19.0796 117.647 19.7757 117.647 20.5882V64.7059C117.647 65.5185 117.931 66.2096 118.5 66.7794C119.08 67.3582 119.776 67.6474 120.588 67.6471C121.401 67.6474 122.092 67.3582 122.662 66.7794C123.241 66.2096 123.53 65.5185 123.529 64.7059V20.5882C123.53 19.7757 123.241 19.0796 122.662 18.5ZM169.721 15.5588C169.151 14.9898 168.46 14.7055 167.647 14.7059C166.834 14.7055 166.138 14.9898 165.559 15.5588C164.99 16.1384 164.705 16.8345 164.706 17.6471V58.8235C164.705 59.6361 164.99 60.3273 165.559 60.8971C166.138 61.4759 166.834 61.7651 167.647 61.7647C168.46 61.7651 169.151 61.4759 169.721 60.8971C170.299 60.3273 170.589 59.6361 170.588 58.8235V17.6471C170.589 16.8345 170.299 16.1384 169.721 15.5588Z" fill="#7812C9"/>
</g>
<defs>
<clipPath id="clip0_18_300">
<rect width="300" height="300" fill="white"/>
</clipPath>
</defs>
</svg>
