<svg width="100" height="100" viewBox="0 0 100 100" fill="none" xmlns="http://www.w3.org/2000/svg">
<g clip-path="url(#clip0_8_58)">
<path d="M25.488 54.4941C25.3556 54.6442 25.2805 54.834 25.2629 55.0635V62.2013C25.2805 62.422 25.3556 62.603 25.488 62.7443C25.6469 62.8943 25.8367 62.9782 26.0574 62.9959C26.287 62.9782 26.4768 62.8943 26.6269 62.7443C26.7858 62.603 26.8653 62.422 26.8653 62.2013V55.0635C26.8653 54.834 26.7858 54.6442 26.6269 54.4941C26.4768 54.3352 26.287 54.2557 26.0574 54.2557C25.8367 54.2557 25.6469 54.3352 25.488 54.4941ZM52.4368 67.2468C52.2779 67.3968 52.1984 67.5867 52.1984 67.8162C52.1984 68.0369 52.2779 68.2267 52.4368 68.3856C52.5869 68.5357 52.7767 68.6108 53.0062 68.6108H72.3537C72.5791 68.6061 72.7645 68.531 72.9099 68.3856C73.0159 68.2796 73.0866 68.1604 73.1218 68.0281C73.1395 67.9603 73.1483 67.8897 73.1483 67.8162C73.1483 67.7398 73.1395 67.6647 73.1218 67.5911C73.0866 67.4616 73.0159 67.3469 72.9099 67.2468C72.7598 67.1055 72.57 67.026 72.3405 67.0084H53.0062C52.7767 67.026 52.5869 67.1055 52.4368 67.2468ZM42.7961 68.2532C42.6372 68.0943 42.4474 68.0148 42.2267 68.0148C42.0237 68.0148 41.8427 68.0943 41.6838 68.2532C41.5337 68.4033 41.4586 68.5931 41.4586 68.8226C41.4586 69.0257 41.5337 69.2155 41.6838 69.3921C42.0281 69.7187 42.4077 70.1557 42.8226 70.7031C43.2376 71.2593 43.5907 71.9082 43.8821 72.6498C44.1911 73.3914 44.3544 74.2036 44.372 75.0864C44.3544 76.4636 43.9924 77.7129 43.2861 78.8341C42.5975 79.9553 41.6661 80.8514 40.4919 81.5223C39.3177 82.211 38.0244 82.5641 36.6118 82.5817H23.25C23.042 82.5867 22.861 82.6662 22.7071 82.8201C22.5531 82.9484 22.4737 83.1206 22.4687 83.3366V83.3763C22.4737 83.5929 22.5531 83.7739 22.7071 83.9193C22.861 84.0732 23.042 84.1527 23.25 84.1576H36.6118C38.3246 84.14 39.8872 83.725 41.2997 82.9128C42.6946 82.0918 43.8158 80.997 44.6634 79.6286C45.5021 78.2691 45.9302 76.755 45.9479 75.0864C45.9479 73.8769 45.6831 72.6851 45.1533 71.5109C44.6148 70.3367 43.8291 69.2508 42.7961 68.2532Z" fill="#16FF57"/>
<path d="M41.4587 57.2883C41.2997 57.1294 41.1099 57.0499 40.8892 57.0499H29.9376C29.3372 57.0676 28.8296 57.275 28.4147 57.6723C28.0174 58.0873 27.8099 58.5949 27.7923 59.1952V62.0954C27.7923 62.3161 27.8717 62.4971 28.0306 62.6383C28.1807 62.7972 28.3705 62.8855 28.6001 62.9032C28.8208 62.8855 29.0017 62.8061 29.143 62.6648C29.2931 62.5059 29.3681 62.3161 29.3681 62.0954L29.3946 59.1952C29.3946 59.0451 29.4476 58.9171 29.5535 58.8112C29.6595 58.7053 29.7875 58.6523 29.9376 58.6523H40.8892C41.1099 58.6346 41.2997 58.5596 41.4587 58.4272C41.6087 58.2682 41.6838 58.0784 41.6838 57.8577C41.6838 57.6282 41.6087 57.4384 41.4587 57.2883ZM41.8957 77.2847C42.3106 76.3665 42.5181 75.3292 42.5181 74.1727C42.5004 72.8484 42.0943 71.6433 41.2998 70.5574C40.5052 69.4892 39.4458 68.6328 38.1215 67.9883C36.7884 67.3527 35.3052 67.026 33.672 67.0084H26.2958C26.0045 67.0084 25.722 66.9554 25.4483 66.8495C25.1658 66.7347 24.923 66.5714 24.72 66.3595C24.5081 66.1565 24.3448 65.9181 24.23 65.6444C24.124 65.3795 24.0711 65.0926 24.0711 64.7836V57.8577C24.0711 57.6282 23.9916 57.4384 23.8327 57.2883C23.6826 57.1294 23.4928 57.0499 23.2633 57.0499C23.0426 57.0499 22.8528 57.1294 22.6938 57.2883C22.5614 57.4384 22.4864 57.6282 22.4687 57.8577V64.8763C22.4803 65.3646 22.573 65.8281 22.7468 66.2668C22.9587 66.7259 23.2456 67.1364 23.6076 67.4984C23.9695 67.8603 24.3757 68.1384 24.8259 68.3327C25.285 68.5181 25.775 68.6108 26.2958 68.6108H33.672C34.9962 68.6284 36.2013 68.8888 37.2872 69.3921C38.3731 69.8865 39.2427 70.5486 39.896 71.3785C40.5582 72.226 40.8936 73.1574 40.9025 74.1727C40.8936 75.5322 40.5758 76.627 39.949 77.4568C39.331 78.2867 38.5541 78.8826 37.6183 79.2446C36.6913 79.6066 35.7467 79.7875 34.7844 79.7875C34.2811 79.7875 33.4424 79.7875 32.2683 79.7875C31.0941 79.7875 29.7742 79.7875 28.3087 79.7875C26.8255 79.7875 25.3953 79.7875 24.0181 79.7875C23.9826 79.7875 23.9473 79.7875 23.9122 79.7875C23.3976 79.7875 22.9164 79.7875 22.4687 79.7875C21.7747 79.7875 21.1611 79.7875 20.628 79.7875H20.4823C20.2743 79.7925 20.0933 79.872 19.9394 80.0259C19.7805 80.1583 19.701 80.3393 19.701 80.5689C19.701 80.7896 19.7805 80.975 19.9394 81.1251C20.0933 81.279 20.2743 81.3585 20.4823 81.3634H20.628C21.1611 81.3634 21.7747 81.3634 22.4687 81.3634C22.9164 81.3634 23.3976 81.3634 23.9122 81.3634C23.9473 81.3634 23.9826 81.3634 24.0181 81.3634C25.3953 81.3634 26.8255 81.3634 28.3087 81.3634C29.7742 81.3634 31.0941 81.3634 32.2683 81.3634C33.4424 81.3634 34.2811 81.3634 34.7844 81.3634C35.7996 81.3634 36.7531 81.2178 37.6448 80.9264C38.5629 80.6351 39.3663 80.2113 40.0549 79.6551C40.8495 79.0018 41.4631 78.2117 41.8957 77.2847ZM72.8967 70.041C72.7378 69.8997 72.548 69.8202 72.3273 69.8026C72.0977 69.8202 71.9079 69.8997 71.7578 70.041C71.6166 70.191 71.5371 70.3809 71.5195 70.6104V83.2306C71.5371 83.4513 71.6166 83.6412 71.7578 83.8001C71.9079 83.9325 72.0977 84.0075 72.3273 84.0252C72.548 84.0075 72.7378 83.9325 72.8967 83.8001C73.0468 83.6412 73.1218 83.4513 73.1218 83.2306V70.5839C73.1171 70.3673 73.0421 70.1864 72.8967 70.041ZM73.1218 52.2693C73.1218 52.0398 73.0468 51.85 72.8967 51.6999C72.7378 51.541 72.548 51.4615 72.3273 51.4615C72.0977 51.4615 71.9079 51.541 71.7578 51.6999C71.6166 51.85 71.5371 52.0398 71.5195 52.2693V65.022C71.5371 65.2427 71.6166 65.4325 71.7578 65.5914C71.9079 65.7415 72.0977 65.8166 72.3273 65.8166C72.548 65.8166 72.7378 65.7415 72.8967 65.5914C73.0421 65.4375 73.1171 65.2521 73.1218 65.0352V52.2693ZM50.7815 51.6999C50.6226 51.541 50.4328 51.4615 50.212 51.4615C49.9825 51.4615 49.7927 51.541 49.6426 51.6999C49.4837 51.85 49.4042 52.0398 49.4042 52.2693V62.8237C49.4042 63.0444 49.4837 63.2342 49.6426 63.3931C49.7927 63.5432 49.9825 63.6183 50.212 63.6183C50.4328 63.6183 50.6226 63.5432 50.7815 63.3931C50.9139 63.2342 50.9889 63.0444 51.0066 62.8237V52.2693C50.9889 52.0398 50.9139 51.85 50.7815 51.6999Z" fill="#12C998"/>
<path d="M40.7568 55.633C40.9069 55.4741 40.9819 55.2842 40.9819 55.0635C40.9819 54.834 40.9069 54.6442 40.7568 54.4941C40.5979 54.3352 40.4081 54.2557 40.1874 54.2557H29.4211C29.2004 54.2557 29.0106 54.3352 28.8517 54.4941C28.7016 54.6442 28.6265 54.834 28.6265 55.0635C28.6265 55.2842 28.7016 55.4741 28.8517 55.633C29.0106 55.7654 29.2004 55.8404 29.4211 55.8581H40.1874C40.4081 55.8404 40.5979 55.7654 40.7568 55.633ZM70.1025 70.041C69.9436 69.8997 69.7538 69.8202 69.5331 69.8026C69.3035 69.8202 69.1225 69.8997 68.9901 70.041C68.8312 70.191 68.7517 70.3809 68.7517 70.6104L68.7253 81.6283C68.7429 81.849 68.8224 82.03 68.9636 82.1712C69.1137 82.3213 69.3035 82.3963 69.5331 82.3963C69.7538 82.3963 69.9436 82.3213 70.1025 82.1712C70.2526 82.03 70.3276 81.849 70.3276 81.6283V70.6104C70.3276 70.3809 70.2526 70.191 70.1025 70.041ZM53.8008 52.2693C53.8008 52.0398 53.7258 51.85 53.5757 51.6999C53.4168 51.541 53.2269 51.4615 53.0062 51.4615C52.7767 51.4615 52.5869 51.541 52.4368 51.6999C52.2956 51.85 52.2161 52.0398 52.1984 52.2693V62.2013C52.2337 63.2166 52.5869 64.0685 53.2578 64.7571C53.9465 65.4281 54.8072 65.7812 55.8402 65.8166H67.3878C68.2088 65.7989 68.9062 65.5076 69.4801 64.9425C70.0275 64.3863 70.31 63.6889 70.3276 62.8502V52.2693C70.3276 52.0398 70.2526 51.85 70.1025 51.6999C69.9612 51.541 69.7714 51.4615 69.5331 51.4615C69.3035 51.4615 69.1225 51.541 68.9901 51.6999C68.8312 51.85 68.7517 52.0398 68.7517 52.2693V62.8502C68.7341 63.2475 68.5972 63.5741 68.3412 63.8302C68.0852 64.0862 67.7674 64.2142 67.3878 64.2142H55.8402C55.2575 64.1965 54.7763 63.9979 54.3967 63.6183C54.0171 63.2387 53.8184 62.7663 53.8008 62.2013V52.2693Z" fill="#16FFBD"/>
<path d="M4.22031 27.4129C4.0614 27.254 3.87159 27.1745 3.65088 27.1745C3.42134 27.1745 3.23153 27.254 3.08144 27.4129C2.94019 27.5453 2.86074 27.7351 2.84308 27.9823V48.5614C2.86074 48.7909 2.94019 48.9807 3.08144 49.1308C3.23153 49.2897 3.42134 49.3692 3.65088 49.3692C3.87159 49.3692 4.0614 49.2897 4.22031 49.1308C4.37039 48.9807 4.44544 48.7909 4.44544 48.5614V27.9823C4.44544 27.7351 4.37039 27.5453 4.22031 27.4129ZM4.22031 17.4809C4.0614 17.322 3.87159 17.2425 3.65088 17.2425C3.42134 17.2425 3.23153 17.322 3.08144 17.4809C2.94019 17.631 2.86074 17.8208 2.84308 18.0503V23.9168C2.86074 24.1375 2.94019 24.3185 3.08144 24.4598C3.23153 24.6187 3.42134 24.6981 3.65088 24.6981C3.87159 24.6981 4.0614 24.6187 4.22031 24.4598C4.37039 24.3185 4.44544 24.1375 4.44544 23.9168V18.0503C4.44544 17.8208 4.37039 17.631 4.22031 17.4809ZM72.367 34.2064C72.1374 34.224 71.9476 34.3035 71.7975 34.4447C71.6386 34.6036 71.5592 34.7935 71.5592 35.0142V47.065C71.5592 47.3033 71.6386 47.4931 71.7975 47.6344C71.9476 47.7933 72.1374 47.8728 72.367 47.8728C72.5877 47.8728 72.7775 47.7933 72.9364 47.6344C73.0688 47.4931 73.1439 47.3033 73.1615 47.065V35.0142C73.1439 34.7935 73.0688 34.6036 72.9364 34.4447C72.7775 34.3035 72.5877 34.224 72.367 34.2064ZM65.6927 14.0908C65.622 14.0202 65.547 13.9672 65.4676 13.9319C65.3616 13.8966 65.2645 13.8789 65.1762 13.8789C65.0526 13.8789 64.9423 13.9054 64.8451 13.9584C64.7392 13.9937 64.6509 14.0555 64.5803 14.1438C64.0153 14.7794 63.0441 15.8476 61.6669 17.3485C60.2808 18.867 58.6476 20.668 56.7671 22.7515C54.8778 24.8262 52.8782 27.0244 50.7682 29.3463C48.9584 31.3504 47.1839 33.3103 45.4447 35.226C43.7055 37.133 42.1252 38.8634 40.7038 40.4172C39.2736 41.9886 38.1215 43.2555 37.2475 44.2178C36.3646 45.2066 35.8702 45.7584 35.7643 45.8731C34.9256 46.7736 34.0648 47.449 33.182 47.8993C32.308 48.3407 31.4119 48.5614 30.4937 48.5614C28.8075 48.5437 27.4876 48.0361 26.5342 47.0385C25.6072 46.0409 25.1349 44.6372 25.1172 42.8273V39.8477C25.1172 39.627 25.0378 39.4372 24.8788 39.2783C24.7288 39.1282 24.5389 39.0532 24.3094 39.0532C24.0887 39.0532 23.9077 39.1282 23.7665 39.2783C23.6164 39.4372 23.5413 39.627 23.5413 39.8477V42.8273C23.559 45.0874 24.1858 46.8619 25.4218 48.1509C26.6666 49.4663 28.3572 50.1417 30.4937 50.177C31.6326 50.177 32.745 49.9077 33.8309 49.3692C34.8991 48.813 35.932 48.0096 36.9297 46.959C37.0356 46.8443 37.5388 46.2925 38.4393 45.3037C39.3133 44.3414 40.4566 43.0745 41.8691 41.5031C43.2994 39.9316 44.8796 38.1924 46.61 36.2855C48.3492 34.3697 50.1326 32.4098 51.9601 30.4057C54.0612 28.1015 56.052 25.9032 57.9325 23.8109C59.8306 21.745 61.4594 19.9529 62.819 18.4344C64.2051 16.9159 65.1806 15.8476 65.7456 15.2296C65.9046 15.0531 65.9752 14.8544 65.9575 14.6337C65.9575 14.4218 65.8692 14.2409 65.6927 14.0908Z" fill="#7812C9"/>
<path d="M25.1172 30.8692C25.1172 30.6485 25.0377 30.4631 24.8788 30.313C24.7288 30.1541 24.5389 30.0747 24.3094 30.0747C24.0887 30.0747 23.9077 30.1541 23.7665 30.313C23.6164 30.4631 23.5413 30.6485 23.5413 30.8692V37.2124C23.5413 37.4508 23.6164 37.6406 23.7665 37.7819C23.9077 37.9408 24.0887 38.0202 24.3094 38.0202C24.5389 38.0202 24.7288 37.9408 24.8788 37.7819C25.0377 37.6406 25.1172 37.4508 25.1172 37.2124V30.8692ZM28.1365 17.5339C27.8628 17.4279 27.5892 17.3485 27.3155 17.2955C27.0418 17.2425 26.7637 17.216 26.4812 17.216C25.8632 17.216 25.2761 17.3308 24.7199 17.5604C24.1549 17.7987 23.6561 18.143 23.2235 18.5933C22.8439 18.9906 22.1288 19.7719 21.0782 20.9372C20.0099 22.1114 18.796 23.4666 17.4365 25.0027C16.0504 26.5212 14.6952 28.022 13.371 29.5052C12.0644 30.9884 10.952 32.2376 10.0338 33.2529C9.12449 34.2858 8.60803 34.8817 8.48444 35.0406C8.32552 35.2084 8.2549 35.3982 8.27256 35.6101C8.29021 35.8131 8.3785 35.9941 8.53741 36.153C8.70515 36.3031 8.89495 36.3737 9.10683 36.3649C9.32755 36.3473 9.51736 36.259 9.67627 36.1001C9.72925 36.0294 10.1927 35.4953 11.0668 34.4977C11.9496 33.5177 13.062 32.2773 14.4039 30.7765C15.737 29.2933 17.0922 27.766 18.4694 26.1946C19.8643 24.6408 21.1047 23.2679 22.1906 22.0761C23.2765 20.8931 24.0092 20.1029 24.3888 19.7057C24.8568 19.2201 25.3821 18.9332 25.9647 18.8449C26.5562 18.7654 27.0815 18.8184 27.5406 19.0038C27.8231 19.0921 28.1453 19.3084 28.5073 19.6527C28.8693 19.997 29.0679 20.5488 29.1032 21.308V31.783C29.1121 32.0037 29.1871 32.1846 29.3284 32.3259C29.4873 32.476 29.6771 32.551 29.8978 32.551C30.1185 32.551 30.3083 32.476 30.4672 32.3259C30.6261 32.1846 30.7056 32.0037 30.7056 31.783V21.308C30.7056 20.4252 30.4805 19.6571 30.0302 19.0038C29.58 18.3505 28.9487 17.8605 28.1365 17.5339ZM7.01451 14.1173C6.85559 13.9584 6.66578 13.8789 6.44507 13.8789C6.21553 13.8789 6.02573 13.9584 5.87564 14.1173C5.71673 14.2673 5.63727 14.4572 5.63727 14.6867V42.589C5.63727 42.8185 5.71673 43.0083 5.87564 43.1584C6.02573 43.2996 6.21553 43.3791 6.44507 43.3968C6.66578 43.3791 6.85559 43.2996 7.01451 43.1584C7.14693 43.0083 7.22197 42.8185 7.23962 42.589V14.6867C7.22197 14.4572 7.14693 14.2673 7.01451 14.1173ZM46.9146 29.6376C46.8175 29.6906 46.7336 29.7568 46.663 29.8363L45.1268 31.5181C43.4583 33.3632 41.8471 35.1422 40.2933 36.8549C38.7395 38.5588 37.4108 40.0155 36.3072 41.225C35.2213 42.4433 34.5151 43.2334 34.1884 43.5954C33.7735 44.028 33.3453 44.2884 32.9039 44.3767C32.4713 44.465 32.0828 44.4385 31.7385 44.2973C31.4119 44.1648 31.1603 43.975 30.9837 43.7278C30.7983 43.4718 30.7056 43.1716 30.7056 42.8273V36.643C30.7056 36.4223 30.6261 36.2413 30.4672 36.1001C30.3083 35.9411 30.1185 35.8617 29.8978 35.8617C29.6771 35.8617 29.4873 35.9411 29.3284 36.1001C29.1871 36.2413 29.1121 36.4223 29.1032 36.643V42.8273C29.1121 43.4983 29.3019 44.103 29.6727 44.6416C30.0346 45.1536 30.5334 45.5288 31.1691 45.7672C31.9107 46.0497 32.6523 46.0938 33.3938 45.8996C34.1354 45.6966 34.7887 45.2816 35.3538 44.6548C35.6981 44.2928 36.4132 43.5115 37.4991 42.3109C38.6026 41.0837 39.9313 39.6182 41.4851 37.9143C43.0212 36.2016 44.6236 34.4315 46.2922 32.604L47.8283 30.8957C47.9784 30.728 48.0446 30.5381 48.027 30.3263C48.027 30.1232 47.9431 29.9422 47.7754 29.7833C47.7047 29.7215 47.6253 29.673 47.537 29.6376C47.4311 29.6023 47.3384 29.5847 47.2589 29.5847C47.1353 29.5847 47.0205 29.6023 46.9146 29.6376ZM57.363 20.3943C57.5043 20.2265 57.5749 20.0367 57.5749 19.8248C57.5573 19.6041 57.4601 19.4187 57.2836 19.2687C57.2218 19.198 57.1467 19.1451 57.0585 19.1097C56.9525 19.0744 56.8554 19.0568 56.7671 19.0568C56.6523 19.0568 56.5508 19.0833 56.4625 19.1362C56.3566 19.1715 56.2595 19.2378 56.1712 19.3349C55.9328 19.5997 55.4958 20.0853 54.8602 20.7916C54.2245 21.4978 53.4741 22.3233 52.6089 23.2679C51.7437 24.2214 50.8565 25.2058 49.9472 26.221C49.7882 26.3888 49.7176 26.5786 49.7353 26.7905C49.7353 26.9935 49.8236 27.1745 50.0001 27.3334C50.1679 27.4835 50.3577 27.5541 50.5696 27.5453C50.7726 27.5453 50.9536 27.457 51.1125 27.2805C51.6069 26.7419 52.2072 26.0886 52.9135 25.3205C53.6198 24.5436 54.3614 23.7226 55.1383 22.8574C55.9152 21.9922 56.6568 21.1712 57.363 20.3943ZM75.0552 16.6996C74.0664 16.7349 73.2454 17.0792 72.5921 17.7325C71.9388 18.3946 71.5945 19.2157 71.5592 20.1956V29.5052C71.5592 29.7259 71.6386 29.9157 71.7975 30.0747C71.9476 30.2336 72.1374 30.313 72.367 30.313C72.5877 30.313 72.7775 30.2336 72.9364 30.0747C73.0688 29.9157 73.1439 29.7259 73.1615 29.5052V20.1956C73.1615 19.6571 73.3425 19.2069 73.7045 18.8449C74.0664 18.5006 74.5167 18.3196 75.0552 18.3019H87.4106C88.9291 18.3196 90.2754 18.6816 91.4496 19.3878C92.6238 20.0941 93.5464 21.0697 94.2173 22.3145C94.8883 23.5593 95.2326 24.9895 95.2502 26.6051C95.2502 29.3154 94.4998 31.315 92.999 32.604C91.4982 33.9194 89.1984 34.5772 86.0996 34.5772H80.2198C79.9991 34.5772 79.8093 34.6522 79.6504 34.8023C79.518 34.9435 79.4429 35.1245 79.4253 35.3452C79.4429 35.5748 79.518 35.7646 79.6504 35.9147C79.8093 36.0736 79.9991 36.153 80.2198 36.153H86.0996C89.6663 36.153 92.3457 35.3496 94.1379 33.7429C95.93 32.1626 96.8261 29.7833 96.8261 26.6051C96.8085 24.6717 96.4068 22.9634 95.621 21.4802C94.8088 20.0058 93.6964 18.8449 92.2839 17.9974C90.8625 17.1498 89.2381 16.7172 87.4106 16.6996H75.0552Z" fill="#9816FF"/>
<path d="M24.8524 26.5786C24.7817 26.508 24.6979 26.4594 24.6007 26.4329C24.5125 26.3976 24.4154 26.38 24.3094 26.38C24.2035 26.38 24.1019 26.402 24.0048 26.4462C23.8989 26.4815 23.8106 26.5433 23.74 26.6316C23.0337 27.4085 22.12 28.4193 20.9988 29.6641C19.8952 30.9001 18.6548 32.2685 17.2776 33.7694C15.918 35.2878 14.5319 36.8328 13.1194 38.4043L6.02132 46.2439C5.8889 46.4117 5.82269 46.6015 5.82269 46.8134C5.84034 47.0164 5.93304 47.1974 6.10078 47.3563C6.27735 47.5064 6.46716 47.5726 6.67022 47.555C6.8821 47.555 7.06308 47.4711 7.21316 47.3033L14.298 39.4637C15.7194 37.8922 17.1098 36.3473 18.4694 34.8288C19.829 33.3279 21.0694 31.9595 22.1906 30.7235C23.3118 29.4787 24.2167 28.4767 24.9053 27.7175C25.0642 27.5497 25.1349 27.3599 25.1172 27.148C25.1172 26.9273 25.0289 26.7375 24.8524 26.5786ZM23.1176 14.1438C22.7203 14.5763 22.0405 15.3268 21.0782 16.395C20.1336 17.4809 19.0477 18.7036 17.8205 20.0632C16.5934 21.4404 15.3883 22.7956 14.2053 24.1287C12.9251 25.5413 11.826 26.764 10.9079 27.7969C9.99854 28.8122 9.44233 29.4434 9.23928 29.6906C9.08037 29.8584 9.00974 30.057 9.0274 30.2865C9.0274 30.4896 9.11127 30.6706 9.27901 30.8295C9.45558 30.9619 9.6454 31.0281 9.84845 31.0281C10.0603 31.0105 10.2413 30.9266 10.3914 30.7765C10.6209 30.5117 11.1904 29.8716 12.0997 28.8563C13.0179 27.8234 14.1126 26.6007 15.3839 25.1881C16.5757 23.855 17.7852 22.4999 19.0124 21.1226C20.2307 19.763 21.3166 18.5491 22.27 17.4809C23.2323 16.4127 23.9033 15.6534 24.2829 15.2032C24.4418 15.0266 24.5125 14.8368 24.4948 14.6337C24.4948 14.4218 24.4065 14.2409 24.23 14.0908C24.1682 14.0202 24.0843 13.9672 23.9783 13.9319C23.8901 13.8966 23.793 13.8789 23.687 13.8789C23.5899 13.8789 23.4884 13.9054 23.3824 13.9584C23.2765 13.9937 23.1882 14.0555 23.1176 14.1438ZM0.936146 13.8789H0.909659C0.68012 13.8789 0.49914 13.9584 0.366714 14.1173C0.207802 14.2674 0.128348 14.4572 0.128348 14.6867L0.0223999 48.5614C0.0400568 48.7909 0.119519 48.9807 0.260774 49.1308C0.410857 49.2897 0.600667 49.3692 0.830206 49.3692C1.05092 49.3692 1.24073 49.2897 1.39964 49.1308C1.54972 48.9807 1.62476 48.7909 1.62476 48.5614L1.70422 14.6867C1.70422 14.4572 1.62917 14.2674 1.47909 14.1173C1.33784 13.9584 1.15686 13.8789 0.936146 13.8789ZM61.508 22.3674C61.4197 22.3321 61.3226 22.3145 61.2167 22.3145C61.1195 22.3145 61.018 22.3409 60.9121 22.3939C60.8061 22.4292 60.709 22.491 60.6207 22.5793C60.4177 22.8177 59.9366 23.3518 59.1773 24.1817C58.4357 25.0027 57.5573 25.9738 56.542 27.0951C55.5267 28.2163 54.5159 29.3287 53.5094 30.4322C52.4942 31.5358 51.6246 32.4936 50.9007 33.3059C50.1767 34.1004 49.7221 34.5992 49.5367 34.8023C49.3954 34.9788 49.3336 35.1687 49.3513 35.3717C49.3513 35.5836 49.4351 35.7646 49.6029 35.9147C49.7794 36.0736 49.9693 36.1442 50.1723 36.1265C50.3842 36.1265 50.5652 36.0383 50.7153 35.8617C50.8918 35.6763 51.3509 35.1775 52.0925 34.3653C52.8164 33.5707 53.6772 32.6128 54.6748 31.4916C55.6901 30.3881 56.7098 29.2757 57.7339 28.1545C58.7315 27.0333 59.6099 26.0621 60.3691 25.2411C61.1284 24.4112 61.6095 23.8859 61.8126 23.6652C61.9715 23.4886 62.0421 23.2988 62.0245 23.0958C62.0068 22.8662 61.9185 22.6764 61.7596 22.5263C61.6802 22.4557 61.5963 22.4028 61.508 22.3674ZM76.3 21.414C76.5031 21.2021 76.7679 21.0873 77.0946 21.0697H86.4307C88.2935 21.0873 89.7413 21.5817 90.7743 22.5528C91.7984 23.5151 92.3148 24.8659 92.3236 26.6051C92.3413 27.3643 92.2221 28.1324 91.9661 28.9093C91.7277 29.6862 91.2642 30.3572 90.5756 30.9222C89.8958 31.496 88.9203 31.8668 87.649 32.0346H77.7965C77.5669 32.0522 77.3771 32.1317 77.227 32.2729C77.0858 32.4318 77.0063 32.6217 76.9887 32.8424C77.0063 33.0631 77.0858 33.2529 77.227 33.4118C77.3771 33.5619 77.5669 33.6369 77.7965 33.6369H87.702C87.7373 33.6369 87.7638 33.6369 87.7814 33.6369C89.7413 33.3986 91.2554 32.6746 92.3236 31.4651C93.3831 30.2645 93.9216 28.6445 93.9393 26.6051C93.9039 24.4156 93.2197 22.6941 91.8866 21.4405C90.5624 20.1603 88.7437 19.5114 86.4307 19.4938H77.0946C76.3177 19.5114 75.6732 19.7807 75.1612 20.3016C74.6403 20.8136 74.371 21.4581 74.3534 22.235V48.5614C74.3534 48.7909 74.4328 48.9807 74.5917 49.1308C74.7418 49.2721 74.9316 49.3515 75.1612 49.3692C75.3819 49.3515 75.5629 49.2721 75.7041 49.1308C75.8542 48.9807 75.9293 48.7909 75.9293 48.5614L75.9557 22.235C75.9557 21.9084 76.0705 21.6347 76.3 21.414ZM58.449 15.2296C58.6079 15.0531 58.6785 14.8544 58.6608 14.6337C58.6608 14.4218 58.5726 14.2409 58.396 14.0908C58.2282 13.9319 58.0384 13.8612 57.8265 13.8789C57.6235 13.8966 57.4425 13.9848 57.2836 14.1438L34.0825 39.7153C34.056 39.7506 33.9986 39.8036 33.9103 39.8742C33.8397 39.9272 33.7602 39.936 33.672 39.9007C33.619 39.883 33.5748 39.8477 33.5395 39.7948C33.513 39.7418 33.4998 39.6756 33.4998 39.5961V18.8714C33.4645 17.1851 32.9436 15.8079 31.9372 14.7397C31.5387 14.313 31.0929 13.9687 30.5997 13.7067C29.859 13.313 29.0115 13.1056 28.0571 13.0843C27.8364 13.0843 27.6466 13.1594 27.4877 13.3095C27.391 13.4254 27.3248 13.5579 27.289 13.7067C27.2761 13.7619 27.2673 13.8193 27.2625 13.8789C27.2802 14.1084 27.3552 14.2982 27.4877 14.4483C27.6466 14.5896 27.8364 14.669 28.0571 14.6867C29.1783 14.7044 30.092 15.1016 30.7983 15.8785C31.5134 16.6554 31.8754 17.6531 31.8842 18.8714V39.5961C31.9019 40.0111 32.0166 40.3818 32.2285 40.7085C32.4316 41.0175 32.7229 41.247 33.1025 41.3971C33.4822 41.5384 33.8618 41.556 34.2414 41.4501C34.621 41.3353 34.9653 41.1146 35.2743 40.788L58.449 15.2296ZM88.3244 15.5077C89.9753 15.5077 91.5688 15.905 93.105 16.6996C94.6234 17.4941 95.8815 18.7125 96.8791 20.3546C97.8679 21.9878 98.3755 24.0713 98.402 26.6051C98.3755 29.9334 97.3426 32.5643 95.3032 34.4977C93.2727 36.4311 90.505 37.4155 87.0001 37.4508C86.7794 37.4685 86.5896 37.5435 86.4307 37.6759C86.2982 37.8348 86.2232 38.0247 86.2055 38.2454C86.2232 38.4749 86.2982 38.6647 86.4307 38.8148C86.5896 38.9737 86.7794 39.0532 87.0001 39.0532C89.6045 39.0355 91.8822 38.5102 93.8333 37.4773C95.7756 36.4355 97.2852 34.9921 98.3623 33.147C99.4482 31.2842 100 29.1035 100.018 26.6051C99.9823 23.833 99.3952 21.5067 98.2564 19.6262C97.1351 17.7458 95.6961 16.3244 93.9393 15.3621C92.1559 14.4086 90.2843 13.9319 88.3244 13.9319L70.3938 13.9054C69.1402 13.9407 68.0984 14.3733 67.2686 15.2032C66.4387 16.033 66.0149 17.066 65.9973 18.3019L65.9708 48.5614C65.9884 48.7909 66.0679 48.9807 66.2091 49.1308C66.3592 49.2721 66.549 49.3515 66.7786 49.3692C66.9993 49.3515 67.1891 49.2721 67.348 49.1308C67.4981 48.9807 67.5731 48.7909 67.5731 48.5614V18.3019C67.5908 17.5074 67.8689 16.8541 68.4074 16.342C68.9371 15.8035 69.5993 15.5254 70.3938 15.5077H88.3244Z" fill="#2C1B47"/>
<path d="M27.5671 22.0761C27.3464 21.7318 27.0286 21.4846 26.6136 21.3345C26.3753 21.2286 26.1325 21.1756 25.8853 21.1756C25.5586 21.1756 25.2497 21.255 24.9583 21.414C24.6493 21.5464 24.3668 21.7539 24.1108 22.0364C23.8636 22.2924 23.303 22.9104 22.429 23.8903C21.5461 24.8615 20.4735 26.0445 19.211 27.4394C17.9574 28.8343 16.6331 30.3086 15.2382 31.8624C13.8345 33.3986 12.5058 34.8729 11.2522 36.2854C9.97205 37.6803 8.88616 38.8678 7.99449 39.8477C7.85323 40.0243 7.78259 40.2141 7.78259 40.4172C7.80025 40.6467 7.88853 40.8365 8.04745 40.9866C8.21519 41.1278 8.41383 41.1985 8.64336 41.1985C8.84642 41.1808 9.02741 41.0925 9.18633 40.9336C10.078 39.936 11.1551 38.7398 12.4175 37.3449C13.6888 35.95 15.0263 34.4756 16.43 32.9218C17.8249 31.3857 19.1492 29.9202 20.4028 28.5253C21.6653 27.1127 22.7335 25.9209 23.6076 24.9497C24.4904 23.9874 25.051 23.3695 25.2894 23.0958C25.413 22.9722 25.5454 22.8839 25.6867 22.8309C25.8014 22.778 25.9206 22.7691 26.0442 22.8044C26.1325 22.8398 26.2031 22.9015 26.2561 22.9898C26.2914 23.0781 26.3091 23.1796 26.3091 23.2944V42.6684C26.3091 43.3041 26.4106 43.9618 26.6136 44.6416C26.8167 45.3302 27.161 45.8731 27.6466 46.2704C27.8408 46.3852 28.0394 46.4337 28.2425 46.4161C28.4544 46.3808 28.6354 46.2792 28.7854 46.1115C28.909 45.9173 28.9532 45.7186 28.9179 45.5156C28.9002 45.3125 28.7943 45.1315 28.6 44.9726C28.397 44.8137 28.2337 44.5224 28.1101 44.0986C27.9776 43.666 27.9114 43.1893 27.9114 42.6684V23.2944C27.9114 22.8265 27.7966 22.4204 27.5671 22.0761ZM70.1422 20.1956C69.9833 20.0367 69.7935 19.9573 69.5728 19.9573C69.3433 19.9573 69.1623 20.0367 69.0298 20.1956C68.8709 20.3281 68.7915 20.509 68.7915 20.7386L68.765 41.0396C68.7826 41.2603 68.8621 41.4501 69.0033 41.609C69.1534 41.7679 69.3433 41.8474 69.5728 41.8474C69.7935 41.8474 69.9833 41.7679 70.1422 41.609C70.2923 41.4501 70.3673 41.2603 70.3673 41.0396V20.7386C70.3673 20.509 70.2923 20.3281 70.1422 20.1956ZM79.0413 22.3939C78.8824 22.544 78.8029 22.7338 78.8029 22.9634C78.8029 23.1841 78.8824 23.3739 79.0413 23.5328C79.1914 23.6652 79.3812 23.7403 79.6107 23.7579H86.3777C87.1899 23.7756 87.8785 24.0625 88.4436 24.6187C88.9998 25.166 89.2955 25.8282 89.3308 26.6051C89.3132 27.4173 89.0527 28.0927 88.5495 28.6312C88.0551 29.1609 87.4283 29.4346 86.669 29.4522H80.2728C80.0521 29.4522 79.8623 29.5317 79.7034 29.6906C79.5533 29.8407 79.4783 30.0305 79.4783 30.26C79.4783 30.4808 79.5533 30.6617 79.7034 30.803C79.8623 30.9531 80.0521 31.0281 80.2728 31.0281H86.669C87.8697 31.0105 88.8673 30.5823 89.6619 29.7436C90.4564 28.9137 90.8714 27.8675 90.9067 26.6051C90.8714 25.3691 90.4211 24.3273 89.5559 23.4798C88.6996 22.6323 87.6402 22.1909 86.3777 22.1555H79.6107C79.3812 22.1555 79.1914 22.235 79.0413 22.3939Z" fill="#DE16FF"/>
<path d="M67.3083 72.5438C67.1494 72.3937 66.9596 72.3187 66.7389 72.3187C66.5093 72.3187 66.3195 72.3937 66.1694 72.5438C66.0282 72.7027 65.9487 72.8925 65.9311 73.1133V86.144C65.9487 86.3735 66.0282 86.5634 66.1694 86.7134C66.3195 86.8724 66.5093 86.9518 66.7389 86.9518C66.9596 86.9518 67.1494 86.8724 67.3083 86.7134C67.4584 86.5634 67.5334 86.3735 67.5334 86.144V73.1133C67.5334 72.8925 67.4584 72.7027 67.3083 72.5438ZM67.5334 52.2693C67.5334 52.0398 67.4584 51.85 67.3083 51.6999C67.1494 51.541 66.9596 51.4615 66.7389 51.4615C66.5093 51.4615 66.3283 51.541 66.1959 51.6999C66.037 51.85 65.9487 52.0398 65.9311 52.2693V62.5059C65.9487 62.7354 66.0282 62.9252 66.1694 63.0753C66.3195 63.2342 66.5093 63.3137 66.7389 63.3137C66.9596 63.3137 67.1494 63.2342 67.3083 63.0753C67.4584 62.9252 67.5334 62.7354 67.5334 62.5059V52.2693ZM75.916 52.2693C75.916 52.0398 75.841 51.85 75.6909 51.6999C75.532 51.541 75.3422 51.4615 75.1214 51.4615C74.8919 51.4615 74.7021 51.541 74.552 51.6999C74.4108 51.85 74.3313 52.0398 74.3137 52.2693V86.144C74.3313 86.3735 74.4108 86.5634 74.552 86.7134C74.7021 86.8724 74.8919 86.9518 75.1214 86.9518C75.3422 86.9518 75.532 86.8724 75.6909 86.7134C75.841 86.5634 75.916 86.3735 75.916 86.144V52.2693ZM46.3982 67.9619C45.6036 67.0525 44.8355 66.3727 44.0939 65.9225C43.5377 65.5429 42.7962 65.2251 41.8692 64.969C40.9334 64.713 39.9313 64.5232 38.8631 64.3996C37.8125 64.276 36.7972 64.2142 35.8173 64.2142H28.6C28.3705 64.2319 28.1807 64.3113 28.0306 64.4526C27.8717 64.6026 27.7922 64.7925 27.7922 65.022C27.7922 65.2427 27.8717 65.4325 28.0306 65.5914C28.1807 65.7415 28.3705 65.8166 28.6 65.8166H35.8173C37.5565 65.8342 39.0882 65.9843 40.4125 66.2668C41.7456 66.5581 42.6593 66.876 43.1537 67.2203C43.1714 67.2379 43.1979 67.2556 43.2332 67.2732C43.86 67.6529 44.5089 68.2311 45.1798 69.008C45.8684 69.7761 46.4555 70.6898 46.9411 71.7493C47.4178 72.7998 47.665 73.9122 47.6827 75.0864C47.6827 76.8256 47.3207 78.4721 46.5968 80.0259C45.8552 81.5709 44.7252 82.8378 43.2067 83.8265C41.6882 84.8065 39.7504 85.3141 37.3932 85.3495H19.2375C19.0079 85.3671 18.8181 85.4422 18.6681 85.5746C18.5268 85.7335 18.4473 85.9233 18.4297 86.144C18.4473 86.3735 18.5268 86.5634 18.6681 86.7134C18.8181 86.8724 19.0079 86.9518 19.2375 86.9518H37.3932C40.1123 86.9165 42.3459 86.3118 44.0939 85.1376C45.8508 83.981 47.1618 82.4979 48.027 80.688C48.8657 78.8959 49.2762 77.0287 49.2586 75.0864C49.2409 73.6827 48.9584 72.3717 48.411 71.1533C47.8548 69.9262 47.1839 68.8624 46.3982 67.9619ZM46.8484 51.6999C46.7071 51.85 46.6277 52.0398 46.61 52.2693V64.2936C46.6277 65.6091 46.9544 66.8009 47.59 67.8692C48.2345 68.9374 49.0908 69.7893 50.1591 70.425C51.2273 71.0606 52.4236 71.3873 53.7478 71.4049H66.7389C66.9596 71.3873 67.1494 71.3122 67.3083 71.1798C67.4584 71.0209 67.5334 70.8311 67.5334 70.6104C67.5334 70.3808 67.4584 70.191 67.3083 70.041C67.1494 69.882 66.9596 69.8026 66.7389 69.8026H53.7478C52.1852 69.7673 50.883 69.2332 49.8413 68.2002C48.7907 67.1496 48.2477 65.8474 48.2124 64.2936V52.2693C48.2124 52.0398 48.1374 51.85 47.9873 51.6999C47.8284 51.541 47.6386 51.4615 47.4178 51.4615C47.1883 51.4615 46.9985 51.541 46.8484 51.6999ZM42.2797 52.8388C42.4209 52.6798 42.5004 52.49 42.5181 52.2693C42.5004 52.0398 42.4209 51.85 42.2797 51.6999C42.1208 51.541 41.931 51.4615 41.7103 51.4615H24.6405C23.2456 51.4968 22.0802 51.9824 21.1444 52.9182C20.2174 53.8452 19.7363 55.015 19.701 56.4275V60.8638C19.7003 62.7222 19.7003 64.5806 19.701 66.439C19.7363 67.8515 20.2174 69.0257 21.1444 69.9615C21.544 70.3573 21.9854 70.6707 22.4687 70.9017C23.1172 71.217 23.8412 71.3847 24.6405 71.4049H32.6523C34.4533 71.4403 35.7643 71.7272 36.5854 72.2657C37.4329 72.8131 37.8567 73.4487 37.8567 74.1727C37.8567 74.8966 37.6404 75.572 37.2078 76.1988C36.7575 76.7991 36.0071 77.1258 34.9565 77.1787C34.7358 77.1787 34.546 77.2538 34.3871 77.4039C34.2546 77.5451 34.1796 77.7261 34.162 77.9468C34.1796 78.194 34.2546 78.3838 34.3871 78.5162C34.546 78.6752 34.7358 78.7546 34.9565 78.7546C36.3073 78.737 37.3843 78.3132 38.1877 77.4833C38.9999 76.6358 39.4149 75.5322 39.4325 74.1727C39.4149 72.8484 38.7969 71.7978 37.5785 71.0209C36.3514 70.2263 34.7093 69.8202 32.6523 69.8026H24.6405C23.7969 69.7868 23.0729 69.522 22.4687 69.008C22.3963 68.9524 22.3257 68.8906 22.2568 68.8226C21.6388 68.187 21.3122 67.3924 21.2769 66.439V56.4275C21.3122 55.4652 21.6388 54.6751 22.2568 54.0571C22.9013 53.4126 23.6958 53.0815 24.6405 53.0639H41.7103C41.931 53.0462 42.1208 52.9712 42.2797 52.8388ZM56.3169 52.2693C56.3169 52.0398 56.2374 51.85 56.0785 51.6999C55.9373 51.541 55.7563 51.4615 55.5356 51.4615C55.3149 51.4615 55.1251 51.541 54.9661 51.6999C54.8161 51.85 54.741 52.0398 54.741 52.2693V62.0954C54.741 62.3161 54.8161 62.5059 54.9661 62.6648C55.1074 62.8061 55.2884 62.8855 55.5091 62.9032C55.7475 62.8855 55.9373 62.8061 56.0785 62.6648C56.2374 62.5059 56.3169 62.3161 56.3169 62.0954V52.2693Z" fill="#1B473C"/>
</g>
<defs>
<clipPath id="clip0_8_58">
<rect width="100" height="100" fill="white"/>
</clipPath>
</defs>
</svg>
