<svg width="1020" height="1020" viewBox="0 0 1020 1020" fill="none" xmlns="http://www.w3.org/2000/svg">
<g clip-path="url(#clip0_20_314)">
<path d="M900 850C900 847.233 899.033 844.883 897.1 842.95C895.133 840.983 892.767 840 890 840C887.233 840 884.883 840.983 882.95 842.95C880.983 844.883 880 847.233 880 850V1010C880 1012.77 880.983 1015.13 882.95 1017.1C884.883 1019.03 887.233 1020 890 1020C892.767 1020 895.133 1019.03 897.1 1017.1C899.033 1015.13 900 1012.77 900 1010V850ZM940 810C940 807.233 939.033 804.883 937.1 802.95C935.133 800.983 932.767 800 930 800C927.233 800 924.883 800.983 922.95 802.95C920.983 804.883 920 807.233 920 810V970C920 972.767 920.983 975.133 922.95 977.1C924.883 979.033 927.233 980 930 980C932.767 980 935.133 979.033 937.1 977.1C939.033 975.133 940 972.767 940 970V810ZM980 810C980 807.233 979.033 804.883 977.1 802.95C975.133 800.983 972.767 800 970 800C967.233 800 964.883 800.983 962.95 802.95C960.983 804.883 960 807.233 960 810V990C960 992.767 960.983 995.133 962.95 997.1C964.883 999.033 967.233 1000 970 1000C972.767 1000 975.133 999.033 977.1 997.1C979.033 995.133 980 992.767 980 990V810ZM420 870C420.033 866.233 419.583 861.517 418.65 855.85C416.783 844.817 413.55 834.717 408.95 825.55C407.683 823.083 405.75 821.417 403.15 820.55C400.55 819.65 398.017 819.833 395.55 821.1C393.083 822.333 391.417 824.25 390.55 826.85C389.65 829.45 389.817 832 391.05 834.5C394.783 841.967 397.4 850.183 398.9 859.15C399.6 863.483 399.967 867.1 400 870C400 883.8 395.117 895.583 385.35 905.35C375.583 915.117 363.8 920 350 920H30C27.2333 920 24.8833 920.983 22.95 922.95C20.9833 924.883 20 927.233 20 930C20 932.767 20.9833 935.133 22.95 937.1C24.8833 939.033 27.2333 940 30 940H350C369.333 940 385.817 933.167 399.45 919.5L399.5 919.45C413.167 905.817 420 889.333 420 870ZM562.95 542.95C560.983 544.883 560 547.233 560 550V720C560 722.767 560.983 725.133 562.95 727.1C564.883 729.033 567.233 730 570 730C572.767 730 575.133 729.033 577.1 727.1C579.033 725.133 580 722.767 580 720V550C580 547.233 579.033 544.883 577.1 542.95C575.133 540.983 572.767 540 570 540C567.233 540 564.883 540.983 562.95 542.95ZM537.1 522.95C535.133 520.983 532.767 520 530 520C527.233 520 524.883 520.983 522.95 522.95C520.983 524.883 520 527.233 520 530V710C520 748.333 528.9 776.117 546.7 793.35C563.9 811.117 591.667 820 630 820H890C892.767 820 895.133 819.033 897.1 817.1C899.033 815.133 900 812.767 900 810C900 807.233 899.033 804.883 897.1 802.95C895.133 800.983 892.767 800 890 800H630C598.333 800 575.283 793.067 560.85 779.2C546.95 764.733 540 741.667 540 710V530C540 527.233 539.033 524.883 537.1 522.95ZM162.95 777.1C164.883 779.033 167.233 780 170 780H350C362.2 780 373.867 782.35 385 787.05C395.767 791.617 405.317 798.067 413.65 806.4C421.95 814.667 428.383 824.183 432.95 834.95C437.65 846.117 440 857.8 440 870C440 882.2 437.65 893.867 432.95 905C428.383 915.767 421.95 925.317 413.65 933.65C405.317 941.95 395.767 948.383 385 952.95C373.867 957.65 362.2 960 350 960H50C47.2333 960 44.8833 960.983 42.95 962.95C40.9833 964.883 40 967.233 40 970C40 972.767 40.9833 975.133 42.95 977.1C44.8833 979.033 47.2333 980 50 980H350C364.933 980 379.2 977.117 392.8 971.35C396.433 969.817 399.967 968.1 403.4 966.2C412.3 961.267 420.433 955.133 427.8 947.8C437.933 937.633 445.783 925.967 451.35 912.8C457.117 899.2 460 884.933 460 870C460 855.067 457.133 840.783 451.4 827.15H451.35C445.783 813.983 437.917 802.35 427.75 792.25H427.8C417.633 782.083 405.967 774.217 392.8 768.65C379.2 762.883 364.933 760 350 760H170C167.233 760 164.883 760.983 162.95 762.95C160.983 764.883 160 767.233 160 770C160 772.767 160.983 775.133 162.95 777.1ZM122.95 737.1C124.883 739.033 127.233 740 130 740H350C367.633 740 384.5 743.4 400.6 750.2C416.133 756.767 429.917 766.067 441.95 778.1C453.917 790.067 463.2 803.833 469.8 819.4C476.6 835.5 480 852.367 480 870C480 887.633 476.6 904.5 469.8 920.6C463.2 936.133 453.917 949.917 441.95 961.95C440.483 963.417 439 964.833 437.5 966.2C426.533 976.133 414.233 984 400.6 989.8C384.5 996.6 367.633 1000 350 1000H10C7.23333 1000 4.88333 1000.98 2.95 1002.95C0.983333 1004.88 0 1007.23 0 1010C0 1012.77 0.983333 1015.13 2.95 1017.1C4.88333 1019.03 7.23333 1020 10 1020H350C370.367 1020 389.833 1016.07 408.4 1008.2C426.333 1000.6 442.217 989.9 456.05 976.1H456.1V976.05C459.267 972.883 462.267 969.6 465.1 966.2C474.633 954.8 482.333 942.2 488.2 928.4C496.067 909.833 500 890.367 500 870C500 849.633 496.067 830.167 488.2 811.6C480.6 793.633 469.9 777.75 456.1 763.95C442.233 750.083 426.333 739.367 408.4 731.8C389.833 723.933 370.367 720 350 720H130C127.233 720 124.883 720.983 122.95 722.95C120.983 724.883 120 727.233 120 730C120 732.767 120.983 735.133 122.95 737.1ZM142.95 622.95C144.883 620.983 147.233 620 150 620H469.95C472.717 620 475.083 619.033 477.05 617.1C478.983 615.133 479.95 612.767 479.95 610C479.95 607.233 478.983 604.883 477.05 602.95C475.083 600.983 472.717 600 469.95 600H150C141.7 600 134.633 602.933 128.8 608.8C122.933 614.633 120 621.7 120 630V690C120 692.767 120.983 695.133 122.95 697.1C124.883 699.033 127.233 700 130 700C132.767 700 135.133 699.033 137.1 697.1C139.033 695.133 140 692.767 140 690V630C140 627.233 140.983 624.883 142.95 622.95ZM122.9 577.1C124.833 579.033 127.183 580 129.95 580H449.95C452.717 580 455.083 579.033 457.05 577.1C458.983 575.133 459.95 572.767 459.95 570C459.95 567.233 458.983 564.883 457.05 562.95C455.083 560.983 452.717 560 449.95 560H129.95C127.183 560 124.833 560.983 122.9 562.95C120.933 564.883 119.95 567.233 119.95 570C119.95 572.767 120.933 575.133 122.9 577.1ZM89.95 560C87.1833 560 84.8333 560.983 82.9 562.95C80.9333 564.917 79.95 567.267 79.95 570L80 730C80 732.767 80.9833 735.133 82.95 737.1C84.9167 739.033 87.2833 740 90.05 740C92.7833 740 95.1333 739.017 97.1 737.05C99.0333 735.083 100 732.733 100 730L99.95 570C99.95 567.233 98.9667 564.883 97 562.95C95.0333 560.983 92.6833 560 89.95 560ZM49.95 580C47.1833 580 44.8333 580.983 42.9 582.95C40.9333 584.917 39.95 587.267 39.95 590L40 745C40 754.633 43.4 762.883 50.2 769.75H50.25V769.8C57.05 776.6 65.3 780 75 780H130C132.767 780 135.133 779.033 137.1 777.1C139.033 775.133 140 772.767 140 770C140 767.233 139.033 764.883 137.1 762.95C135.133 760.983 132.767 760 130 760H75C70.8333 760 67.3 758.55 64.4 755.65C61.4667 752.683 60 749.133 60 745L59.95 590C59.95 587.233 58.9667 584.883 57 582.95C55.0333 580.983 52.6833 580 49.95 580ZM39.95 520C28.9167 520 19.5 523.917 11.7 531.75C3.9 539.517 0 548.933 0 560V780C0 791 3.9 800.417 11.7 808.25L11.75 808.3C19.5167 816.1 28.9333 820 40 820H330C338.267 820 345.333 822.933 351.2 828.8C357.067 834.667 360 841.733 360 850C360 858.267 357.067 865.333 351.2 871.2C345.333 877.067 338.267 880 330 880H250C247.233 880 244.883 880.983 242.95 882.95C240.983 884.883 240 887.233 240 890C240 892.767 240.983 895.133 242.95 897.1C244.883 899.033 247.233 900 250 900H330C343.8 900 355.567 895.117 365.3 885.35L365.35 885.3C375.117 875.567 380 863.8 380 850C380 836.2 375.117 824.417 365.35 814.65C355.583 804.883 343.8 800 330 800H40C34.4667 800 29.7667 798.05 25.9 794.15C21.9667 790.217 20 785.5 20 780V560C20 554.467 21.95 549.767 25.85 545.9C29.75 541.967 34.45 540 39.95 540H490C492.767 540 495.133 539.033 497.1 537.1C499.033 535.133 500 532.767 500 530C500 527.233 499.033 524.883 497.1 522.95C495.133 520.983 492.767 520 490 520H39.95ZM217.5 329.55H217.55C227.383 323.183 238.183 320 249.95 320C261.75 320 272.583 323.183 282.45 329.55C292.05 335.717 299.317 343.95 304.25 354.25C305.45 356.75 307.35 358.467 309.95 359.4C312.517 360.3 315.05 360.15 317.55 358.95C320.05 357.75 321.767 355.867 322.7 353.3C323.6 350.7 323.467 348.15 322.3 345.65C315.733 331.95 306.05 320.983 293.25 312.75H293.3C280.133 304.25 265.683 300 249.95 300C234.25 300 219.833 304.25 206.7 312.75C193.9 320.983 184.233 331.95 177.7 345.65C176.5 348.15 176.367 350.7 177.3 353.3C178.2 355.867 179.9 357.75 182.4 358.95C184.9 360.15 187.45 360.3 190.05 359.4C192.617 358.467 194.517 356.75 195.75 354.25C200.65 343.95 207.9 335.717 217.5 329.55ZM50 375C47.2333 375 44.8833 375.983 42.95 377.95C40.9833 379.883 40 382.233 40 385C40 389.167 40.3 393.217 40.9 397.15C43.2667 412.683 50.3 426.317 62 438.05C76.6333 452.683 94.3 460 115 460C135.7 460 153.383 452.683 168.05 438.05C179.717 426.317 186.733 412.683 189.1 397.15C189.7 393.217 190 389.167 190 385C190 382.233 189.033 379.883 187.1 377.95C185.133 375.983 182.767 375 180 375C177.233 375 174.883 375.983 172.95 377.95C170.983 379.883 170 382.233 170 385C170 389.233 169.583 393.283 168.75 397.15C166.583 407.217 161.633 416.133 153.9 423.9C143.133 434.633 130.167 440 115 440C99.8333 440 86.8833 434.633 76.15 423.9C68.3833 416.133 63.4167 407.217 61.25 397.15C60.4167 393.283 60 389.233 60 385C60 382.233 59.0333 379.883 57.1 377.95C55.1333 375.983 52.7667 375 50 375ZM89.95 260C87.1833 260 84.8333 260.983 82.9 262.95C80.9333 264.883 79.95 267.233 79.95 270L80 349.95C80 352.717 80.9833 355.083 82.95 357.05C84.8833 358.983 87.2333 359.95 90 359.95C92.7667 359.95 95.1333 358.983 97.1 357.05C99.0333 355.083 100 352.717 100 349.95L99.95 270C99.95 267.233 98.9833 264.883 97.05 262.95C95.0833 260.983 92.7167 260 89.95 260ZM50 20C47.2333 20 44.8833 20.9833 42.95 22.95C40.9833 24.8833 40 27.2333 40 30V340C40 342.767 40.9833 345.133 42.95 347.1C44.8833 349.033 47.2333 350 50 350C52.7667 350 55.1333 349.033 57.1 347.1C59.0333 345.133 60 342.767 60 340V30C60 27.2333 59.0333 24.8833 57.1 22.95C55.1333 20.9833 52.7667 20 50 20ZM90 60C87.2333 60 84.8833 60.9833 82.95 62.95C80.9833 64.8833 80 67.2333 80 70V220C80 222.767 80.9833 225.133 82.95 227.1C84.8833 229.033 87.2333 230 90 230C92.7667 230 95.1333 229.033 97.1 227.1C99.0333 225.133 100 222.767 100 220V70C100 67.2333 99.0333 64.8833 97.1 62.95C95.1333 60.9833 92.7667 60 90 60ZM130 0C127.233 0 124.883 0.983333 122.95 2.95C120.983 4.88333 120 7.23333 120 10V290C120 292.767 120.983 295.133 122.95 297.1C124.883 299.033 127.233 300 130 300C132.767 300 135.133 299.033 137.1 297.1C139.033 295.133 140 292.767 140 290V10C140 7.23333 139.033 4.88333 137.1 2.95C135.133 0.983333 132.767 0 130 0ZM617.1 332.95C615.133 330.983 612.767 330 610 330C607.233 330 604.883 330.983 602.95 332.95C600.983 334.883 600 337.233 600 340V470C600 472.767 600.983 475.133 602.95 477.1C604.883 479.033 607.233 480 610 480C612.767 480 615.133 479.033 617.1 477.1C619.033 475.133 620 472.767 620 470V340C620 337.233 619.033 334.883 617.1 332.95ZM577.1 252.95C575.133 250.983 572.767 250 570 250C567.233 250 564.883 250.983 562.95 252.95C560.983 254.883 560 257.233 560 260V430C560 432.767 560.983 435.133 562.95 437.1C564.883 439.033 567.233 440 570 440C572.767 440 575.133 439.033 577.1 437.1C579.033 435.133 580 432.767 580 430V260C580 257.233 579.033 254.883 577.1 252.95ZM330 384.95C330 382.183 329.033 379.833 327.1 377.9C325.133 375.933 322.767 374.95 320 374.95C317.233 374.95 314.883 375.933 312.95 377.9C310.983 379.833 310 382.183 310 384.95C310 389.15 310.3 393.217 310.9 397.15C313.267 412.683 320.3 426.283 332 437.95V438C346.6 452.633 364.267 459.95 385 459.95C405.7 459.95 423.367 452.617 438 437.95V438C449.667 426.3 456.683 412.683 459.05 397.15C459.65 393.217 459.95 389.15 459.95 384.95C459.95 382.183 458.983 379.833 457.05 377.9C455.083 375.933 452.717 374.95 449.95 374.95C447.183 374.95 444.833 375.933 442.9 377.9C440.933 379.833 439.95 382.183 439.95 384.95C439.95 389.183 439.533 393.25 438.7 397.15C436.533 407.183 431.583 416.083 423.85 423.85C413.117 434.583 400.167 439.95 385 439.95C369.8 439.95 356.85 434.583 346.15 423.85H346.1C338.367 416.117 333.417 407.217 331.25 397.15C330.417 393.25 330 389.183 330 384.95ZM334.9 295.15H334.85C323.783 284.083 311.067 275.517 296.7 269.45C281.867 263.15 266.3 260 250 260C233.7 260 218.117 263.15 203.25 269.45C188.883 275.517 176.183 284.083 165.15 295.15C154.083 306.183 145.517 318.883 139.45 333.25C133.15 348.117 130 363.7 130 380V384.95C130 389.117 128.55 392.667 125.65 395.6C125.05 396.167 124.433 396.683 123.8 397.15C121.267 399.05 118.333 400 115 400C111.667 400 108.733 399.05 106.2 397.15C105.567 396.683 104.967 396.167 104.4 395.6C101.467 392.667 100 389.117 100 384.95C100 382.183 99.0333 379.833 97.1 377.9C95.1333 375.933 92.7667 374.95 90 374.95C87.2333 374.95 84.8833 375.933 82.95 377.9C80.9833 379.833 80 382.183 80 384.95C80 389.317 80.7 393.383 82.1 397.15C83.7667 401.783 86.4667 405.967 90.2 409.7L90.25 409.75C97.05 416.583 105.3 420 115 420C124.667 420 132.933 416.583 139.8 409.75C143.533 405.983 146.25 401.783 147.95 397.15C149.317 393.383 150 389.317 150 384.95V380C150 366.433 152.617 353.45 157.85 341.05C162.917 329.083 170.067 318.5 179.3 309.3C188.5 300.067 199.083 292.917 211.05 287.85C223.45 282.617 236.433 280 250 280C263.567 280 276.533 282.617 288.9 287.85C300.867 292.917 311.483 300.067 320.75 309.3C329.95 318.5 337.083 329.083 342.15 341.05C347.383 353.45 350 366.433 350 380V384.95C350 389.317 350.7 393.383 352.1 397.15C353.767 401.783 356.467 405.967 360.2 409.7L360.25 409.75C367.05 416.583 375.3 420 385 420C394.667 420 402.933 416.583 409.8 409.75C413.533 405.983 416.25 401.783 417.95 397.15C419.317 393.383 420 389.317 420 384.95C420 382.183 419.033 379.833 417.1 377.9C415.133 375.933 412.767 374.95 410 374.95C407.233 374.95 404.883 375.933 402.95 377.9C400.983 379.833 400 382.183 400 384.95C400 389.117 398.55 392.667 395.65 395.6C395.05 396.167 394.433 396.683 393.8 397.15C391.267 399.05 388.333 400 385 400C381.667 400 378.733 399.05 376.2 397.15C375.567 396.683 374.967 396.167 374.4 395.6C371.467 392.667 370 389.117 370 384.95V380C370 363.7 366.85 348.117 360.55 333.25C354.483 318.883 345.933 306.183 334.9 295.15ZM417.05 262.95C415.083 260.983 412.717 260 409.95 260C407.183 260 404.833 260.983 402.9 262.95C400.933 264.883 399.95 267.233 399.95 270L400 349.95C400 352.717 400.983 355.083 402.95 357.05C404.883 358.983 407.233 359.95 410 359.95C412.767 359.95 415.133 358.983 417.1 357.05C419.033 355.083 420 352.717 420 349.95L419.95 270C419.95 267.233 418.983 264.883 417.05 262.95ZM377.1 2.95C375.133 0.983333 372.767 0 370 0C367.233 0 364.883 0.983333 362.95 2.95C360.983 4.88333 360 7.23333 360 10V290C360 292.767 360.983 295.133 362.95 297.1C364.883 299.033 367.233 300 370 300C372.767 300 375.133 299.033 377.1 297.1C379.033 295.133 380 292.767 380 290V10C380 7.23333 379.033 4.88333 377.1 2.95ZM417.1 62.95C415.133 60.9833 412.767 60 410 60C407.233 60 404.883 60.9833 402.95 62.95C400.983 64.8833 400 67.2333 400 70V220C400 222.767 400.983 225.133 402.95 227.1C404.883 229.033 407.233 230 410 230C412.767 230 415.133 229.033 417.1 227.1C419.033 225.133 420 222.767 420 220V70C420 67.2333 419.033 64.8833 417.1 62.95ZM457.1 22.95C455.133 20.9833 452.767 20 450 20C447.233 20 444.883 20.9833 442.95 22.95C440.983 24.8833 440 27.2333 440 30V340C440 342.767 440.983 345.133 442.95 347.1C444.883 349.033 447.233 350 450 350C452.767 350 455.133 349.033 457.1 347.1C459.033 345.133 460 342.767 460 340V30C460 27.2333 459.033 24.8833 457.1 22.95ZM497.1 2.95C495.133 0.983333 492.767 0 490 0C487.233 0 484.883 0.983333 482.95 2.95C480.983 4.88333 480 7.23333 480 10V385C480 389.1 479.75 393.15 479.25 397.15C478.183 405.683 475.95 413.95 472.55 421.95C467.717 433.317 460.933 443.4 452.2 452.2C443.4 460.933 433.317 467.717 421.95 472.55C410.183 477.517 397.867 480 385 480C372.133 480 359.817 477.517 348.05 472.55C336.683 467.717 326.6 460.933 317.8 452.2H317.85C309.05 443.4 302.267 433.333 297.5 422L297.45 421.95C294.05 413.95 291.817 405.683 290.75 397.15C290.25 393.15 290 389.1 290 385V380C290 368.933 286.1 359.517 278.3 351.75L278.25 351.7C270.417 343.9 261 340 250 340C238.933 340 229.517 343.9 221.75 351.7C221.75 351.733 221.733 351.75 221.7 351.75C213.9 359.517 210 368.933 210 380V384.95C210 389.083 209.75 393.15 209.25 397.15C208.15 405.683 205.917 413.95 202.55 421.95C197.717 433.317 190.933 443.4 182.2 452.2C173.4 460.933 163.317 467.717 151.95 472.55C140.183 477.517 127.867 480 115 480C102.133 480 89.8167 477.517 78.05 472.55C66.6833 467.717 56.6 460.933 47.8 452.2H47.85C39.05 443.4 32.2667 433.333 27.5 422V421.95C24.1 413.95 21.8667 405.683 20.8 397.15C20.2667 393.15 20 389.083 20 384.95C20 384.083 19.9167 383.267 19.75 382.5C19.9167 381.7 20 380.867 20 380V10C20 7.23333 19.0333 4.88333 17.1 2.95C15.1333 0.983333 12.7667 0 10 0C7.23333 0 4.88333 0.983333 2.95 2.95C0.983333 4.88333 0 7.23333 0 10V380C0 380.867 0.1 381.7 0.3 382.5C0.1 383.267 0 384.083 0 384.95C0 389.05 0.216667 393.117 0.65 397.15C1.81667 408.383 4.61667 419.25 9.05 429.75C14.85 443.517 23.0667 455.717 33.7 466.35C44.3 476.917 56.4833 485.117 70.25 490.95C84.4833 496.983 99.4 500 115 500C130.6 500 145.517 496.983 159.75 490.95C173.517 485.117 185.7 476.917 196.3 466.35H196.35V466.3C206.917 455.7 215.117 443.517 220.95 429.75H221C225.4 419.25 228.2 408.383 229.4 397.15C229.8 393.117 230 389.05 230 384.95V380C230 374.467 231.95 369.767 235.85 365.9L235.9 365.85C239.767 361.95 244.467 360 250 360C255.5 360 260.217 361.967 264.15 365.9C268.05 369.767 270 374.467 270 380V385C270 389.1 270.217 393.15 270.65 397.15C271.817 408.383 274.617 419.25 279.05 429.75C284.85 443.517 293.067 455.717 303.7 466.35C314.3 476.917 326.483 485.117 340.25 490.95C354.483 496.983 369.4 500 385 500C400.6 500 415.517 496.983 429.75 490.95C443.517 485.117 455.7 476.917 466.3 466.35H466.35V466.3C476.917 455.7 485.117 443.517 490.95 429.75C495.383 419.25 498.2 408.383 499.4 397.15C499.8 393.15 500 389.1 500 385V10C500 7.23333 499.033 4.88333 497.1 2.95ZM577.1 52.95C575.133 50.9833 572.767 50 570 50C567.233 50 564.883 50.9833 562.95 52.95C560.983 54.8833 560 57.2333 560 60V200C560 202.767 560.983 205.133 562.95 207.1C564.883 209.033 567.233 210 570 210C572.767 210 575.133 209.033 577.1 207.1C579.033 205.133 580 202.767 580 200V60C580 57.2333 579.033 54.8833 577.1 52.95ZM980 770C980 767.233 979.033 764.883 977.1 762.95C975.133 760.983 972.767 760 970 760H610C607.233 760 604.883 760.983 602.95 762.95C600.983 764.883 600 767.233 600 770C600 772.767 600.983 775.133 602.95 777.1C604.883 779.033 607.233 780 610 780H970C972.767 780 975.133 779.033 977.1 777.1C979.033 775.133 980 772.767 980 770ZM1020 530C1020 527.233 1019.03 524.883 1017.1 522.95C1015.13 520.983 1012.77 520 1010 520C1007.23 520 1004.88 520.983 1002.95 522.95C1000.98 524.883 1000 527.233 1000 530V1010C1000 1012.77 1000.98 1015.13 1002.95 1017.1C1004.88 1019.03 1007.23 1020 1010 1020C1012.77 1020 1015.13 1019.03 1017.1 1017.1C1019.03 1015.13 1020 1012.77 1020 1010V530ZM657.1 522.95C655.133 520.983 652.767 520 650 520C647.233 520 644.883 520.983 642.95 522.95C640.983 524.883 640 527.233 640 530V690C640 692.767 640.983 695.133 642.95 697.1C644.883 699.033 647.233 700 650 700C652.767 700 655.133 699.033 657.1 697.1C659.033 695.133 660 692.767 660 690V530C660 527.233 659.033 524.883 657.1 522.95ZM922.95 562.95C920.983 564.883 920 567.233 920 570V700C920 705.5 918.05 710.217 914.15 714.15C910.217 718.05 905.5 720 900 720H630C627.233 720 624.883 719.033 622.95 717.1C620.983 715.1 620 712.733 620 710V570C620 567.233 619.033 564.883 617.1 562.95C615.133 560.983 612.767 560 610 560C607.233 560 604.883 560.983 602.95 562.95C600.983 564.883 600 567.233 600 570V710C600 718.233 602.917 725.3 608.75 731.2H608.8V731.25C614.633 737.083 621.7 740 630 740H900C911.033 740 920.467 736.1 928.3 728.3C936.1 720.467 940 711.033 940 700V570C940 567.233 939.033 564.883 937.1 562.95C935.133 560.983 932.767 560 930 560C927.233 560 924.883 560.983 922.95 562.95ZM970 540C967.233 540 964.883 540.983 962.95 542.95C960.983 544.883 960 547.233 960 550V730C960 732.767 960.983 735.133 962.95 737.1C964.883 739.033 967.233 740 970 740C972.767 740 975.133 739.033 977.1 737.1C979.033 735.133 980 732.767 980 730V550C980 547.233 979.033 544.883 977.1 542.95C975.133 540.983 972.767 540 970 540ZM882.95 522.95C880.983 524.883 880 527.233 880 530V690C880 692.767 880.983 695.133 882.95 697.1C884.883 699.033 887.233 700 890 700C892.767 700 895.133 699.033 897.1 697.1C899.033 695.133 900 692.767 900 690V530C900 527.233 899.033 524.883 897.1 522.95C895.133 520.983 892.767 520 890 520C887.233 520 884.883 520.983 882.95 522.95ZM879.5 140.5C875.033 136.033 870.283 132.317 865.25 129.35C854.85 123.15 843.183 120.033 830.25 120H710C707.233 120 704.883 120.983 702.95 122.95C700.983 124.883 700 127.233 700 130C700 132.767 700.983 135.133 702.95 137.1C704.883 139.033 707.233 140 710 140H830.25C843.917 140.067 855.583 144.917 865.25 154.55C865.283 154.583 865.317 154.617 865.35 154.65C875.117 164.417 880 176.2 880 190C880 203.8 875.117 215.583 865.35 225.35C865.317 225.383 865.283 225.417 865.25 225.45C855.583 235.083 843.917 239.933 830.25 240H730C727.233 240 724.883 240.983 722.95 242.95C720.983 244.883 720 247.233 720 250C720 252.767 720.983 255.133 722.95 257.1C724.883 259.033 727.233 260 730 260H830.25C843.183 259.967 854.85 256.85 865.25 250.65C870.283 247.65 875.017 243.933 879.45 239.5L879.5 239.45C893.167 225.817 900 209.333 900 190C900 170.667 893.167 154.167 879.5 140.5ZM872.8 88.6C870.3 87.5333 867.783 86.5833 865.25 85.75C853.95 81.8833 842.2 79.95 830 79.95L680 80C668.933 80 659.517 83.9 651.75 91.7C651.75 91.7333 651.733 91.75 651.7 91.75C644 99.45 640.1 108.75 640 119.65V490C640 492.767 640.983 495.133 642.95 497.1C644.883 499.033 647.233 500 650 500C652.767 500 655.133 499.033 657.1 497.1C659.033 495.133 660 492.767 660 490V119.75C660.067 114.35 662.017 109.733 665.85 105.9L665.9 105.85C669.767 101.95 674.467 100 680 100L830 99.95C842.2 99.95 853.867 102.3 865 107C865.1 107.033 865.183 107.067 865.25 107.1C875.917 111.667 885.383 118.083 893.65 126.35C901.95 134.65 908.383 144.183 912.95 154.95C917.65 166.083 920 177.75 920 189.95C920 202.15 917.65 213.833 912.95 225C908.383 235.767 901.95 245.3 893.65 253.6C885.383 261.833 875.917 268.233 865.25 272.8C865.183 272.833 865.1 272.867 865 272.9C853.967 277.567 842.383 279.917 830.25 279.95L690 280C687.233 280 684.883 280.983 682.95 282.95C680.983 284.883 680 287.233 680 290C680 292.767 680.983 295.133 682.95 297.1C684.883 299.033 687.233 300 690 300L830.25 299.95C842.35 299.917 854.017 298 865.25 294.2C867.783 293.333 870.3 292.367 872.8 291.3C885.967 285.733 897.633 277.883 907.8 267.75H907.75C917.917 257.617 925.783 245.967 931.35 232.8H931.4C937.133 219.167 940 204.883 940 189.95C940 175.017 937.117 160.75 931.35 147.15C925.783 133.983 917.933 122.333 907.8 112.2C897.633 102.033 885.967 94.1667 872.8 88.6ZM865.25 64.8C870.45 66.2667 875.567 68.0667 880.6 70.2C896.133 76.7667 909.917 86.0667 921.95 98.1C933.917 110.067 943.2 123.817 949.8 139.35C956.6 155.45 960 172.317 960 189.95C960 207.583 956.6 224.45 949.8 240.55C943.2 256.117 933.917 269.917 921.95 281.95C909.917 293.917 896.133 303.2 880.6 309.8C875.567 311.933 870.45 313.733 865.25 315.2C853.95 318.367 842.283 319.967 830.25 320H710C707.233 320 704.883 320.983 702.95 322.95C700.983 324.883 700 327.233 700 330C700 332.767 700.983 335.133 702.95 337.1C704.883 339.033 707.233 340 710 340H830.25C842.217 339.967 853.883 338.583 865.25 335.85C873.117 333.95 880.833 331.4 888.4 328.2C906.333 320.6 922.217 309.9 936.05 296.1H936.1V296.05C949.9 282.217 960.6 266.317 968.2 248.35C976.067 229.783 980 210.317 980 189.95C980 169.583 976.067 150.117 968.2 131.55C960.6 113.617 949.9 97.75 936.1 83.95C922.233 70.0833 906.333 59.3667 888.4 51.8C880.833 48.6 873.117 46.05 865.25 44.15C853.883 41.4167 842.217 40.0333 830.25 40H649.75C636.083 40.0667 624.383 44.95 614.65 54.65C604.95 64.3833 600.067 76.0833 600 89.75V280C600 282.767 600.983 285.133 602.95 287.1C604.883 289.033 607.233 290 610 290C612.767 290 615.133 289.033 617.1 287.1C619.033 285.133 620 282.767 620 280V89.75C620.067 81.5833 622.983 74.6 628.75 68.8L628.8 68.75C634.6 62.9833 641.583 60.0667 649.75 60H830.25C842.283 60.0333 853.95 61.6333 865.25 64.8ZM1020 190C1020 164.2 1015.02 139.533 1005.05 116C995.45 93.2667 981.9 73.15 964.4 55.65C946.833 38.1167 926.683 24.55 903.95 14.95C891.383 9.61667 878.483 5.71667 865.25 3.25C853.817 1.11667 842.15 0.0333333 830.25 0H579.75C563.25 0.0666667 549.2 5.93333 537.6 17.6C525.933 29.2 520.067 43.25 520 59.75V490C520 492.767 520.983 495.133 522.95 497.1C524.883 499.033 527.233 500 530 500C532.767 500 535.133 499.033 537.1 497.1C539.033 495.133 540 492.767 540 490V59.75C540.067 48.7833 543.967 39.45 551.7 31.75H551.75V31.7C559.45 23.9667 568.783 20.0667 579.75 20H830.25C842.183 20 853.85 21.2167 865.25 23.65C875.783 25.85 886.083 29.0833 896.15 33.35C916.483 41.95 934.517 54.1 950.25 69.8C965.917 85.4667 978.05 103.467 986.65 123.8C995.55 144.867 1000 166.933 1000 190C1000 213.033 995.55 235.083 986.65 256.15C978.05 276.483 965.917 294.517 950.25 310.25C934.517 325.917 916.483 338.05 896.15 346.65C886.083 350.917 875.783 354.167 865.25 356.4C853.85 358.8 842.2 360 830.3 360L770.05 359.95C767.283 359.95 764.917 360.933 762.95 362.9C760.983 364.833 760 367.183 760 369.95C760 372.683 760.983 375.033 762.95 377C764.883 378.967 767.233 379.95 770 379.95L830.25 380C842.15 379.967 853.817 378.883 865.25 376.75C878.483 374.283 891.383 370.383 903.95 365.05C926.683 355.45 946.833 341.9 964.4 324.4C981.9 306.833 995.45 286.683 1005.05 263.95C1015.02 240.417 1020 215.767 1020 190Z" fill="white"/>
</g>
<defs>
<clipPath id="clip0_20_314">
<rect width="1020" height="1020" fill="black"/>
</clipPath>
</defs>
</svg>
