<svg width="32" height="32" viewBox="0 0 32 32" fill="none" xmlns="http://www.w3.org/2000/svg">
<path d="M28.2353 26.6667C28.2353 26.58 28.2045 26.5057 28.1427 26.4439C28.082 26.3832 28.0082 26.3529 27.9216 26.3529C27.8349 26.3529 27.7606 26.3832 27.6988 26.4439C27.6381 26.5057 27.6078 26.58 27.6078 26.6667V31.6863C27.6078 31.773 27.6381 31.8467 27.6988 31.9075C27.7606 31.9692 27.8349 32 27.9216 32C28.0082 32 28.082 31.9692 28.1427 31.9075C28.2045 31.8467 28.2353 31.773 28.2353 31.6863V26.6667ZM29.4902 25.4118C29.4902 25.3251 29.4594 25.2508 29.3976 25.189C29.3369 25.1283 29.2631 25.098 29.1765 25.098C29.0898 25.098 29.0155 25.1283 28.9537 25.189C28.893 25.2508 28.8627 25.3251 28.8627 25.4118V30.4314C28.8627 30.518 28.893 30.5918 28.9537 30.6526C29.0155 30.7143 29.0898 30.7451 29.1765 30.7451C29.2631 30.7451 29.3369 30.7143 29.3976 30.6526C29.4594 30.5918 29.4902 30.518 29.4902 30.4314V25.4118ZM30.7451 25.4118C30.7451 25.3251 30.7143 25.2508 30.6526 25.189C30.5918 25.1283 30.518 25.098 30.4314 25.098C30.3447 25.098 30.2705 25.1283 30.2086 25.189C30.1479 25.2508 30.1176 25.3251 30.1176 25.4118V31.0588C30.1176 31.1455 30.1479 31.2192 30.2086 31.28C30.2705 31.3417 30.3447 31.3726 30.4314 31.3726C30.518 31.3726 30.5918 31.3417 30.6526 31.28C30.7143 31.2192 30.7451 31.1455 30.7451 31.0588V25.4118ZM10.7576 26.8878C10.8195 26.9496 10.8937 26.9804 10.9804 26.9804C11.0666 26.9808 11.1403 27.0116 11.2016 27.0729C11.2631 27.1344 11.294 27.2082 11.2941 27.2941C11.2942 27.3806 11.2638 27.4543 11.2031 27.5153H11.2016C11.1403 27.5768 11.0666 27.6076 10.9804 27.6078H7.84314C7.75646 27.6078 7.68221 27.6381 7.62039 27.6988C7.5597 27.7606 7.52937 27.8349 7.52941 27.9216C7.52937 28.0082 7.5597 28.082 7.62039 28.1427C7.68221 28.2045 7.75646 28.2353 7.84314 28.2353H10.9804C11.2389 28.2355 11.4606 28.144 11.6455 27.9608V27.9592C11.8295 27.7762 11.9215 27.5545 11.9216 27.2941C11.9217 27.035 11.8297 26.8133 11.6455 26.629C11.461 26.4446 11.2393 26.3526 10.9804 26.3529C10.8937 26.3529 10.8195 26.3832 10.7576 26.4439C10.697 26.5057 10.6666 26.58 10.6667 26.6667C10.6666 26.7533 10.697 26.8271 10.7576 26.8878ZM12.0878 26.1851H12.0894C12.3959 26.4914 12.5491 26.8611 12.549 27.2941C12.5489 27.7272 12.3952 28.0969 12.0878 28.4031C11.7826 28.7095 11.4134 28.8627 10.9804 28.8627H0.941177C0.854502 28.8627 0.780253 28.893 0.718432 28.9537C0.657737 29.0155 0.62741 29.0898 0.627451 29.1765C0.62741 29.2631 0.657737 29.3369 0.718432 29.3976C0.780253 29.4594 0.854502 29.4902 0.941177 29.4902H10.9804C11.5868 29.4902 12.104 29.2758 12.5318 28.8471C12.9617 28.4181 13.1766 27.9005 13.1765 27.2941C13.1764 26.688 12.9615 26.1709 12.5318 25.7427V25.7412C12.1036 25.3125 11.5865 25.0982 10.9804 25.098H10.3529C10.2663 25.098 10.192 25.1283 10.1302 25.189C10.0695 25.2508 10.0392 25.3251 10.0392 25.4118C10.0392 25.4984 10.0695 25.5722 10.1302 25.6329C10.192 25.6947 10.2663 25.7255 10.3529 25.7255H10.9804C11.4134 25.7254 11.7825 25.8786 12.0878 26.1851ZM17.6596 17.0322C17.5989 17.094 17.5686 17.1682 17.5686 17.2549V22.5882C17.5686 22.6749 17.5989 22.7486 17.6596 22.8094C17.7214 22.8712 17.7957 22.902 17.8824 22.902C17.969 22.902 18.0428 22.8712 18.1035 22.8094C18.1653 22.7486 18.1961 22.6749 18.1961 22.5882V17.2549C18.1961 17.1682 18.1653 17.094 18.1035 17.0322C18.0428 16.9715 17.969 16.9411 17.8824 16.9412C17.7957 16.9411 17.7214 16.9715 17.6596 17.0322ZM16.8486 16.4047C16.7879 16.344 16.7141 16.3137 16.6275 16.3137C16.5408 16.3137 16.4665 16.344 16.4047 16.4047C16.344 16.4665 16.3137 16.5408 16.3137 16.6275V22.2745C16.3137 23.4775 16.5924 24.3486 17.1498 24.8878C17.6901 25.4463 18.5618 25.7255 19.7647 25.7255H27.9216C28.0082 25.7255 28.082 25.6947 28.1427 25.6329C28.2045 25.5722 28.2353 25.4984 28.2353 25.4118C28.2353 25.3251 28.2045 25.2508 28.1427 25.189C28.082 25.1283 28.0082 25.098 27.9216 25.098H19.7647C18.7714 25.098 18.0478 24.88 17.5937 24.4439C17.1587 23.9909 16.9412 23.2678 16.9412 22.2745V16.6275C16.9412 16.5408 16.9104 16.4665 16.8486 16.4047ZM3.85569 23.1231C3.91751 23.1849 3.99176 23.2157 4.07843 23.2157H10.9804C11.5329 23.2155 12.062 23.3222 12.5678 23.5357C13.0553 23.7425 13.4872 24.0337 13.8635 24.4094H13.8651C14.2408 24.7868 14.532 25.2192 14.7388 25.7067C14.9523 26.2115 15.059 26.7407 15.0588 27.2941C15.059 27.8476 14.9523 28.3767 14.7388 28.8816C14.5318 29.3701 14.2401 29.802 13.8635 30.1773C13.4873 30.5548 13.0554 30.8465 12.5678 31.0526C12.063 31.2661 11.5338 31.3727 10.9804 31.3726H0.313726C0.227051 31.3725 0.152802 31.4028 0.0909805 31.4635C0.0302861 31.5254 -4.07098e-05 31.5996 1.39859e-07 31.6863C-4.07098e-05 31.773 0.0302861 31.8467 0.0909805 31.9075C0.152802 31.9692 0.227051 32 0.313726 32H10.9804C11.6191 31.9998 12.2298 31.8764 12.8125 31.6298C13.375 31.3924 13.8733 31.0562 14.3075 30.6212C14.7414 30.1881 15.0776 29.6898 15.3161 29.1263C15.5627 28.5436 15.6861 27.9329 15.6863 27.2941C15.6861 26.6554 15.5627 26.0447 15.3161 25.462C15.0775 24.8998 14.7413 24.4015 14.3075 23.9671V23.9655C13.873 23.5327 13.3747 23.197 12.8125 22.9584C12.2287 22.7118 11.618 22.5884 10.9804 22.5882H4.07843C3.99176 22.5882 3.91751 22.6185 3.85569 22.6792C3.79499 22.741 3.76467 22.8153 3.76471 22.902C3.76467 22.9886 3.79499 23.0624 3.85569 23.1231ZM4.48314 19.5435H4.48471C4.54567 19.482 4.6194 19.4511 4.70588 19.451H14.7451C14.8318 19.451 14.9055 19.4202 14.9663 19.3584C15.028 19.2977 15.0589 19.2239 15.0588 19.1373C15.0589 19.0506 15.028 18.9763 14.9663 18.9145C14.9055 18.8538 14.8318 18.8235 14.7451 18.8235H4.70588C4.44555 18.8234 4.22333 18.9154 4.03922 19.0996V19.1012C3.85608 19.2848 3.76458 19.5059 3.76471 19.7647V21.6471C3.76467 21.7337 3.79499 21.8075 3.85569 21.8682C3.91751 21.93 3.99176 21.9608 4.07843 21.9608C4.16511 21.9608 4.23883 21.93 4.29961 21.8682C4.36135 21.8075 4.3922 21.7337 4.39216 21.6471V19.7647C4.39228 19.6787 4.42261 19.605 4.48314 19.5435ZM3.85569 18.1035C3.91751 18.1653 3.99176 18.1961 4.07843 18.1961H14.1176C14.2043 18.1961 14.278 18.1653 14.3388 18.1035C14.4006 18.0428 14.4314 17.969 14.4314 17.8824C14.4314 17.7957 14.4006 17.7214 14.3388 17.6596C14.278 17.5989 14.2043 17.5686 14.1176 17.5686H4.07843C3.99176 17.5686 3.91751 17.5989 3.85569 17.6596C3.79499 17.7214 3.76467 17.7957 3.76471 17.8824C3.76467 17.969 3.79499 18.0428 3.85569 18.1035ZM2.82353 17.5686C2.73685 17.5686 2.66261 17.5989 2.60078 17.6596C2.54009 17.7214 2.50976 17.7957 2.5098 17.8824V22.902C2.50976 22.9886 2.54009 23.0624 2.60078 23.1231C2.66261 23.1849 2.73685 23.2157 2.82353 23.2157C2.9102 23.2157 2.98393 23.1849 3.04471 23.1231C3.10645 23.0624 3.1373 22.9886 3.13726 22.902V17.8824C3.1373 17.7957 3.10645 17.7214 3.04471 17.6596C2.98393 17.5989 2.9102 17.5686 2.82353 17.5686ZM1.56863 18.1961C1.48195 18.196 1.4077 18.2264 1.34588 18.2871C1.28519 18.3489 1.25486 18.4231 1.2549 18.5098V23.3726C1.25509 23.677 1.36175 23.9358 1.5749 24.149C1.78918 24.3632 2.04853 24.4704 2.35294 24.4706H10.9804C11.3634 24.4704 11.7294 24.5441 12.0784 24.6918C12.4164 24.835 12.7155 25.0368 12.9757 25.2973C13.2372 25.5585 13.4395 25.8581 13.5827 26.1961C13.7304 26.5451 13.8041 26.9112 13.8039 27.2941C13.8039 27.6771 13.7296 28.0437 13.5812 28.3937H13.5827C13.4397 28.7316 13.2379 29.0302 12.9773 29.2894H12.9757C12.7155 29.5509 12.4164 29.7532 12.0784 29.8965C11.7294 30.0441 11.3634 30.1178 10.9804 30.1176H1.56863C1.48195 30.1176 1.4077 30.1479 1.34588 30.2086C1.28519 30.2705 1.25486 30.3447 1.2549 30.4314C1.25486 30.518 1.28519 30.5918 1.34588 30.6526C1.4077 30.7143 1.48195 30.7451 1.56863 30.7451H10.9804C11.4487 30.7449 11.8963 30.6545 12.3231 30.4737C12.736 30.2991 13.1015 30.0523 13.4196 29.7333C13.7383 29.4164 13.9851 29.0514 14.16 28.6384C14.341 28.2105 14.4314 27.7623 14.4314 27.2941C14.4312 26.8258 14.3407 26.3783 14.16 25.9514C13.9853 25.5385 13.7385 25.1725 13.4196 24.8533C13.1015 24.5355 12.736 24.2892 12.3231 24.1145C11.8963 23.9338 11.4487 23.8433 10.9804 23.8431H2.35294C2.22232 23.8433 2.11095 23.7973 2.01882 23.7051C1.92766 23.614 1.88217 23.5032 1.88235 23.3726V18.5098C1.88239 18.4231 1.85154 18.3489 1.7898 18.2871C1.72903 18.2264 1.6553 18.196 1.56863 18.1961ZM0.367059 16.6808V16.6824C0.122202 16.9277 -0.000151004 17.2231 1.39859e-07 17.5686V24.4706C-3.25399e-05 24.8177 0.12232 25.1136 0.367059 25.3584C0.6117 25.603 0.907647 25.7253 1.2549 25.7255H9.09804C9.18471 25.7255 9.25844 25.6947 9.31922 25.6329C9.38096 25.5722 9.41181 25.4984 9.41177 25.4118C9.41181 25.3251 9.38096 25.2508 9.31922 25.189C9.25844 25.1283 9.18471 25.098 9.09804 25.098H1.2549C1.08137 25.0982 0.933395 25.037 0.810981 24.9145C0.68866 24.7923 0.627484 24.6443 0.627451 24.4706V17.5686C0.627602 17.3958 0.688779 17.2479 0.810981 17.1247H0.812549C0.934228 17.0022 1.08168 16.9411 1.2549 16.9412H15.3725C15.4592 16.9412 15.5329 16.9104 15.5937 16.8486C15.6555 16.7879 15.6863 16.7141 15.6863 16.6275C15.6863 16.5408 15.6555 16.4665 15.5937 16.4047C15.5329 16.344 15.4592 16.3137 15.3725 16.3137H1.2549C0.907704 16.3138 0.611757 16.4362 0.367059 16.6808ZM7.20941 10.149C7.69927 9.97478 8.17875 9.99884 8.64784 10.2212H8.64941C8.84498 10.3132 9.0191 10.4361 9.17177 10.5898L9.17333 10.5914C9.32744 10.7445 9.45084 10.9192 9.54353 11.1153C9.58145 11.1933 9.64105 11.2466 9.72235 11.2753C9.80357 11.3049 9.88304 11.3007 9.96078 11.2627C10.0397 11.2259 10.0936 11.1668 10.1224 11.0855C10.1519 11.0042 10.1477 10.9242 10.1098 10.8455C9.98634 10.5842 9.82216 10.3516 9.61726 10.1475C9.61673 10.1469 9.61621 10.1464 9.61569 10.1459C9.41108 9.94059 9.17788 9.77641 8.91608 9.65333C8.29027 9.35699 7.65079 9.32509 6.99765 9.55765H6.99922C6.68964 9.66807 6.41356 9.83121 6.17098 10.0471C5.91882 10.2722 5.7196 10.5384 5.57333 10.8455C5.5365 10.9242 5.53232 11.0042 5.56078 11.0855C5.5906 11.1668 5.64446 11.2259 5.72235 11.2627C5.80114 11.3007 5.88114 11.3049 5.96235 11.2753C6.04365 11.2466 6.10273 11.1933 6.13961 11.1153C6.24955 10.8849 6.39909 10.6852 6.58824 10.5161C6.77023 10.3544 6.97729 10.2321 7.20941 10.149ZM1.56863 10.0392C1.48195 10.0392 1.4077 10.0695 1.34588 10.1302C1.28519 10.192 1.25486 10.2663 1.2549 10.3529V12.0784C1.25508 12.7285 1.48462 13.2828 1.94353 13.7412H1.9451C2.40351 14.2011 2.95776 14.4312 3.60784 14.4314C4.25708 14.4315 4.81133 14.2014 5.27059 13.7412C5.73081 13.2819 5.96087 12.7277 5.96078 12.0784C5.96083 11.9918 5.92998 11.9175 5.86824 11.8557C5.80746 11.795 5.73373 11.7647 5.64706 11.7647C5.56038 11.7647 5.48614 11.795 5.42431 11.8557C5.36362 11.9175 5.33329 11.9918 5.33333 12.0784C5.33324 12.5544 5.16436 12.9607 4.82667 13.2973C4.49011 13.6349 4.08383 13.8038 3.60784 13.8039C3.13097 13.8041 2.72417 13.6357 2.38745 13.2988V13.2973C2.05055 12.9616 1.88218 12.5553 1.88235 12.0784V10.3529C1.88239 10.2663 1.85154 10.192 1.7898 10.1302C1.72903 10.0695 1.6553 10.0392 1.56863 10.0392ZM2.82353 7.52941C2.73685 7.52937 2.66261 7.5597 2.60078 7.62039C2.54009 7.68221 2.50976 7.75646 2.5098 7.84314V10.9804C2.50976 11.0671 2.54009 11.1408 2.60078 11.2016C2.66261 11.2633 2.73685 11.2942 2.82353 11.2941C2.9102 11.2942 2.98393 11.2633 3.04471 11.2016C3.10645 11.1408 3.1373 11.0671 3.13726 10.9804V7.84314C3.1373 7.75646 3.10645 7.68221 3.04471 7.62039C2.98393 7.5597 2.9102 7.52937 2.82353 7.52941ZM1.56863 0.627451C1.48195 0.62741 1.4077 0.657737 1.34588 0.718431C1.28519 0.780253 1.25486 0.854502 1.2549 0.941177V9.09804C1.25486 9.18471 1.28519 9.25844 1.34588 9.31922C1.4077 9.38096 1.48195 9.41181 1.56863 9.41177C1.6553 9.41181 1.72903 9.38096 1.7898 9.31922C1.85154 9.25844 1.88239 9.18471 1.88235 9.09804V0.941177C1.88239 0.854502 1.85154 0.780253 1.7898 0.718431C1.72903 0.657737 1.6553 0.62741 1.56863 0.627451ZM2.82353 1.88235C2.73685 1.88231 2.66261 1.91264 2.60078 1.97333C2.54009 2.03516 2.50976 2.1094 2.5098 2.19608V6.58824C2.50976 6.67491 2.54009 6.74864 2.60078 6.80941C2.66261 6.87115 2.73685 6.902 2.82353 6.90196C2.9102 6.902 2.98393 6.87115 3.04471 6.80941C3.10645 6.74864 3.1373 6.67491 3.13726 6.58824V2.19608C3.1373 2.1094 3.10645 2.03516 3.04471 1.97333C2.98393 1.91264 2.9102 1.88231 2.82353 1.88235ZM4.07843 4.12123e-08C3.99176 -4.08085e-05 3.91751 0.030286 3.85569 0.0909804C3.79499 0.152802 3.76467 0.227051 3.76471 0.313726V9.09804C3.76467 9.18471 3.79499 9.25844 3.85569 9.31922C3.91751 9.38096 3.99176 9.41181 4.07843 9.41177C4.16511 9.41181 4.23883 9.38096 4.29961 9.31922C4.36135 9.25844 4.3922 9.18471 4.39216 9.09804V0.313726C4.3922 0.227051 4.36135 0.152802 4.29961 0.0909804C4.23883 0.030286 4.16511 -4.08085e-05 4.07843 4.12123e-08ZM19.3584 9.81647C19.2977 9.75578 19.2239 9.72545 19.1373 9.72549C19.0506 9.72545 18.9763 9.75578 18.9145 9.81647C18.8538 9.87829 18.8235 9.95254 18.8235 10.0392V14.7451C18.8235 14.8318 18.8538 14.9055 18.9145 14.9663C18.9763 15.028 19.0506 15.0589 19.1373 15.0588C19.2239 15.0589 19.2977 15.028 19.3584 14.9663C19.4202 14.9055 19.451 14.8318 19.451 14.7451V10.0392C19.451 9.95254 19.4202 9.87829 19.3584 9.81647ZM18.1035 7.30667C18.0428 7.24597 17.969 7.21565 17.8824 7.21569C17.7957 7.21565 17.7214 7.24597 17.6596 7.30667C17.5989 7.36849 17.5686 7.44274 17.5686 7.52941V13.4902C17.5686 13.5769 17.5989 13.6506 17.6596 13.7114C17.7214 13.7731 17.7957 13.804 17.8824 13.8039C17.969 13.804 18.0428 13.7731 18.1035 13.7114C18.1653 13.6506 18.1961 13.5769 18.1961 13.4902V7.52941C18.1961 7.44274 18.1653 7.36849 18.1035 7.30667ZM10.3529 12.0784C10.353 11.9918 10.3221 11.9175 10.2604 11.8557C10.1996 11.795 10.1259 11.7647 10.0392 11.7647C9.95254 11.7647 9.87829 11.795 9.81647 11.8557C9.75578 11.9175 9.72545 11.9918 9.72549 12.0784C9.72567 12.7285 9.95521 13.2828 10.4141 13.7412H10.4157C10.8741 14.2011 11.4283 14.4312 12.0784 14.4314C12.7277 14.4315 13.2819 14.2014 13.7412 13.7412C14.2014 13.2819 14.4315 12.7277 14.4314 12.0784V10.3529C14.4314 10.2663 14.4006 10.192 14.3388 10.1302C14.278 10.0695 14.2043 10.0392 14.1176 10.0392C14.031 10.0392 13.9567 10.0695 13.8949 10.1302C13.8342 10.192 13.8039 10.2663 13.8039 10.3529V12.0784C13.8038 12.5544 13.6349 12.9607 13.2973 13.2973C12.9607 13.6349 12.5544 13.8038 12.0784 13.8039C11.6016 13.8041 11.1948 13.6357 10.858 13.2988V13.2973C10.5211 12.9616 10.3528 12.5553 10.3529 12.0784ZM10.5051 9.25804C10.1574 8.91197 9.75849 8.64373 9.30824 8.45333C8.84268 8.25585 8.35431 8.15702 7.84314 8.15686C7.33201 8.15704 6.84312 8.25586 6.37647 8.45333C5.92731 8.64375 5.52888 8.91199 5.18118 9.25804H5.17961V9.25961C4.83353 9.60726 4.5653 10.0062 4.3749 10.4565C4.17741 10.922 4.07859 11.4104 4.07843 11.9216V12.0784C4.07862 12.2087 4.03313 12.3195 3.94196 12.411H3.94039C3.84857 12.5029 3.73773 12.5489 3.60784 12.549C3.47723 12.5492 3.36585 12.5032 3.27373 12.411C3.18256 12.3199 3.13707 12.209 3.13726 12.0784C3.1373 11.9918 3.10645 11.9175 3.04471 11.8557C2.98393 11.795 2.9102 11.7647 2.82353 11.7647C2.73685 11.7647 2.66261 11.795 2.60078 11.8557C2.54009 11.9175 2.50976 11.9918 2.5098 12.0784C2.50999 12.3828 2.61665 12.6417 2.8298 12.8549C3.04408 13.0691 3.30343 13.1763 3.60784 13.1765C3.91054 13.1765 4.16936 13.0699 4.38431 12.8565V12.8549C4.59851 12.6417 4.7057 12.3828 4.70588 12.0784V11.9216C4.70572 11.4958 4.78782 11.089 4.95216 10.7012C5.1109 10.3256 5.33469 9.99256 5.62353 9.70196C5.91407 9.4131 6.24662 9.18931 6.62118 9.03059C7.00996 8.86623 7.41728 8.78413 7.84314 8.78431C8.26894 8.78415 8.67574 8.86625 9.06353 9.03059C9.43908 9.18933 9.77163 9.41312 10.0612 9.70196H10.0627C10.3516 9.99256 10.5754 10.3256 10.7341 10.7012C10.8985 11.089 10.9806 11.4958 10.9804 11.9216V12.0784C10.9806 12.3828 11.0872 12.6417 11.3004 12.8549C11.5147 13.0691 11.774 13.1763 12.0784 13.1765C12.3811 13.1765 12.6399 13.0699 12.8549 12.8565V12.8549C13.0691 12.6417 13.1763 12.3828 13.1765 12.0784C13.1765 11.9918 13.1457 11.9175 13.0839 11.8557C13.0231 11.795 12.9494 11.7647 12.8627 11.7647C12.7761 11.7647 12.7018 11.795 12.64 11.8557C12.5793 11.9175 12.549 11.9918 12.549 12.0784C12.5492 12.2087 12.5037 12.3195 12.4125 12.411H12.411C12.3192 12.5029 12.2083 12.5489 12.0784 12.549C11.9478 12.5492 11.8364 12.5032 11.7443 12.411C11.6532 12.3199 11.6077 12.209 11.6078 12.0784V11.9216C11.6077 11.4104 11.5089 10.922 11.3114 10.4565C11.121 10.0062 10.8522 9.60726 10.5051 9.25961V9.25804ZM13.0839 7.62039C13.0231 7.5597 12.9494 7.52937 12.8627 7.52941C12.7761 7.52937 12.7018 7.5597 12.64 7.62039C12.5793 7.68221 12.549 7.75646 12.549 7.84314V10.9804C12.549 11.0671 12.5793 11.1408 12.64 11.2016C12.7018 11.2633 12.7761 11.2942 12.8627 11.2941C12.9494 11.2942 13.0231 11.2633 13.0839 11.2016C13.1457 11.1408 13.1765 11.0671 13.1765 10.9804V7.84314C13.1765 7.75646 13.1457 7.68221 13.0839 7.62039ZM11.829 0.0909804C11.7682 0.030286 11.6945 -4.08085e-05 11.6078 4.12123e-08C11.5212 -4.08085e-05 11.4469 0.030286 11.3851 0.0909804C11.3244 0.152802 11.2941 0.227051 11.2941 0.313726V9.09804C11.2941 9.18471 11.3244 9.25844 11.3851 9.31922C11.4469 9.38096 11.5212 9.41181 11.6078 9.41177C11.6945 9.41181 11.7682 9.38096 11.829 9.31922C11.8908 9.25844 11.9216 9.18471 11.9216 9.09804V0.313726C11.9216 0.227051 11.8908 0.152802 11.829 0.0909804ZM13.0839 1.97333C13.0231 1.91264 12.9494 1.88231 12.8627 1.88235C12.7761 1.88231 12.7018 1.91264 12.64 1.97333C12.5793 2.03516 12.549 2.1094 12.549 2.19608V6.58824C12.549 6.67491 12.5793 6.74864 12.64 6.80941C12.7018 6.87115 12.7761 6.902 12.8627 6.90196C12.9494 6.902 13.0231 6.87115 13.0839 6.80941C13.1457 6.74864 13.1765 6.67491 13.1765 6.58824V2.19608C13.1765 2.1094 13.1457 2.03516 13.0839 1.97333ZM14.3388 0.718431C14.278 0.657737 14.2043 0.62741 14.1176 0.627451C14.031 0.62741 13.9567 0.657737 13.8949 0.718431C13.8342 0.780253 13.8039 0.854502 13.8039 0.941177V9.09804C13.8039 9.18471 13.8342 9.25844 13.8949 9.31922C13.9567 9.38096 14.031 9.41181 14.1176 9.41177C14.2043 9.41181 14.278 9.38096 14.3388 9.31922C14.4006 9.25844 14.4314 9.18471 14.4314 9.09804V0.941177C14.4314 0.854502 14.4006 0.780253 14.3388 0.718431ZM15.5937 0.0909804C15.5329 0.030286 15.4592 -4.08085e-05 15.3725 4.12123e-08C15.2859 -4.08085e-05 15.2116 0.030286 15.1498 0.0909804C15.0891 0.152802 15.0588 0.227051 15.0588 0.313726V12.0784C15.0588 12.4824 14.9803 12.8693 14.8235 13.2392L14.8251 13.2376C14.6736 13.5945 14.4603 13.9109 14.1851 14.1867V14.1851C13.9105 14.4609 13.5947 14.6737 13.2376 14.8235V14.8251C12.8688 14.9811 12.4823 15.059 12.0784 15.0588C11.6745 15.059 11.2881 14.9811 10.9192 14.8251L10.9176 14.8235C10.5617 14.6737 10.2458 14.4609 9.9702 14.1851C9.69517 13.9103 9.48236 13.595 9.33177 13.2392C9.17602 12.8693 9.09811 12.4824 9.09804 12.0784V11.9216C9.09819 11.5757 8.97532 11.2797 8.72941 11.0337C8.48447 10.7889 8.18905 10.6665 7.84314 10.6667C7.49594 10.6668 7.19999 10.7891 6.95529 11.0337V11.0353C6.71044 11.2806 6.58808 11.576 6.58824 11.9216V12.0784C6.58816 12.4824 6.50973 12.8693 6.35294 13.2392L6.35451 13.2376C6.20303 13.5945 5.98969 13.9109 5.71451 14.1867V14.1851C5.43991 14.4609 5.12409 14.6737 4.76706 14.8235V14.8251C4.39816 14.9811 4.01176 15.059 3.60784 15.0588C3.20393 15.059 2.81753 14.9811 2.44863 14.8251L2.44706 14.8235C2.09107 14.6737 1.77526 14.4609 1.49961 14.1851C1.22458 13.9103 1.01177 13.595 0.861177 13.2392C0.705433 12.8693 0.627525 12.4824 0.627451 12.0784V0.313726C0.627492 0.227051 0.596642 0.152802 0.534902 0.0909804C0.474126 0.030286 0.4004 -4.08085e-05 0.313726 4.12123e-08C0.227051 -4.08085e-05 0.152802 0.030286 0.0909805 0.0909804C0.0302861 0.152802 -4.07098e-05 0.227051 1.39859e-07 0.313726V12.0784C-7.33896e-05 12.5675 0.0940443 13.036 0.282353 13.4839H0.283922C0.46587 13.9145 0.723125 14.2962 1.05569 14.629C1.38971 14.9629 1.77246 15.2207 2.20392 15.4024C2.65071 15.5915 3.11869 15.6861 3.60784 15.6863C4.097 15.6861 4.56498 15.5915 5.01177 15.4024H5.0102C5.4427 15.2207 5.82545 14.9629 6.15843 14.629C6.49083 14.2962 6.74861 13.9145 6.93177 13.4839C7.12112 13.036 7.21576 12.5675 7.21569 12.0784V11.9216C7.21584 11.7488 7.27701 11.6008 7.39922 11.4776H7.40078C7.52246 11.3552 7.66991 11.294 7.84314 11.2941C8.01592 11.2943 8.16337 11.3554 8.28549 11.4776C8.40874 11.6008 8.47044 11.7488 8.47059 11.9216V12.0784C8.47052 12.5675 8.56463 13.036 8.75294 13.4839H8.75451C8.93646 13.9145 9.19371 14.2962 9.52627 14.629C9.8603 14.9629 10.243 15.2207 10.6745 15.4024C11.1213 15.5915 11.5893 15.6861 12.0784 15.6863C12.5676 15.6861 13.0356 15.5915 13.4824 15.4024H13.4808C13.9133 15.2207 14.296 14.9629 14.629 14.629C14.9614 14.2962 15.2192 13.9145 15.4024 13.4839C15.5917 13.036 15.6863 12.5675 15.6863 12.0784V0.313726C15.6863 0.227051 15.6555 0.152802 15.5937 0.0909804ZM18.1035 1.34588C18.0428 1.28519 17.969 1.25486 17.8824 1.2549C17.7957 1.25486 17.7214 1.28519 17.6596 1.34588C17.5989 1.4077 17.5686 1.48195 17.5686 1.56863V6.27451C17.5686 6.36119 17.5989 6.43491 17.6596 6.49569C17.7214 6.55743 17.7957 6.58828 17.8824 6.58824C17.969 6.58828 18.0428 6.55743 18.1035 6.49569C18.1653 6.43491 18.1961 6.36119 18.1961 6.27451V1.56863C18.1961 1.48195 18.1653 1.4077 18.1035 1.34588ZM30.7451 24.1569C30.7451 24.0702 30.7143 23.9959 30.6526 23.9341C30.5918 23.8734 30.518 23.8431 30.4314 23.8431H19.1373C19.0506 23.8431 18.9763 23.8734 18.9145 23.9341C18.8538 23.9959 18.8235 24.0702 18.8235 24.1569C18.8235 24.2435 18.8538 24.3173 18.9145 24.378C18.9763 24.4398 19.0506 24.4706 19.1373 24.4706H30.4314C30.518 24.4706 30.5918 24.4398 30.6526 24.378C30.7143 24.3173 30.7451 24.2435 30.7451 24.1569ZM32 16.6275C32 16.5408 31.9692 16.4665 31.9075 16.4047C31.8467 16.344 31.773 16.3137 31.6863 16.3137C31.5996 16.3137 31.5254 16.344 31.4635 16.4047C31.4028 16.4665 31.3725 16.5408 31.3726 16.6275V31.6863C31.3725 31.773 31.4028 31.8467 31.4635 31.9075C31.5254 31.9692 31.5996 32 31.6863 32C31.773 32 31.8467 31.9692 31.9075 31.9075C31.9692 31.8467 32 31.773 32 31.6863V16.6275ZM20.6133 16.4047C20.5526 16.344 20.4788 16.3137 20.3922 16.3137C20.3055 16.3137 20.2312 16.344 20.1694 16.4047C20.1087 16.4665 20.0784 16.5408 20.0784 16.6275V21.6471C20.0784 21.7337 20.1087 21.8075 20.1694 21.8682C20.2312 21.93 20.3055 21.9608 20.3922 21.9608C20.4788 21.9608 20.5526 21.93 20.6133 21.8682C20.6751 21.8075 20.7059 21.7337 20.7059 21.6471V16.6275C20.7059 16.5408 20.6751 16.4665 20.6133 16.4047ZM28.9537 17.6596C28.893 17.7214 28.8627 17.7957 28.8627 17.8824V21.9608C28.8627 22.1341 28.8015 22.2821 28.6792 22.4047H28.6776C28.5555 22.5269 28.408 22.5881 28.2353 22.5882H19.7647C19.6779 22.5883 19.6036 22.5574 19.542 22.4957C19.4813 22.4351 19.4509 22.3613 19.451 22.2745V17.8824C19.451 17.7957 19.4202 17.7214 19.3584 17.6596C19.2977 17.5989 19.2239 17.5686 19.1373 17.5686C19.0506 17.5686 18.9763 17.5989 18.9145 17.6596C18.8538 17.7214 18.8235 17.7957 18.8235 17.8824V22.2745C18.8236 22.5349 18.9151 22.7566 19.098 22.9396C19.2821 23.1236 19.5043 23.2156 19.7647 23.2157H28.2353C28.5809 23.2158 28.8763 23.094 29.1216 22.8502V22.8486C29.3674 22.6038 29.4902 22.3079 29.4902 21.9608V17.8824C29.4902 17.7957 29.4594 17.7214 29.3976 17.6596C29.3369 17.5989 29.2631 17.5686 29.1765 17.5686C29.0898 17.5686 29.0155 17.5989 28.9537 17.6596ZM30.4314 16.9412C30.3447 16.9411 30.2705 16.9715 30.2086 17.0322C30.1479 17.094 30.1176 17.1682 30.1176 17.2549V22.902C30.1176 22.9886 30.1479 23.0624 30.2086 23.1231C30.2705 23.1849 30.3447 23.2157 30.4314 23.2157C30.518 23.2157 30.5918 23.1849 30.6526 23.1231C30.7143 23.0624 30.7451 22.9886 30.7451 22.902V17.2549C30.7451 17.1682 30.7143 17.094 30.6526 17.0322C30.5918 16.9715 30.518 16.9411 30.4314 16.9412ZM27.6988 16.4047C27.6381 16.4665 27.6078 16.5408 27.6078 16.6275V21.6471C27.6078 21.7337 27.6381 21.8075 27.6988 21.8682C27.7606 21.93 27.8349 21.9608 27.9216 21.9608C28.0082 21.9608 28.082 21.93 28.1427 21.8682C28.2045 21.8075 28.2353 21.7337 28.2353 21.6471V16.6275C28.2353 16.5408 28.2045 16.4665 28.1427 16.4047C28.082 16.344 28.0082 16.3137 27.9216 16.3137C27.8349 16.3137 27.7606 16.344 27.6988 16.4047ZM27.5906 4.40941V4.40784C27.1624 3.9792 26.6453 3.76482 26.0392 3.76471H22.2745C22.1878 3.76467 22.1136 3.79499 22.0518 3.85569C21.9911 3.91751 21.9607 3.99176 21.9608 4.07843C21.9607 4.16511 21.9911 4.23883 22.0518 4.29961C22.1136 4.36135 22.1878 4.3922 22.2745 4.39216H26.0392C26.4722 4.39205 26.8414 4.54525 27.1467 4.85176H27.1482C27.4548 5.1581 27.608 5.52778 27.6078 5.96078C27.6078 6.3939 27.454 6.76357 27.1467 7.0698C26.8414 7.37621 26.4722 7.52941 26.0392 7.52941H22.902C22.8153 7.52937 22.741 7.5597 22.6792 7.62039C22.6185 7.68221 22.5882 7.75646 22.5882 7.84314C22.5882 7.92981 22.6185 8.00354 22.6792 8.06431C22.741 8.12605 22.8153 8.1569 22.902 8.15686H26.0392C26.6457 8.15687 27.1628 7.94249 27.5906 7.51373C28.0205 7.0848 28.2354 6.56715 28.2353 5.96078C28.2352 5.35468 28.0203 4.83756 27.5906 4.40941ZM27.382 2.78118C26.9551 2.60045 26.5075 2.50999 26.0392 2.5098H21.3333C20.9861 2.50991 20.6902 2.63226 20.4455 2.87686V2.87843C20.2006 3.12374 20.0783 3.41916 20.0784 3.76471V15.3725C20.0784 15.4592 20.1087 15.5329 20.1694 15.5937C20.2312 15.6555 20.3055 15.6863 20.3922 15.6863C20.4788 15.6863 20.5526 15.6555 20.6133 15.5937C20.6751 15.5329 20.7059 15.4592 20.7059 15.3725V3.76471C20.706 3.59192 20.7672 3.44395 20.8894 3.32078H20.891C21.0127 3.19833 21.1601 3.13715 21.3333 3.13726H26.0392C26.4222 3.13707 26.7882 3.2108 27.1373 3.35843C27.4752 3.50166 27.7743 3.70349 28.0345 3.96392C28.296 4.22518 28.4983 4.52479 28.6416 4.86275C28.7892 5.21181 28.8629 5.57783 28.8627 5.96078C28.8627 6.3438 28.7884 6.71034 28.64 7.06039H28.6416C28.4986 7.39826 28.2967 7.69683 28.0361 7.95608H28.0345C27.7743 8.21755 27.4752 8.41991 27.1373 8.56314C26.7882 8.71077 26.4222 8.7845 26.0392 8.78431H21.6471C21.5604 8.78427 21.4861 8.8146 21.4243 8.87529C21.3636 8.93712 21.3333 9.01136 21.3333 9.09804C21.3333 9.18471 21.3636 9.25844 21.4243 9.31922C21.4861 9.38096 21.5604 9.41181 21.6471 9.41177H26.0392C26.5075 9.41158 26.9551 9.32112 27.382 9.14039C27.7949 8.96572 28.1603 8.71892 28.4784 8.4C28.7971 8.08303 29.0439 7.71806 29.2188 7.3051C29.3998 6.87712 29.4903 6.42901 29.4902 5.96078C29.49 5.4925 29.3996 5.04492 29.2188 4.61804C29.0442 4.20515 28.7974 3.83914 28.4784 3.52C28.1603 3.20212 27.7949 2.95585 27.382 2.78118ZM28.9224 3.07608H28.9239C29.2996 3.45345 29.5908 3.88587 29.7976 4.37333C30.0112 4.8782 30.1178 5.40735 30.1176 5.96078C30.1178 6.51422 30.0112 7.04337 29.7976 7.54824C29.5906 8.03673 29.2989 8.46862 28.9224 8.84392C28.5461 9.22142 28.1142 9.51319 27.6267 9.71922C27.1218 9.93272 26.5927 10.0394 26.0392 10.0392H22.2745C22.1878 10.0392 22.1136 10.0695 22.0518 10.1302C21.9911 10.192 21.9607 10.2663 21.9608 10.3529C21.9607 10.4396 21.9911 10.5133 22.0518 10.5741C22.1136 10.6359 22.1878 10.6667 22.2745 10.6667H26.0392C26.678 10.6665 27.2887 10.5431 27.8714 10.2965C28.4338 10.0591 28.9321 9.7229 29.3663 9.28784C29.8002 8.85477 30.1364 8.35647 30.3749 7.79294C30.6215 7.21024 30.7449 6.59952 30.7451 5.96078C30.7449 5.32205 30.6215 4.71133 30.3749 4.12863C30.1364 3.5665 29.8002 3.0682 29.3663 2.63373V2.63216C28.9318 2.19932 28.4335 1.86363 27.8714 1.6251C27.2875 1.37848 26.6768 1.25508 26.0392 1.2549H20.2353C19.8453 1.25487 19.5123 1.39239 19.2361 1.66745C18.961 1.94364 18.8235 2.27672 18.8235 2.66667V8.78431C18.8235 8.87099 18.8538 8.94471 18.9145 9.00549C18.9763 9.06723 19.0506 9.09808 19.1373 9.09804C19.2239 9.09808 19.2977 9.06723 19.3584 9.00549C19.4202 8.94471 19.451 8.87099 19.451 8.78431V2.66667C19.451 2.45008 19.5274 2.26498 19.68 2.11137C19.8336 1.95873 20.0187 1.88239 20.2353 1.88235H26.0392C26.5917 1.88217 27.1208 1.98884 27.6267 2.20235C28.1141 2.40917 28.546 2.70041 28.9224 3.07608ZM32 5.96078C31.9998 5.15268 31.8435 4.37934 31.531 3.64078C31.2298 2.92773 30.8042 2.29609 30.2541 1.74588C29.7039 1.19582 29.0722 0.770196 28.3592 0.46902C27.6207 0.156511 26.8473 0.00017161 26.0392 4.12123e-08H18.1961C17.6752 0.00019612 17.2313 0.184248 16.8643 0.552157V0.550588C16.4972 0.918844 16.3137 1.36277 16.3137 1.88235V15.3725C16.3137 15.4592 16.344 15.5329 16.4047 15.5937C16.4665 15.6555 16.5408 15.6863 16.6275 15.6863C16.7141 15.6863 16.7879 15.6555 16.8486 15.5937C16.9104 15.5329 16.9412 15.4592 16.9412 15.3725V1.88235C16.9412 1.53606 17.0636 1.24011 17.3082 0.99451C17.553 0.749608 17.849 0.627255 18.1961 0.627451H26.0392C26.7621 0.627288 27.4539 0.766895 28.1145 1.04627C28.7526 1.31608 29.3178 1.69726 29.8102 2.1898C30.3028 2.6822 30.6839 3.24743 30.9537 3.88549C31.2331 4.54613 31.3727 5.2379 31.3726 5.96078C31.3727 6.68468 31.2331 7.37697 30.9537 8.03765C30.6839 8.6757 30.3028 9.24041 29.8102 9.73177C29.3178 10.2244 28.7526 10.6055 28.1145 10.8753C27.4539 11.1547 26.7621 11.2943 26.0392 11.2941H23.5294C23.4427 11.2941 23.3685 11.3244 23.3067 11.3851C23.246 11.4469 23.2156 11.5212 23.2157 11.6078C23.2156 11.6945 23.246 11.7682 23.3067 11.829C23.3685 11.8908 23.4427 11.9216 23.5294 11.9216H26.0392C26.8473 11.9214 27.6207 11.7651 28.3592 11.4525C29.0722 11.1513 29.7039 10.7257 30.2541 10.1757C30.8042 9.62652 31.2298 8.9954 31.531 8.28235C31.8435 7.54382 31.9998 6.76996 32 5.96078Z" fill="white"/>
</svg>
