<svg width="100" height="100" viewBox="0 0 100 100" fill="none" xmlns="http://www.w3.org/2000/svg">
<path d="M100 100V0H0V100H100ZM73.7037 24.8148C73.7037 25.2247 73.5605 25.5753 73.2741 25.8667C72.9827 26.1531 72.6321 26.2963 72.2222 26.2963V58.1481C72.2222 60.4 71.4272 62.3185 69.837 63.9037L69.8296 63.9111C68.2444 65.5012 66.3259 66.2963 64.0741 66.2963C61.8222 66.2963 59.9012 65.5012 58.3111 63.9111C56.721 62.321 55.9259 60.4 55.9259 58.1481V53.3556C55.9259 53.2864 55.9309 53.2222 55.9407 53.163C55.9309 53.0988 55.9259 53.0321 55.9259 52.963C55.9259 50.9185 55.2025 49.1728 53.7556 47.7259C52.6296 46.6 51.3259 45.9136 49.8444 45.6667C49.558 47.0395 48.8864 48.2519 47.8296 49.3037L47.8222 49.3111C47.5704 49.563 47.3086 49.7926 47.037 50V55.2074C47.2889 55.2963 47.5383 55.3926 47.7852 55.4963C49.3753 56.1679 50.7852 57.121 52.0148 58.3556H52.0222C53.2519 59.5852 54.2049 60.9975 54.8815 62.5926L54.8741 62.5852C55.5753 64.2346 55.9259 65.9654 55.9259 67.7778C55.9259 69.5852 55.5753 71.316 54.8741 72.9704H54.8815C54.2049 74.5605 53.2519 75.9704 52.0222 77.2L52.0148 77.2074C51.679 77.5383 51.3309 77.8519 50.9704 78.1481H54.4444C55.6642 78.1481 56.7111 78.5802 57.5852 79.4444L57.5926 79.4519C58.4568 80.316 58.8889 81.3605 58.8889 82.5852V82.5926C58.8889 83.8123 58.4568 84.8593 57.5926 85.7333L57.5852 85.7407C56.7111 86.6049 55.6642 87.037 54.4444 87.037H30.7333C29.5086 87.037 28.4642 86.6049 27.6 85.7407L27.5926 85.7333C26.7284 84.8593 26.2963 83.8123 26.2963 82.5926V82.5852C26.2963 81.3605 26.7309 80.316 27.6 79.4519C28.4642 78.5827 29.5086 78.1481 30.7333 78.1481H34.2148C33.8543 77.8519 33.5062 77.5383 33.1704 77.2074V77.2C31.9358 75.9704 30.9827 74.5605 30.3111 72.9704C29.6099 71.316 29.2593 69.5852 29.2593 67.7778C29.2593 65.9654 29.6099 64.2346 30.3111 62.5852V62.5926C30.9827 60.9975 31.9358 59.5852 33.1704 58.3556C34.4 57.121 35.8123 56.1679 37.4074 55.4963H37.4C37.6469 55.3926 37.8963 55.2963 38.1481 55.2074V50.0074C37.8716 49.7951 37.6074 49.563 37.3556 49.3111C35.9086 47.8642 35.1852 46.1185 35.1852 44.0741C35.1852 42.0346 35.9086 40.2889 37.3556 38.837C37.6074 38.5852 37.8691 38.3556 38.1407 38.1481V33.7037H36.6593C35.4346 33.7037 34.3901 33.2716 33.5259 32.4074L33.5185 32.4C32.6543 31.5259 32.2222 30.479 32.2222 29.2593V29.2519C32.2222 28.0272 32.6568 26.9827 33.5259 26.1185C34.3901 25.2494 35.4346 24.8148 36.6593 24.8148H38.1481C38.1481 24.6963 38.163 24.5753 38.1926 24.4519L38.963 21.363C38.5728 21.1556 38.2123 20.8864 37.8815 20.5556L37.8741 20.5481C37.0099 19.6741 36.5778 18.6272 36.5778 17.4074V17.4C36.5778 16.1753 37.0123 15.1309 37.8815 14.2667C38.7457 13.3975 39.7926 12.963 41.0222 12.963H44.0741C45.2988 12.9531 46.3481 13.3877 47.2222 14.2667C48.0864 15.1309 48.5185 16.1753 48.5185 17.4V17.4074C48.5185 18.6272 48.0864 19.6741 47.2222 20.5481L47.2148 20.5556C46.8988 20.8667 46.5654 21.121 46.2148 21.3185L46.9926 24.4593C47.0222 24.5778 47.0395 24.6963 47.0444 24.8148H48.5185C49.7383 24.8148 50.7852 25.2469 51.6593 26.1111L51.6667 26.1185C52.5309 26.9827 52.963 28.0272 52.963 29.2519V29.2593C52.963 30.479 52.5309 31.5259 51.6667 32.4L51.6593 32.4074C50.7852 33.2716 49.7383 33.7037 48.5185 33.7037H47.0296V38.1333C47.3062 38.3457 47.5728 38.5802 47.8296 38.837C48.9358 39.9432 49.6198 41.2222 49.8815 42.6741C52.163 42.9457 54.1531 43.9309 55.8519 45.6296C57.8765 47.6543 58.8889 50.0988 58.8889 52.963C58.8889 53.0321 58.8864 53.0988 58.8815 53.163C58.8864 53.2222 58.8889 53.2864 58.8889 53.3556V58.1481C58.8889 59.5802 59.3951 60.8025 60.4074 61.8148C61.4198 62.8272 62.642 63.3333 64.0741 63.3333C65.5062 63.3333 66.7284 62.8272 67.7407 61.8148C68.7531 60.8025 69.2593 59.5802 69.2593 58.1481V26.2963C68.8494 26.2963 68.5012 26.1531 68.2148 25.8667C67.9235 25.5753 67.7778 25.2247 67.7778 24.8148C67.7778 24.4049 67.9235 24.0568 68.2148 23.7704C68.5012 23.479 68.8494 23.3333 69.2593 23.3333C69.2593 22.9235 69.4049 22.5753 69.6963 22.2889C69.9827 21.9975 70.3309 21.8519 70.7407 21.8519C71.1506 21.8519 71.5012 21.9975 71.7926 22.2889C72.079 22.5753 72.2222 22.9235 72.2222 23.3333C72.6321 23.3333 72.9827 23.479 73.2741 23.7704C73.5605 24.0568 73.7037 24.4049 73.7037 24.8148ZM29.2593 82.5926C29.2593 82.9975 29.4049 83.3481 29.6963 83.6444C29.9827 83.9309 30.3284 84.0741 30.7333 84.0741H54.4444C54.8494 84.0741 55.1975 83.9309 55.4889 83.6444L55.4963 83.637C55.7827 83.3457 55.9259 82.9975 55.9259 82.5926V82.5852C55.9259 82.1802 55.7827 81.8346 55.4963 81.5482C55.2 81.2568 54.8494 81.1111 54.4444 81.1111H42.9407C42.9259 81.1111 42.9111 81.1111 42.8963 81.1111C42.8914 81.1111 42.8864 81.1111 42.8815 81.1111H42.2963C42.2864 81.1111 42.2741 81.1111 42.2593 81.1111H30.7333C30.3284 81.1111 29.9827 81.2568 29.6963 81.5482C29.4049 81.8346 29.2593 82.1802 29.2593 82.5852V82.5926ZM41.1111 51.3481V54.5259C41.6 54.4716 42.0938 54.4444 42.5926 54.4444C43.0914 54.4444 43.5852 54.4716 44.0741 54.5259V51.3481C43.6 51.437 43.1062 51.4815 42.5926 51.4815C42.079 51.4815 41.5852 51.437 41.1111 51.3481ZM38.5556 58.2222V58.2296C37.316 58.7481 36.2198 59.4864 35.2667 60.4444L35.2593 60.4519C34.3012 61.4049 33.563 62.5012 33.0444 63.7407H33.037C32.4938 65.0247 32.2222 66.3704 32.2222 67.7778C32.2222 69.1802 32.4938 70.5259 33.037 71.8148L33.0444 71.8222C33.563 73.0568 34.3012 74.1531 35.2593 75.1111H35.2667C36.2198 76.0691 37.316 76.8099 38.5556 77.3333C39.7556 77.842 41.0148 78.1136 42.3333 78.1481H42.8593C44.1679 78.1136 45.4247 77.842 46.6296 77.3333H46.637C47.8716 76.8099 48.9679 76.0691 49.9259 75.1111C50.884 74.1531 51.6247 73.0568 52.1481 71.8222V71.8148C52.6914 70.5259 52.963 69.1802 52.963 67.7778C52.963 66.3704 52.6914 65.0247 52.1481 63.7407C51.6247 62.5012 50.884 61.4049 49.9259 60.4519V60.4444C48.9679 59.4864 47.8716 58.7481 46.637 58.2296L46.6296 58.2222C45.3407 57.679 43.9951 57.4074 42.5926 57.4074C41.1852 57.4074 39.8395 57.679 38.5556 58.2222ZM38.1481 67.7778C38.1481 69.0025 38.5827 70.0494 39.4519 70.9185C40.321 71.7877 41.3679 72.2222 42.5926 72.2222C43.0025 72.2222 43.3531 72.3679 43.6444 72.6593C43.9309 72.9457 44.0741 73.2938 44.0741 73.7037C44.0741 74.1136 43.9309 74.4642 43.6444 74.7556C43.3531 75.042 43.0025 75.1852 42.5926 75.1852C40.5481 75.1852 38.8025 74.4617 37.3556 73.0148C35.9086 71.5679 35.1852 69.8222 35.1852 67.7778C35.1852 67.3679 35.3309 67.0198 35.6222 66.7333C35.9086 66.442 36.2568 66.2963 36.6667 66.2963C37.0765 66.2963 37.4272 66.442 37.7185 66.7333C38.0049 67.0198 38.1481 67.3679 38.1481 67.7778ZM42.5926 36.6667C43.1012 36.6667 43.5926 36.7111 44.0667 36.8V33.7037H41.1037V36.8074C41.5827 36.7136 42.079 36.6667 42.5926 36.6667ZM39.4519 40.9259L39.4444 40.9333C38.5802 41.8025 38.1481 42.8494 38.1481 44.0741C38.1481 45.2988 38.5827 46.3457 39.4519 47.2148C40.321 48.084 41.3679 48.5185 42.5926 48.5185C43.8173 48.5185 44.8642 48.084 45.7333 47.2148C46.5926 46.3556 47.0272 45.321 47.037 44.1111V44.037C47.0272 42.8272 46.5926 41.7926 45.7333 40.9333C44.8642 40.0642 43.8173 39.6296 42.5926 39.6296C41.3679 39.6296 40.321 40.0617 39.4519 40.9259ZM44.0296 24.8148L43.2963 21.8519H41.8963L41.1556 24.8148H44.0296ZM45.5556 17.4074V17.4C45.5556 16.9951 45.4123 16.6494 45.1259 16.363C44.8346 16.0716 44.4864 15.9259 44.0815 15.9259H41.0222C40.6123 15.9259 40.2642 16.0716 39.9778 16.363C39.6864 16.6494 39.5407 16.9951 39.5407 17.4V17.4074C39.5407 17.8123 39.6864 18.163 39.9778 18.4593C40.2099 18.6914 40.4839 18.8321 40.8 18.8815C40.8296 18.8815 40.8593 18.884 40.8889 18.8889C40.9333 18.8889 40.9778 18.8889 41.0222 18.8889H44.0741C44.1333 18.8889 44.1951 18.8864 44.2593 18.8815H44.2889C44.2889 18.8765 44.2914 18.8765 44.2963 18.8815C44.3012 18.8765 44.3062 18.8741 44.3111 18.8741C44.321 18.8741 44.3284 18.8741 44.3333 18.8741C44.6346 18.8198 44.9012 18.679 45.1333 18.4519L45.1185 18.4593C45.4099 18.1679 45.5556 17.8173 45.5556 17.4074ZM49.5704 28.2148C49.2741 27.9235 48.9235 27.7778 48.5185 27.7778H36.6593C36.2543 27.7778 35.9086 27.9235 35.6222 28.2148C35.3309 28.5012 35.1852 28.8469 35.1852 29.2519V29.2593C35.1852 29.6642 35.3309 30.0148 35.6222 30.3111C35.9086 30.5975 36.2543 30.7407 36.6593 30.7407H48.5185C48.9235 30.7407 49.2716 30.5975 49.563 30.3111L49.5704 30.3037C49.8568 30.0123 50 29.6642 50 29.2593V29.2519C50 28.8469 49.8568 28.5012 49.5704 28.2148Z" fill="black"/>
</svg>
