<svg width="500" height="500" viewBox="0 0 500 500" fill="none" xmlns="http://www.w3.org/2000/svg">
<g clip-path="url(#clip0_81_70)">
<path d="M231.25 8.8C225.35 2.86667 218.267 -0.0666542 210 1.24829e-05H189.4C181.1 1.24829e-05 174.033 2.93333 168.2 8.8C162.333 14.6333 159.4 21.6833 159.4 29.95V30C159.4 38.2333 162.317 45.3 168.15 51.2L168.2 51.25C170.433 53.4833 172.867 55.3 175.5 56.7L170.3 77.55C170.1 78.3833 170 79.2 170 80H159.95C151.683 80 144.633 82.9333 138.8 88.8C132.933 94.6333 130 101.683 130 109.95V110C130 118.233 132.917 125.3 138.75 131.2L138.8 131.25C144.633 137.083 151.683 140 159.95 140H169.95V170C168.117 171.4 166.35 172.95 164.65 174.65C154.883 184.45 150 196.233 150 210C150 223.8 154.883 235.583 164.65 245.35C166.35 247.05 168.133 248.617 170 250.05V285.15C168.3 285.75 166.617 286.4 164.95 287.1H165C154.233 291.633 144.7 298.067 136.4 306.4C128.067 314.7 121.633 324.233 117.1 335V334.95C112.367 346.083 110 357.767 110 370C110 382.2 112.367 393.883 117.1 405.05C121.633 415.783 128.067 425.3 136.4 433.6V433.65C138.667 435.883 141.017 438 143.45 440H119.95C111.683 440 104.633 442.933 98.8 448.8C92.9333 454.633 90 461.683 90 469.95V470C90 478.233 92.9167 485.3 98.75 491.2L98.8 491.25C104.633 497.083 111.683 500 119.95 500H280C288.233 500 295.3 497.083 301.2 491.25L301.25 491.2C307.083 485.3 310 478.233 310 470V469.95C310 461.683 307.083 454.633 301.25 448.8L301.2 448.75C295.3 442.917 288.233 440 280 440H256.55C258.983 438 261.333 435.883 263.6 433.65L263.65 433.6C271.95 425.3 278.383 415.783 282.95 405.05H282.9C287.633 393.883 290 382.2 290 370C290 357.767 287.633 346.083 282.9 334.95L282.95 335C278.383 324.233 271.95 314.7 263.65 306.4H263.6C255.3 298.067 245.783 291.633 235.05 287.1C233.383 286.4 231.7 285.75 230 285.15V250C231.833 248.6 233.6 247.05 235.3 245.35L235.35 245.3C242.483 238.2 247.017 230.017 248.95 220.75C258.95 222.417 267.75 227.05 275.35 234.65C285.117 244.417 290 256.2 290 270C290 270.467 290.033 270.917 290.1 271.35C290.033 271.75 290 272.183 290 272.65V305C290 320.2 295.367 333.167 306.1 343.9C316.833 354.633 329.8 360 345 360C360.2 360 373.15 354.633 383.85 343.9L383.9 343.85C394.633 333.15 400 320.2 400 305V90C402.767 90 405.133 89.0333 407.1 87.1C409.033 85.1333 410 82.7667 410 80C410 77.2333 409.033 74.8833 407.1 72.95C405.133 70.9833 402.767 70 400 70C400 67.2333 399.033 64.8833 397.1 62.95C395.133 60.9833 392.767 60 390 60C387.233 60 384.883 60.9833 382.95 62.95C380.983 64.8833 380 67.2333 380 70C377.233 70 374.883 70.9833 372.95 72.95C370.983 74.8833 370 77.2333 370 80C370 82.7667 370.983 85.1333 372.95 87.1C374.883 89.0333 377.233 90 380 90V305C380 314.667 376.583 322.917 369.75 329.75C362.917 336.583 354.667 340 345 340C335.333 340 327.083 336.583 320.25 329.75C313.417 322.917 310 314.667 310 305V272.65C310 272.183 309.983 271.75 309.95 271.35C309.983 270.917 310 270.467 310 270C310 250.667 303.167 234.167 289.5 220.5C278.033 209.033 264.6 202.383 249.2 200.55C247.433 190.75 242.817 182.117 235.35 174.65C233.617 172.917 231.817 171.333 229.95 169.9V140H240C248.233 140 255.3 137.083 261.2 131.25L261.25 131.2C267.083 125.3 270 118.233 270 110V109.95C270 101.683 267.083 94.6333 261.25 88.8L261.2 88.75C255.3 82.9167 248.233 80 240 80H230.05C230.017 79.2 229.9 78.4 229.7 77.6L224.45 56.4C226.817 55.0667 229.067 53.35 231.2 51.25L231.25 51.2C237.083 45.3 240 38.2333 240 30V29.95C240 21.6833 237.083 14.6333 231.25 8.8ZM220 30C220 32.7667 219.017 35.1333 217.05 37.1L217.15 37.05C215.583 38.5833 213.783 39.5333 211.75 39.9C211.583 39.9 211.433 39.9167 211.3 39.95C210.867 39.9833 210.433 40 210 40H189.4C189.1 40 188.783 40 188.45 40C188.283 39.9667 188.1 39.95 187.9 39.95C185.767 39.6167 183.917 38.6667 182.35 37.1C180.383 35.1 179.4 32.7333 179.4 30V29.95C179.4 27.2167 180.383 24.8833 182.35 22.95C184.283 20.9833 186.633 20 189.4 20H210.05C212.783 20 215.133 20.9833 217.1 22.95C219.033 24.8833 220 27.2167 220 29.95V30ZM150 109.95C150 107.217 150.983 104.883 152.95 102.95C154.883 100.983 157.217 100 159.95 100H240C242.733 100 245.1 100.983 247.1 102.95C249.033 104.883 250 107.217 250 109.95V110C250 112.733 249.033 115.083 247.1 117.05L247.05 117.1C245.083 119.033 242.733 120 240 120H159.95C157.217 120 154.883 119.033 152.95 117.1C150.983 115.1 150 112.733 150 110V109.95ZM189.95 160.95V140H209.95V160.9C206.75 160.3 203.433 160 200 160C196.533 160 193.183 160.317 189.95 160.95ZM190.3 80L195.3 60H204.75L209.7 80H190.3ZM230 209.75V210.25C229.933 218.417 227 225.4 221.2 231.2C215.333 237.067 208.267 240 200 240C191.733 240 184.667 237.067 178.8 231.2C172.933 225.333 170 218.267 170 210C170 201.733 172.917 194.667 178.75 188.8L178.8 188.75C184.667 182.917 191.733 180 200 180C208.267 180 215.333 182.933 221.2 188.8C227 194.6 229.933 201.583 230 209.75ZM200 260C203.467 260 206.8 259.7 210 259.1V280.55C206.7 280.183 203.367 280 200 280C196.633 280 193.3 280.183 190 280.55V259.1C193.2 259.7 196.533 260 200 260ZM172.75 305.55V305.5C181.417 301.833 190.5 300 200 300C209.467 300 218.55 301.833 227.25 305.5L227.3 305.55C235.633 309.05 243.033 314.033 249.5 320.5V320.55C255.967 326.983 260.967 334.383 264.5 342.75C268.167 351.417 270 360.5 270 370C270 379.467 268.167 388.55 264.5 397.25V397.3C260.967 405.633 255.967 413.033 249.5 419.5C243.033 425.967 235.633 430.967 227.3 434.5H227.25C219.117 437.933 210.633 439.767 201.8 440H198.25C189.35 439.767 180.85 437.933 172.75 434.5C164.383 430.967 156.983 425.967 150.55 419.5H150.5C144.033 413.033 139.05 405.633 135.55 397.3L135.5 397.25C131.833 388.55 130 379.467 130 370C130 360.5 131.833 351.417 135.5 342.75H135.55C139.05 334.383 144.033 326.983 150.5 320.55L150.55 320.5C156.983 314.033 164.383 309.05 172.75 305.55ZM280 460C282.733 460 285.1 460.983 287.1 462.95C289.033 464.883 290 467.217 290 469.95V470C290 472.733 289.033 475.083 287.1 477.05L287.05 477.1C285.083 479.033 282.733 480 280 480H119.95C117.217 480 114.883 479.033 112.95 477.1C110.983 475.1 110 472.733 110 470V469.95C110 467.217 110.983 464.883 112.95 462.95C114.883 460.983 117.217 460 119.95 460H197.75C197.85 460 197.933 460 198 460H202.05C202.15 460 202.25 460 202.35 460H280ZM167.1 362.95C165.133 360.983 162.767 360 160 360C157.233 360 154.883 360.983 152.95 362.95C150.983 364.883 150 367.233 150 370C150 383.8 154.883 395.583 164.65 405.35C174.417 415.117 186.2 420 200 420C202.767 420 205.133 419.033 207.1 417.1C209.033 415.133 210 412.767 210 410C210 407.233 209.033 404.883 207.1 402.95C205.133 400.983 202.767 400 200 400C191.733 400 184.667 397.067 178.8 391.2C172.933 385.333 170 378.267 170 370C170 367.233 169.033 364.883 167.1 362.95Z" fill="black"/>
</g>
<defs>
<clipPath id="clip0_81_70">
<rect width="500" height="500" fill="white"/>
</clipPath>
</defs>
</svg>
