<svg width="100" height="100" viewBox="0 0 100 100" fill="none" xmlns="http://www.w3.org/2000/svg">
<path d="M100 100V0H0V100H100ZM74.4963 22.9111H74.4889C76.3407 23.6568 77.9778 24.7407 79.4 26.163C80.8173 27.5802 81.9012 29.2123 82.6519 31.0593C83.3728 32.842 83.7333 34.6988 83.7333 36.6296C83.7333 38.5605 83.3728 40.4198 82.6519 42.2074V42.2C81.9012 44.0519 80.8173 45.6889 79.4 47.1111C77.9778 48.5284 76.3407 49.6123 74.4889 50.363H74.4963C72.7086 51.084 70.8494 51.4444 68.9185 51.4444C68.8148 51.4444 68.7136 51.4444 68.6148 51.4444L39.5111 76.7926H39.5037C38.6247 77.5531 37.6025 77.9161 36.437 77.8815H36.4296C35.2691 77.837 34.2741 77.4049 33.4444 76.5852L32.2593 75.4L31.2074 76.4444C30.0519 77.6 28.6543 78.1778 27.0148 78.1778C25.3802 78.1778 23.9852 77.6 22.8296 76.4444L16.7111 70.3259C16.4198 70.0346 16.2741 69.684 16.2741 69.2741C16.2741 68.8642 16.4198 68.516 16.7111 68.2296C16.9975 67.9383 17.3457 67.7926 17.7556 67.7926C18.1654 67.7926 18.516 67.9383 18.8074 68.2296L24.9259 74.3481C25.5037 74.9259 26.2 75.2148 27.0148 75.2148C27.8346 75.2148 28.5358 74.9259 29.1185 74.3481L30.163 73.2963L28.9778 72.1111C28.1481 71.2864 27.7136 70.2914 27.6741 69.1259V69.1185C27.6296 67.9531 27.9951 66.9309 28.7704 66.0519H28.763L54.1111 36.9556C54.1062 36.8469 54.1037 36.7383 54.1037 36.6296C54.1037 34.6988 54.4667 32.842 55.1926 31.0593C55.9333 29.2272 57.0074 27.6025 58.4148 26.1852L58.4667 26.1333C59.884 24.7259 61.5111 23.6519 63.3481 22.9111C65.1309 22.1852 66.9877 21.8222 68.9185 21.8222C70.8494 21.8222 72.7086 22.1852 74.4963 22.9111ZM55.1926 42.2C55 41.7358 54.837 41.2667 54.7037 40.7926L31 68C30.7432 68.2914 30.6222 68.6296 30.637 69.0148V69.0222C30.6469 69.4074 30.7901 69.7358 31.0667 70.0074L35.5407 74.4889C35.8173 74.7605 36.1506 74.9037 36.5407 74.9185C36.9259 74.9284 37.2667 74.8074 37.563 74.5556L64.7704 50.8519C64.2914 50.7136 63.8173 50.5506 63.3481 50.363C61.4963 49.6123 59.8617 48.5284 58.4444 47.1111C57.0222 45.6889 55.9383 44.0519 55.1926 42.2ZM56.3481 49.2L56.3556 49.2074C57.2198 50.0716 57.6519 51.1185 57.6519 52.3481C57.6519 53.5728 57.2198 54.6198 56.3556 55.4889C55.4815 56.358 54.4321 56.7926 53.2074 56.7926C51.9778 56.7926 50.9309 56.358 50.0667 55.4889L50.0593 55.4815C49.1951 54.6123 48.763 53.5679 48.763 52.3481C48.763 51.1185 49.1975 50.0716 50.0667 49.2074C50.9309 48.3383 51.9778 47.9037 53.2074 47.9037C54.4272 47.9037 55.4741 48.3358 56.3481 49.2ZM53.2074 50.8667C52.7975 50.8667 52.4494 51.0123 52.163 51.3037C51.8716 51.5901 51.7259 51.9383 51.7259 52.3481C51.7259 52.7531 51.8716 53.1012 52.163 53.3926C52.4494 53.684 52.7975 53.8296 53.2074 53.8296C53.6123 53.8296 53.963 53.684 54.2593 53.3926C54.5457 53.1012 54.6889 52.7531 54.6889 52.3481C54.6889 51.9383 54.5457 51.5901 54.2593 51.3037C53.963 51.0123 53.6123 50.8667 53.2074 50.8667ZM59.5556 29.3704C58.8889 30.2247 58.3506 31.158 57.9407 32.1704V32.1778C57.358 33.6 57.0667 35.084 57.0667 36.6296C57.0667 36.8617 57.0741 37.0914 57.0889 37.3185C57.0889 37.3383 57.0914 37.358 57.0963 37.3778C57.0963 37.3827 57.0963 37.3877 57.0963 37.3926V37.4296C57.1802 38.6889 57.4617 39.9086 57.9407 41.0889C58.5333 42.5654 59.4 43.8741 60.5407 45.0148C61.6765 46.1506 62.9827 47.0173 64.4593 47.6148C65.6444 48.0938 66.8691 48.3753 68.1333 48.4593L68.1704 48.4667H68.1778C68.1926 48.4667 68.2123 48.4667 68.237 48.4667C68.4642 48.4765 68.6914 48.4815 68.9185 48.4815C70.4642 48.4815 71.9506 48.1926 73.3778 47.6148C74.3951 47.2 75.3333 46.6617 76.1926 46L59.5556 29.3704ZM77.3037 28.2593C76.163 27.1185 74.8543 26.2519 73.3778 25.6593C71.9506 25.0765 70.4642 24.7852 68.9185 24.7852C67.3728 24.7852 65.8889 25.0765 64.4667 25.6593H64.4593C63.442 26.0691 62.5062 26.6074 61.6519 27.2741L78.2889 43.9037C78.9506 43.0444 79.4889 42.1062 79.9037 41.0889C80.4815 39.6617 80.7704 38.1753 80.7704 36.6296C80.7704 35.084 80.4815 33.6 79.9037 32.1778V32.1704C79.3062 30.6988 78.4395 29.3951 77.3037 28.2593Z" fill="black"/>
</svg>
