<svg width="500" height="500" viewBox="0 0 500 500" fill="none" xmlns="http://www.w3.org/2000/svg">
<g clip-path="url(#clip0_81_53)">
<path d="M470.35 122.1V122.15C465.327 109.699 458.011 98.666 448.4 89.05C438.82 79.472 427.786 72.1553 415.3 67.1C403.275 62.2307 390.742 59.7974 377.7 59.8C364.659 59.7974 352.109 62.2307 340.05 67.1H340.1C327.693 72.1234 316.709 79.3901 307.15 88.9L306.8 89.25C297.291 98.8116 290.024 109.778 285 122.15V122.1C280.131 134.158 277.698 146.708 277.7 159.75C277.7 160.481 277.7 161.197 277.7 161.9L106.65 358.3C101.459 364.267 99.0088 371.167 99.3001 379V379.05C99.5626 386.953 102.479 393.67 108.05 399.2L116.1 407.25L109 414.3C105.104 418.232 100.387 420.199 94.8501 420.2C89.3427 420.195 84.626 418.229 80.7001 414.3L39.4001 373C37.4628 371.065 35.1129 370.099 32.3501 370.1C29.5873 370.099 27.2207 371.065 25.2501 373C23.3155 374.971 22.3488 377.337 22.3501 380.1C22.3488 382.863 23.3155 385.213 25.2501 387.15L66.5501 428.45C74.3909 436.288 83.8242 440.205 94.8501 440.2C105.901 440.201 115.335 436.301 123.15 428.5L130.2 421.4L138.25 429.45C143.837 434.984 150.537 437.901 158.35 438.2H158.4C166.296 438.44 173.213 435.99 179.15 430.85L375.6 259.7C376.306 259.732 377.006 259.749 377.7 259.75C390.742 259.752 403.275 257.302 415.3 252.4C427.786 247.378 438.82 240.061 448.4 230.45C458.011 220.87 465.328 209.836 470.35 197.35C475.253 185.325 477.703 172.791 477.7 159.75C477.703 146.708 475.253 134.158 470.35 122.1ZM407.75 85.65H407.8C417.781 89.6945 426.597 95.5445 434.25 103.2C441.939 110.884 447.789 119.701 451.8 129.65C455.731 139.292 457.698 149.325 457.7 159.75C457.698 170.175 455.731 180.192 451.8 189.8V189.85C449.044 196.72 445.411 203.037 440.9 208.8L328.6 96.55C334.399 92.0716 340.732 88.4383 347.6 85.65C357.242 81.7525 367.275 79.8025 377.7 79.8C388.125 79.8025 398.142 81.7525 407.75 85.65ZM303.55 129.65C306.338 122.804 309.971 116.487 314.45 110.7L426.75 222.95C420.987 227.461 414.67 231.094 407.8 233.85H407.75C398.142 237.781 388.125 239.747 377.7 239.75C376.156 239.753 374.606 239.72 373.05 239.65C372.932 239.642 372.798 239.626 372.65 239.6C372.567 239.608 372.483 239.608 372.4 239.6C363.855 239.017 355.589 237.101 347.6 233.85C337.619 229.839 328.786 223.989 321.1 216.3C313.445 208.647 307.595 199.83 303.55 189.85C300.337 181.87 298.453 173.62 297.9 165.1C297.892 165.033 297.875 164.95 297.85 164.85C297.869 164.842 297.869 164.825 297.85 164.8C297.857 164.662 297.857 164.529 297.85 164.4C297.75 162.856 297.7 161.306 297.7 159.75C297.703 149.325 299.653 139.292 303.55 129.65ZM281.7 187.85C282.649 191.046 283.749 194.212 285 197.35C290.055 209.836 297.372 220.87 306.95 230.45C316.564 240.061 327.614 247.378 340.1 252.4C343.261 253.694 346.461 254.811 349.7 255.75L166 415.75H166.05C164.066 417.466 161.75 418.282 159.1 418.2C156.504 418.1 154.27 417.133 152.4 415.3L122.2 385.05C120.349 383.213 119.382 380.98 119.3 378.35V378.3C119.202 375.72 120.002 373.437 121.7 371.45H121.75L281.7 187.85ZM292.85 244.6C286.958 238.76 279.891 235.843 271.65 235.85C263.351 235.852 256.267 238.769 250.4 244.6C244.569 250.467 241.652 257.551 241.65 265.85C241.646 274.098 244.563 281.148 250.4 287C256.269 292.904 263.352 295.854 271.65 295.85C279.902 295.862 286.968 292.912 292.85 287C298.721 281.16 301.654 274.11 301.65 265.85C301.648 257.551 298.715 250.467 292.85 244.6ZM278.7 258.75L278.75 258.8C280.685 260.744 281.652 263.094 281.65 265.85C281.646 268.59 280.663 270.923 278.7 272.85C276.748 274.838 274.398 275.838 271.65 275.85C268.893 275.846 266.543 274.863 264.6 272.9L264.55 272.85C262.621 270.923 261.654 268.59 261.65 265.85C261.648 263.083 262.615 260.716 264.55 258.75C266.516 256.815 268.883 255.848 271.65 255.85C274.397 255.857 276.747 256.823 278.7 258.75Z" fill="black"/>
</g>
<defs>
<clipPath id="clip0_81_53">
<rect width="500" height="500" fill="white"/>
</clipPath>
</defs>
</svg>
