<svg width="500" height="500" viewBox="0 0 500 500" fill="none" xmlns="http://www.w3.org/2000/svg">
<path d="M361.3 148.8L361.25 148.75C355.35 142.917 348.283 140 340.05 140H280V109.95C280 101.683 277.083 94.6333 271.25 88.8C265.383 82.9333 258.317 80 250.05 80H250C241.733 80 234.683 82.9333 228.85 88.8C222.983 94.6333 220.05 101.683 220.05 109.95V140H160.05C151.75 140 144.683 142.933 138.85 148.8C132.983 154.633 130.05 161.7 130.05 170V199.95H50C41.7667 199.95 34.7167 202.883 28.85 208.75L28.8 208.8C22.9334 214.633 20 221.7 20 230L20.05 350C20.05 358.233 22.9667 365.3 28.8 371.2L28.85 371.25C31.5167 373.917 34.4667 375.983 37.7 377.45C41.4667 379.15 45.5834 380 50.05 380H275.8C279.367 385.167 283.55 390 288.35 394.5H288.4C296.8 402.433 306.317 408.617 316.95 413.05C327.783 417.55 338.783 419.867 349.95 420C365.95 420.167 381.183 415.95 395.65 407.35C407.65 400.183 417.417 391.033 424.95 379.9L450.05 379.95C454.45 379.95 458.533 379.117 462.3 377.45C465.533 375.983 468.517 373.9 471.25 371.2H471.3C477.133 365.333 480.05 358.25 480.05 349.95L480 229.95C480 221.717 477.083 214.667 471.25 208.8C465.383 202.9 458.3 199.95 450 199.95H370.05V170C370.05 161.7 367.133 154.633 361.3 148.8ZM347.15 162.95C349.083 164.883 350.05 167.233 350.05 170V199.95H150.05V170C150.05 167.233 151.033 164.883 153 162.95C154.933 160.983 157.283 160 160.05 160H340.05C342.783 160 345.15 160.983 347.15 162.95ZM457.05 222.9L457.1 222.95C459.033 224.883 460 227.217 460 229.95L460.05 349.95C460.05 352.717 459.083 355.067 457.15 357V357.05C455.183 358.95 452.817 359.917 450.05 359.95L434.9 359.9C435.033 359.467 435.183 359.05 435.35 358.65V358.6C438.483 349.167 440.05 339.633 440.05 330C440.05 317.767 437.683 306.083 432.95 294.95L433 295C428.433 284.233 422 274.7 413.7 266.4H413.65C405.35 258.067 395.833 251.633 385.1 247.1C373.933 242.367 362.25 240 350.05 240C337.817 240 326.133 242.367 315 247.1H315.05C304.283 251.633 294.75 258.067 286.45 266.4C278.117 274.7 271.683 284.233 267.15 295V294.95C262.417 306.083 260.05 317.767 260.05 330C260.05 340.433 261.817 350.433 265.35 360H50.05C47.2834 360 44.9333 359.033 43 357.1C41.0333 355.1 40.05 352.733 40.05 350L40 230C40 227.233 40.9833 224.883 42.95 222.95L43 222.9C44.9333 220.933 47.2667 219.95 50 219.95H450C452.767 219.95 455.117 220.933 457.05 222.9ZM377.3 265.5L377.35 265.55C385.683 269.05 393.083 274.033 399.55 280.5V280.55C406.017 286.983 411.017 294.383 414.55 302.75C418.217 311.417 420.05 320.5 420.05 330C420.05 337.5 418.833 344.933 416.4 352.3C414.867 356.8 413.067 360.817 411 364.35L410.95 364.5C410.817 364.667 410.717 364.85 410.65 365.05C410.583 365.15 410.517 365.25 410.45 365.35C407.817 369.75 404.767 373.783 401.3 377.45C396.733 382.317 391.433 386.55 385.4 390.15C374.233 396.817 362.5 400.1 350.2 400H350.15C341.517 399.867 333.017 398.067 324.65 394.6C316.25 391.067 308.717 386.183 302.05 379.95V379.9C301.183 379.1 300.35 378.283 299.55 377.45C295.917 373.75 292.783 369.767 290.15 365.5C289.917 365.033 289.65 364.6 289.35 364.2C288.15 362.133 287.05 360.017 286.05 357.85C282.05 349.05 280.05 339.767 280.05 330C280.05 320.5 281.883 311.417 285.55 302.75H285.6C289.1 294.383 294.083 286.983 300.55 280.55L300.6 280.5C307.033 274.033 314.433 269.05 322.8 265.55V265.5C331.467 261.833 340.55 260 350.05 260C359.517 260 368.6 261.833 377.3 265.5ZM243 102.95C244.933 100.983 247.267 100 250 100H250.05C252.783 100 255.133 100.983 257.1 102.95C259.033 104.883 260 107.217 260 109.95V140H240.05V109.95C240.05 107.217 241.033 104.883 243 102.95ZM400 329.95C400 316.15 395.133 304.383 385.4 294.65C375.6 284.85 363.8 279.95 350 279.95C336.2 279.95 324.433 284.85 314.7 294.65C304.9 304.383 300 316.15 300 329.95C300 343.75 304.9 355.55 314.7 365.35C320.4 371.05 326.817 375.083 333.95 377.45C338.95 379.117 344.3 379.95 350 379.95C355.733 379.95 361.1 379.117 366.1 377.45C373.233 375.083 379.667 371.05 385.4 365.35C395.133 355.583 400 343.783 400 329.95ZM350 299.95C358.267 299.95 365.35 302.9 371.25 308.8C377.083 314.633 380 321.683 380 329.95C380 338.25 377.083 345.333 371.25 351.2C365.383 357.033 358.3 359.95 350 359.95C341.733 359.95 334.683 357.033 328.85 351.2C322.95 345.3 320 338.217 320 329.95C320 321.683 322.933 314.633 328.8 308.8L328.85 308.75C334.683 302.883 341.733 299.95 350 299.95ZM63 322.95C61.0333 324.883 60.05 327.233 60.05 330C60.05 332.767 61.0333 335.133 63 337.1C64.9333 339.033 67.2834 340 70.05 340H160.05C162.817 340 165.183 339.033 167.15 337.1C169.083 335.133 170.05 332.767 170.05 330C170.05 327.233 169.083 324.883 167.15 322.95C165.183 320.983 162.817 320 160.05 320H70.05C67.2834 320 64.9333 320.983 63 322.95ZM167.15 282.95C165.183 280.983 162.817 280 160.05 280H70.05C67.2834 280 64.9333 280.983 63 282.95C61.0333 284.883 60.05 287.233 60.05 290C60.05 292.767 61.0333 295.133 63 297.1C64.9333 299.033 67.2834 300 70.05 300H160.05C162.817 300 165.183 299.033 167.15 297.1C169.083 295.133 170.05 292.767 170.05 290C170.05 287.233 169.083 284.883 167.15 282.95ZM167.1 242.95C165.133 240.983 162.767 240 160 240H70C67.2333 240 64.8833 240.983 62.95 242.95C60.9833 244.883 60 247.233 60 250C60 252.767 60.9833 255.133 62.95 257.1C64.8833 259.033 67.2333 260 70 260H160C162.767 260 165.133 259.033 167.1 257.1C169.033 255.133 170 252.767 170 250C170 247.233 169.033 244.883 167.1 242.95Z" fill="black"/>
</svg>
