<svg width="100" height="100" viewBox="0 0 100 100" fill="none" xmlns="http://www.w3.org/2000/svg">
<path d="M100 100V0H0V100H100ZM50 24.8148C51.2247 24.8148 52.2716 25.2494 53.1407 26.1185C54.0049 26.9827 54.437 28.0272 54.437 29.2519V33.7037H63.3333C64.5531 33.7037 65.6 34.1358 66.4741 35L66.4815 35.0074C67.3457 35.8716 67.7778 36.9185 67.7778 38.1481V42.5852H79.6222C80.8519 42.5852 81.9012 43.0222 82.7704 43.8963C83.6346 44.7654 84.0667 45.8099 84.0667 47.0296L84.0741 64.8074C84.0741 66.037 83.642 67.0864 82.7778 67.9556H82.7704C81.8963 68.8198 80.8494 69.2519 79.6296 69.2519L75.9111 69.2444C74.7951 70.8938 73.3481 72.2494 71.5704 73.3111C69.4272 74.5852 67.1704 75.2099 64.8 75.1852C63.1457 75.1654 61.516 74.8222 59.9111 74.1556C58.3358 73.4988 56.9259 72.5827 55.6815 71.4074H55.6741C54.963 70.7407 54.3432 70.0247 53.8148 69.2593H20.3704C19.1407 69.2593 18.0938 68.8272 17.2296 67.963L17.2222 67.9556C16.358 67.0815 15.9259 66.0346 15.9259 64.8148L15.9185 47.037C15.9185 45.8074 16.3531 44.7605 17.2222 43.8963L17.2296 43.8889C18.0988 43.0198 19.1432 42.5852 20.363 42.5852H32.2222V38.1481C32.2222 36.9185 32.6568 35.8716 33.5259 35.0074C34.3901 34.1383 35.437 33.7037 36.6667 33.7037H45.5556V29.2519C45.5556 28.0272 45.9901 26.9827 46.8593 26.1185C47.7235 25.2494 48.7679 24.8148 49.9926 24.8148H50ZM57.4815 54.5259C56.5235 55.479 55.7852 56.5753 55.2667 57.8148H55.2593C54.716 59.0988 54.4444 60.4444 54.4444 61.8519C54.4444 63.2988 54.7407 64.6741 55.3333 65.9778C55.4815 66.2988 55.6444 66.6123 55.8222 66.9185C55.8667 66.9778 55.9062 67.042 55.9407 67.1111C56.4198 67.8864 57.0074 68.5975 57.7037 69.2444V69.2519C58.6914 70.1753 59.8074 70.8988 61.0519 71.4222C62.2914 71.9358 63.5506 72.2025 64.8296 72.2222H64.837C66.6593 72.237 68.3975 71.7506 70.0519 70.763C71.6123 69.8346 72.8469 68.6148 73.7556 67.1037C73.7654 67.084 73.7753 67.0642 73.7852 67.0444C73.8 67.0148 73.8173 66.9877 73.837 66.963L73.8444 66.9407C74.1506 66.4173 74.4173 65.8222 74.6444 65.1556C75.0049 64.0642 75.1852 62.963 75.1852 61.8519C75.1852 60.4444 74.9136 59.0988 74.3704 57.8148C74.2667 57.5679 74.1531 57.3259 74.0296 57.0889C73.5407 56.1407 72.9136 55.2864 72.1481 54.5259V54.5185C72.1432 54.5136 72.1383 54.5111 72.1333 54.5111C71.1802 53.558 70.0889 52.8222 68.8593 52.3037L68.8519 52.2963C67.563 51.7531 66.2173 51.4815 64.8148 51.4815C63.4074 51.4815 62.0617 51.7531 60.7778 52.2963V52.3037C59.5383 52.8222 58.442 53.5605 57.4889 54.5185L57.4815 54.5259ZM64.8074 54.437C66.8519 54.437 68.6 55.163 70.0519 56.6148C71.4938 58.0568 72.2148 59.8 72.2148 61.8444C72.2148 63.8938 71.4938 65.642 70.0519 67.0889C68.6049 68.5309 66.8568 69.2519 64.8074 69.2519C62.763 69.2519 61.0198 68.5309 59.5778 67.0889C58.1259 65.637 57.4 63.8889 57.4 61.8444C57.4 59.8 58.1259 58.0568 59.5778 56.6148C61.0198 55.163 62.763 54.437 64.8074 54.437ZM69.2519 61.8444C69.2519 60.6198 68.8198 59.5753 67.9556 58.7111C67.0815 57.837 66.0321 57.4 64.8074 57.4C63.5827 57.4 62.5383 57.8346 61.6741 58.7037L61.6667 58.7111C60.7975 59.5753 60.363 60.6198 60.363 61.8444C60.363 63.0691 60.8 64.1185 61.6741 64.9926C62.5383 65.8568 63.5827 66.2889 64.8074 66.2889C66.037 66.2889 67.0864 65.8568 67.9556 64.9926C68.8198 64.1235 69.2519 63.0741 69.2519 61.8444ZM59.6296 49.5704H59.6222C61.2716 48.8691 63.0025 48.5185 64.8148 48.5185C66.6222 48.5185 68.3531 48.8691 70.0074 49.5704C70.7531 49.8864 71.4617 50.2642 72.1333 50.7037C72.884 51.1975 73.5852 51.7728 74.237 52.4296H74.2444C75.4741 53.6593 76.4272 55.0716 77.1037 56.6667L77.0963 56.6593C77.1556 56.8025 77.2148 56.9457 77.2741 57.0889C77.8568 58.6099 78.1481 60.1975 78.1481 61.8519C78.1481 63.279 77.916 64.6914 77.4519 66.0889V66.0963C77.4272 66.1556 77.4049 66.2173 77.3852 66.2815L79.6296 66.2889C80.0395 66.284 80.3901 66.1407 80.6815 65.8593V65.8519C80.9679 65.5654 81.1111 65.2173 81.1111 64.8074L81.1037 47.0296C81.1037 46.6247 80.9605 46.279 80.6741 45.9926L80.6667 45.9852C80.3802 45.6938 80.0321 45.5482 79.6222 45.5482H20.363C19.958 45.5482 19.6123 45.6938 19.3259 45.9852L19.3185 45.9926C19.0272 46.279 18.8815 46.6272 18.8815 47.037L18.8889 64.8148C18.8889 65.2198 19.0346 65.5704 19.3259 65.8667C19.6123 66.1531 19.9605 66.2963 20.3704 66.2963H52.2667C51.7432 64.879 51.4815 63.3975 51.4815 61.8519C51.4815 60.0395 51.8321 58.3086 52.5333 56.6593V56.6667C53.2049 55.0716 54.158 53.6593 55.3926 52.4296C56.6222 51.1951 58.0346 50.242 59.6296 49.5704ZM22.2815 48.9556C22.5679 48.6642 22.916 48.5185 23.3259 48.5185H36.6593C37.0691 48.5185 37.4198 48.6642 37.7111 48.9556C37.9975 49.242 38.1407 49.5901 38.1407 50C38.1407 50.4099 37.9975 50.7605 37.7111 51.0519C37.4198 51.3383 37.0691 51.4815 36.6593 51.4815H23.3259C22.916 51.4815 22.5679 51.3383 22.2815 51.0519C21.9901 50.7605 21.8444 50.4099 21.8444 50C21.8444 49.5901 21.9901 49.242 22.2815 48.9556ZM22.2889 54.8815C22.5753 54.5901 22.9235 54.4444 23.3333 54.4444H36.6667C37.0765 54.4444 37.4272 54.5901 37.7185 54.8815C38.0049 55.1679 38.1481 55.516 38.1481 55.9259C38.1481 56.3358 38.0049 56.6864 37.7185 56.9778C37.4272 57.2642 37.0765 57.4074 36.6667 57.4074H23.3333C22.9235 57.4074 22.5753 57.2642 22.2889 56.9778C21.9975 56.6864 21.8519 56.3358 21.8519 55.9259C21.8519 55.516 21.9975 55.1679 22.2889 54.8815ZM37.7185 62.9037C37.4272 63.1901 37.0765 63.3333 36.6667 63.3333H23.3333C22.9235 63.3333 22.5753 63.1901 22.2889 62.9037C21.9975 62.6123 21.8519 62.2617 21.8519 61.8519C21.8519 61.442 21.9975 61.0938 22.2889 60.8074C22.5753 60.5161 22.9235 60.3704 23.3333 60.3704H36.6667C37.0765 60.3704 37.4272 60.5161 37.7185 60.8074C38.0049 61.0938 38.1481 61.442 38.1481 61.8519C38.1481 62.2617 38.0049 62.6123 37.7185 62.9037ZM64.3852 37.1037C64.0889 36.8123 63.7383 36.6667 63.3333 36.6667H36.6667C36.2568 36.6667 35.9086 36.8123 35.6222 37.1037C35.3309 37.3901 35.1852 37.7383 35.1852 38.1481V42.5852H64.8148V38.1481C64.8148 37.7383 64.6716 37.3901 64.3852 37.1037ZM48.9556 28.2148C48.6642 28.5012 48.5185 28.8469 48.5185 29.2519V33.7037H51.4741V29.2519C51.4741 28.8469 51.3309 28.5012 51.0444 28.2148C50.7531 27.9235 50.4049 27.7778 50 27.7778H49.9926C49.5877 27.7778 49.242 27.9235 48.9556 28.2148Z" fill="black"/>
</svg>
