<svg width="500" height="500" viewBox="0 0 500 500" fill="none" xmlns="http://www.w3.org/2000/svg">
<g clip-path="url(#clip0_80_19)">
<path d="M390 30C390 21.7667 387.083 14.7167 381.25 8.85C375.383 2.95 368.3 0 360 0L140 0.05C131.767 0.05 124.717 2.96667 118.85 8.8V8.85C112.95 14.6833 110 21.75 110 30.05L110.05 470.05C110.05 478.283 112.967 485.35 118.8 491.25L118.85 491.3C124.683 497.133 131.75 500.05 140.05 500.05L360.05 500C368.283 500 375.35 497.083 381.25 491.25H381.3C387.133 485.383 390.05 478.3 390.05 470L390 30ZM367.05 22.95L367.1 23C369.033 24.9333 370 27.2667 370 30L370.05 470C370.05 472.767 369.083 475.117 367.15 477.05V477.1C365.15 479.033 362.783 480 360.05 480L140.05 480.05C137.283 480.05 134.933 479.083 133 477.15C131.033 475.15 130.05 472.783 130.05 470.05L130 30.05C130 27.2833 130.983 24.9333 132.95 23H133C134.933 21.0333 137.267 20.05 140 20.05L360 20C362.767 20 365.117 20.9833 367.05 22.95ZM342.25 321.1H342.2C337.133 309.133 330 298.55 320.8 289.35C311.567 280.117 300.967 272.967 289 267.9C276.567 262.667 263.583 260.05 250.05 260.05C236.45 260.05 223.467 262.667 211.1 267.9C199.133 272.967 188.55 280.117 179.35 289.35C170.117 298.55 162.967 309.133 157.9 321.1C152.667 333.467 150.05 346.433 150.05 360C150.05 373.6 152.667 386.583 157.9 398.95C162.967 410.917 170.117 421.517 179.35 430.75C188.55 439.95 199.133 447.083 211.1 452.15V452.2C223.467 457.4 236.45 460 250.05 460C263.583 460 276.567 457.4 289 452.2V452.15C300.967 447.083 311.567 439.95 320.8 430.75C330 421.517 337.133 410.917 342.2 398.95H342.25C347.45 386.583 350.05 373.6 350.05 360C350.05 346.433 347.45 333.467 342.25 321.1ZM281.25 286.35L281.2 286.3C290.767 290.367 299.25 296.1 306.65 303.5C314.017 310.867 319.733 319.333 323.8 328.9C327.967 338.8 330.05 349.167 330.05 360C330.05 370.867 327.967 381.25 323.8 391.15C319.733 400.717 314.017 409.2 306.65 416.6C299.25 423.967 290.767 429.683 281.2 433.75H281.25C271.317 437.917 260.917 440 250.05 440C239.183 440 228.8 437.917 218.9 433.75C209.333 429.683 200.867 423.967 193.5 416.6C186.1 409.2 180.367 400.717 176.3 391.15H176.35C172.15 381.25 170.05 370.867 170.05 360C170.05 349.167 172.15 338.8 176.35 328.9H176.3C180.367 319.333 186.1 310.867 193.5 303.5C200.867 296.1 209.333 290.367 218.9 286.3V286.35C228.8 282.15 239.183 280.05 250.05 280.05C260.917 280.05 271.317 282.15 281.25 286.35ZM207.65 317.65C195.917 329.317 190.05 343.433 190.05 360C190.05 376.6 195.917 390.733 207.65 402.4V402.45C219.317 414.15 233.45 420 250.05 420C266.617 420 280.767 414.15 292.5 402.45H292.45C304.183 390.75 310.05 376.6 310.05 360C310.05 343.433 304.183 329.317 292.45 317.65H292.5C280.767 305.917 266.617 300.05 250.05 300.05C233.45 300.05 219.317 305.917 207.65 317.65ZM221.75 331.8L221.8 331.75C229.567 323.95 238.983 320.05 250.05 320.05C261.083 320.05 270.517 323.967 278.35 331.8C286.15 339.567 290.05 348.967 290.05 360C290.05 371.067 286.15 380.5 278.35 388.3C270.517 396.1 261.083 400 250.05 400C238.983 400 229.567 396.1 221.8 388.3H221.75C213.95 380.5 210.05 371.067 210.05 360C210.05 348.967 213.95 339.567 221.75 331.8ZM342.25 101.1H342.2C337.133 89.1333 330 78.55 320.8 69.35C311.567 60.1167 300.967 52.9667 289 47.9C276.567 42.6667 263.583 40.05 250.05 40.05C236.45 40.05 223.467 42.6667 211.1 47.9C199.133 52.9667 188.55 60.1167 179.35 69.35C170.117 78.55 162.967 89.1333 157.9 101.1C152.667 113.467 150.05 126.45 150.05 140.05C150.05 153.583 152.667 166.567 157.9 179C162.967 190.967 170.117 201.567 179.35 210.8C188.55 220 199.133 227.133 211.1 232.2V232.25C223.467 237.45 236.45 240.05 250.05 240.05C263.583 240.05 276.567 237.45 289 232.25V232.2C300.967 227.133 311.567 220 320.8 210.8C330 201.567 337.133 190.967 342.2 179H342.25C347.45 166.567 350.05 153.583 350.05 140.05C350.05 126.45 347.45 113.467 342.25 101.1ZM281.25 66.35L281.2 66.3C290.767 70.3667 299.25 76.1 306.65 83.5C314.017 90.8667 319.733 99.3333 323.8 108.9C327.967 118.8 330.05 129.183 330.05 140.05C330.05 150.917 327.967 161.317 323.8 171.25V171.2C319.733 180.767 314.017 189.25 306.65 196.65C299.25 204.017 290.767 209.733 281.2 213.8H281.25C271.317 217.967 260.917 220.05 250.05 220.05C239.183 220.05 228.8 217.967 218.9 213.8C209.333 209.733 200.867 204.017 193.5 196.65C186.1 189.25 180.367 180.767 176.3 171.2L176.35 171.25C172.15 161.317 170.05 150.917 170.05 140.05C170.05 129.183 172.15 118.8 176.35 108.9H176.3C180.367 99.3333 186.1 90.8667 193.5 83.5C200.867 76.1 209.333 70.3667 218.9 66.3V66.35C228.8 62.15 239.183 60.05 250.05 60.05C260.917 60.05 271.317 62.15 281.25 66.35ZM292.45 97.65H292.5C280.767 85.9167 266.617 80.05 250.05 80.05C233.45 80.05 219.317 85.9167 207.65 97.65C195.917 109.317 190.05 123.45 190.05 140.05C190.05 156.617 195.917 170.767 207.65 182.5V182.45C219.317 194.183 233.45 200.05 250.05 200.05C266.617 200.05 280.767 194.2 292.5 182.5C304.2 170.767 310.05 156.617 310.05 140.05C310.05 123.45 304.183 109.317 292.45 97.65ZM221.75 111.8L221.8 111.75C229.567 103.95 238.983 100.05 250.05 100.05C261.083 100.05 270.517 103.967 278.35 111.8C286.15 119.567 290.05 128.983 290.05 140.05C290.05 151.083 286.15 160.517 278.35 168.35C270.517 176.15 261.083 180.05 250.05 180.05C238.983 180.05 229.567 176.15 221.8 168.35C213.967 160.517 210.05 151.083 210.05 140.05C210.05 128.983 213.95 119.567 221.75 111.8Z" fill="black"/>
</g>
<defs>
<clipPath id="clip0_80_19">
<rect width="500" height="500" fill="white"/>
</clipPath>
</defs>
</svg>
