<svg width="100" height="100" viewBox="0 0 100 100" fill="none" xmlns="http://www.w3.org/2000/svg">
<path d="M69.3938 32.8925L32.7137 55.6425C32.3992 55.8365 32.1578 56.1294 32.0275 56.4752C31.8972 56.8211 31.8854 57.2004 31.9937 57.5538L36.9137 73.4075C36.937 73.4764 36.9828 73.5353 37.0437 73.5749C37.1047 73.6144 37.1772 73.6323 37.2495 73.6255C37.3218 73.6187 37.3898 73.5877 37.4422 73.5374C37.4947 73.4872 37.5287 73.4207 37.5387 73.3488L38.7337 62.7238C38.78 62.3128 38.9774 61.9337 39.2875 61.66L70.3488 34.1925C71.1013 33.53 70.2438 32.3688 69.3938 32.8925ZM0 0V100H100V0H0ZM83.3575 25.9838L71.94 80.5688C71.8165 81.1579 71.5471 81.7066 71.1567 82.1647C70.7662 82.6228 70.267 82.9757 69.7049 83.191C69.1428 83.4063 68.5356 83.4771 67.939 83.397C67.3424 83.3169 66.7755 83.0884 66.29 82.7325L49.0525 70.0788L40.2675 79.0538C39.9149 79.4154 39.4744 79.6794 38.9892 79.8198C38.504 79.9602 37.9906 79.9723 37.4993 79.8549C37.0081 79.7375 36.5556 79.4946 36.1863 79.15C35.8171 78.8054 35.5435 78.3708 35.3925 77.8888L29.0512 57.7638L12.0587 52.7463C9.82875 52.0875 9.69749 48.98 11.8637 48.135L78.7388 22.0763C79.3161 21.8508 79.9436 21.7855 80.5549 21.8873C81.1663 21.989 81.7388 22.254 82.212 22.6543C82.6851 23.0546 83.0413 23.5753 83.243 24.1614C83.4446 24.7474 83.4842 25.3771 83.3575 25.9838Z" fill="#010101"/>
</svg>
