<svg width="100" height="100" viewBox="0 0 100 100" fill="none" xmlns="http://www.w3.org/2000/svg">
<path d="M0 0V100H100V0H0ZM80.1663 55.4875C82.5788 57.9763 85.1663 60.305 87.4975 62.8625C89.2077 64.7242 90.7519 66.7319 92.1125 68.8625C93.815 71.55 92.7638 74.0812 89.5838 74.5312C87.5838 74.8137 77.8138 74.5312 77.3088 74.5312C74.6838 74.52 72.38 73.6088 70.525 71.825C68.4638 69.8388 66.5887 67.66 64.6087 65.5875C64.0157 64.9546 63.3737 64.3695 62.6888 63.8375C61.0638 62.6025 59.48 62.8762 58.7225 64.7787C58.0763 66.4125 57.5175 70.7038 57.4913 71.07C57.355 72.9863 56.1363 74.2075 53.9913 74.32C47.7938 74.6563 41.79 73.9662 36.195 70.9687C31.455 68.43 27.6688 64.8437 24.3888 60.6537C19.1775 54.0125 15.0688 46.705 11.3063 39.1812C11.1138 38.7962 7.30625 30.6988 7.20625 30.3163C6.8675 29.0363 7.18375 27.8163 8.26625 27.3913C8.94 27.1288 21.4863 27.3912 21.695 27.4025C23.695 27.51 25.0625 28.355 25.905 30.4325C28.3013 36.3512 31.3387 41.9325 35.3387 46.9413C35.885 47.6119 36.5269 48.1985 37.2438 48.6825C38.2725 49.3888 39.2438 49.1413 39.6613 47.9638C40.1038 46.7288 40.51 44.225 40.5363 42.9275C40.6025 39.5375 40.5263 37.3162 40.3438 33.9275C40.2263 31.76 39.455 29.8563 36.265 29.2813C35.28 29.1025 35.1888 28.2925 35.8213 27.4838C37.1388 25.8 38.975 25.5313 40.965 25.425C44.19 25.25 47.4275 25.3925 50.6575 25.425C51.979 25.4234 53.2972 25.5574 54.5913 25.825C56.2813 26.2 57.1863 27.3788 57.4663 29.0288C57.6137 29.8827 57.6798 30.7486 57.6638 31.615C57.58 35.315 57.4025 39.0137 57.36 42.7112C57.3271 44.1725 57.4609 45.6328 57.7588 47.0638C58.1925 49.035 59.5337 49.5288 60.9062 48.105C62.6475 46.2975 64.1838 44.2637 65.625 42.1975C68.25 38.4387 70.2 34.315 71.8838 30.0625C72.7588 27.8675 73.4213 27.3912 75.7813 27.385C80.2188 27.375 84.6558 27.375 89.0925 27.385C89.888 27.3724 90.6809 27.4786 91.445 27.7C92.65 28.0838 93.1288 29.0675 92.8463 30.315C92.1875 33.2375 90.6075 35.7225 88.9163 38.1113C86.2013 41.9438 83.3563 45.6838 80.5775 49.4713C80.2264 49.9571 79.9066 50.4648 79.62 50.9912C78.5788 52.8712 78.65 53.9238 80.1663 55.4875Z" fill="#010101"/>
</svg>
