<svg width="32" height="32" viewBox="0 0 32 32" fill="none" xmlns="http://www.w3.org/2000/svg">
    <rect width="32" height="32" fill="white"/>
    <path d="M27.4706 26C27.4706 25.9187 27.4417 25.8491 27.3838 25.7912C27.3268 25.7343 27.2577 25.7058 27.1765 25.7059C27.0952 25.7058 27.0256 25.7343 26.9676 25.7912C26.9107 25.8491 26.8823 25.9187 26.8824 26V30.7059C26.8823 30.7871 26.9107 30.8563 26.9676 30.9132C27.0256 30.9711 27.0952 31 27.1765 31C27.2577 31 27.3268 30.9711 27.3838 30.9132C27.4417 30.8563 27.4706 30.7871 27.4706 30.7059V26ZM28.6471 24.8235C28.6471 24.7423 28.6182 24.6727 28.5603 24.6147C28.5033 24.5578 28.4342 24.5294 28.3529 24.5294C28.2717 24.5294 28.2021 24.5578 28.1441 24.6147C28.0872 24.6727 28.0588 24.7423 28.0588 24.8235V29.5294C28.0588 29.6107 28.0872 29.6798 28.1441 29.7368C28.2021 29.7946 28.2717 29.8236 28.3529 29.8235C28.4342 29.8236 28.5033 29.7946 28.5603 29.7368C28.6182 29.6798 28.6471 29.6107 28.6471 29.5294V24.8235ZM29.8235 24.8235C29.8236 24.7423 29.7946 24.6727 29.7368 24.6147C29.6798 24.5578 29.6107 24.5294 29.5294 24.5294C29.4482 24.5294 29.3785 24.5578 29.3206 24.6147C29.2637 24.6727 29.2353 24.7423 29.2353 24.8235V30.1176C29.2353 30.1989 29.2637 30.268 29.3206 30.325C29.3785 30.3829 29.4482 30.4118 29.5294 30.4118C29.6107 30.4118 29.6798 30.3829 29.7368 30.325C29.7946 30.268 29.8236 30.1989 29.8235 30.1176V24.8235ZM11.0853 26.2074C11.1433 26.2652 11.2129 26.2942 11.2941 26.2941C11.375 26.2945 11.4441 26.3234 11.5015 26.3809C11.5592 26.4385 11.5881 26.5076 11.5882 26.5882C11.5883 26.6693 11.5599 26.7384 11.5029 26.7956H11.5015C11.444 26.8532 11.3749 26.8822 11.2941 26.8824H8.35294C8.27168 26.8823 8.20208 26.9107 8.14412 26.9676C8.08722 27.0256 8.05879 27.0952 8.05882 27.1765C8.05879 27.2577 8.08722 27.3268 8.14412 27.3838C8.20208 27.4417 8.27168 27.4706 8.35294 27.4706H11.2941C11.5365 27.4708 11.7443 27.385 11.9176 27.2132V27.2118C12.0901 27.0402 12.1764 26.8323 12.1765 26.5882C12.1766 26.3453 12.0903 26.1374 11.9176 25.9647C11.7447 25.7918 11.5368 25.7055 11.2941 25.7059C11.2129 25.7058 11.1433 25.7343 11.0853 25.7912C11.0284 25.8491 11 25.9187 11 26C11 26.0813 11.0284 26.1504 11.0853 26.2074ZM12.3324 25.5485H12.3338C12.6212 25.8357 12.7648 26.1823 12.7647 26.5882C12.7646 26.9943 12.6205 27.3408 12.3324 27.6279C12.0462 27.9152 11.7001 28.0588 11.2941 28.0588H1.88235C1.8011 28.0588 1.73149 28.0872 1.67353 28.1441C1.61663 28.2021 1.5882 28.2717 1.58824 28.3529C1.5882 28.4342 1.61663 28.5033 1.67353 28.5603C1.73149 28.6182 1.8011 28.6471 1.88235 28.6471H11.2941C11.8627 28.6471 12.3475 28.4461 12.7485 28.0441C13.1516 27.642 13.353 27.1567 13.3529 26.5882C13.3528 26.02 13.1514 25.5352 12.7485 25.1338V25.1324C12.3471 24.7305 11.8623 24.5295 11.2941 24.5294H10.7059C10.6246 24.5294 10.555 24.5578 10.4971 24.6147C10.4402 24.6727 10.4117 24.7423 10.4118 24.8235C10.4117 24.9048 10.4402 24.9739 10.4971 25.0309C10.555 25.0888 10.6246 25.1177 10.7059 25.1176H11.2941C11.7001 25.1175 12.0461 25.2612 12.3324 25.5485ZM17.5559 16.9676C17.499 17.0256 17.4706 17.0952 17.4706 17.1765V22.1765C17.4706 22.2577 17.499 22.3268 17.5559 22.3838C17.6138 22.4417 17.6834 22.4706 17.7647 22.4706C17.846 22.4706 17.9151 22.4417 17.9721 22.3838C18.0299 22.3268 18.0589 22.2577 18.0588 22.1765V17.1765C18.0589 17.0952 18.0299 17.0256 17.9721 16.9676C17.9151 16.9107 17.846 16.8823 17.7647 16.8824C17.6834 16.8823 17.6138 16.9107 17.5559 16.9676ZM16.7956 16.3794C16.7386 16.3225 16.6695 16.2941 16.5882 16.2941C16.507 16.2941 16.4374 16.3225 16.3794 16.3794C16.3225 16.4374 16.2941 16.507 16.2941 16.5882V21.8824C16.2941 23.0101 16.5554 23.8268 17.0779 24.3324C17.5845 24.8559 18.4016 25.1177 19.5294 25.1176H27.1765C27.2577 25.1177 27.3268 25.0888 27.3838 25.0309C27.4417 24.9739 27.4706 24.9048 27.4706 24.8235C27.4706 24.7423 27.4417 24.6727 27.3838 24.6147C27.3268 24.5578 27.2577 24.5294 27.1765 24.5294H19.5294C18.5982 24.5294 17.9198 24.325 17.4941 23.9162C17.0863 23.4915 16.8824 22.8135 16.8824 21.8824V16.5882C16.8824 16.507 16.8535 16.4374 16.7956 16.3794ZM4.61471 22.6779C4.67266 22.7358 4.74227 22.7647 4.82353 22.7647H11.2941C11.8121 22.7645 12.3081 22.8645 12.7824 23.0647C13.2394 23.2586 13.6443 23.5316 13.9971 23.8838H13.9985C14.3507 24.2376 14.6238 24.643 14.8176 25.1C15.0178 25.5733 15.1178 26.0694 15.1176 26.5882C15.1178 27.1071 15.0178 27.6032 14.8176 28.0765C14.6236 28.5344 14.3501 28.9393 13.9971 29.2912C13.6443 29.6451 13.2394 29.9186 12.7824 30.1118C12.309 30.3119 11.813 30.4119 11.2941 30.4118H1.29412C1.21286 30.4117 1.14325 30.4402 1.08529 30.4971C1.02839 30.555 0.999962 30.6246 1 30.7059C0.999962 30.7871 1.02839 30.8563 1.08529 30.9132C1.14325 30.9711 1.21286 31 1.29412 31H11.2941C11.8929 30.9998 12.4655 30.8841 13.0118 30.6529C13.539 30.4304 14.0062 30.1152 14.4132 29.7074C14.82 29.3013 15.1352 28.8342 15.3588 28.3059C15.59 27.7596 15.7057 27.1871 15.7059 26.5882C15.7057 25.9894 15.59 25.4169 15.3588 24.8706C15.1352 24.3436 14.82 23.8764 14.4132 23.4691V23.4676C14.0059 23.0619 13.5388 22.7472 13.0118 22.5235C12.4644 22.2923 11.8919 22.1766 11.2941 22.1765H4.82353C4.74227 22.1764 4.67266 22.2049 4.61471 22.2618C4.55781 22.3197 4.52937 22.3893 4.52941 22.4706C4.52937 22.5518 4.55781 22.621 4.61471 22.6779ZM5.20294 19.3221H5.20441C5.26157 19.2643 5.33069 19.2354 5.41176 19.2353H14.8235C14.9048 19.2353 14.9739 19.2064 15.0309 19.1485C15.0888 19.0916 15.1177 19.0224 15.1176 18.9412C15.1177 18.8599 15.0888 18.7903 15.0309 18.7324C14.9739 18.6755 14.9048 18.647 14.8235 18.6471H5.41176C5.1677 18.6469 4.95937 18.7332 4.78676 18.9059V18.9074C4.61508 19.0795 4.52929 19.2868 4.52941 19.5294V21.2941C4.52937 21.3754 4.55781 21.4445 4.61471 21.5015C4.67266 21.5594 4.74227 21.5883 4.82353 21.5882C4.90479 21.5883 4.9739 21.5594 5.03088 21.5015C5.08876 21.4445 5.11769 21.3754 5.11765 21.2941V19.5294C5.11777 19.4488 5.1462 19.3797 5.20294 19.3221ZM4.61471 17.9721C4.67266 18.0299 4.74227 18.0589 4.82353 18.0588H14.2353C14.3166 18.0589 14.3857 18.0299 14.4426 17.9721C14.5005 17.9151 14.5295 17.846 14.5294 17.7647C14.5295 17.6834 14.5005 17.6138 14.4426 17.5559C14.3857 17.499 14.3166 17.4706 14.2353 17.4706H4.82353C4.74227 17.4706 4.67266 17.499 4.61471 17.5559C4.55781 17.6138 4.52937 17.6834 4.52941 17.7647C4.52937 17.846 4.55781 17.9151 4.61471 17.9721ZM3.64706 17.4706C3.5658 17.4706 3.49619 17.499 3.43824 17.5559C3.38133 17.6138 3.3529 17.6834 3.35294 17.7647V22.4706C3.3529 22.5518 3.38133 22.621 3.43824 22.6779C3.49619 22.7358 3.5658 22.7647 3.64706 22.7647C3.72832 22.7647 3.79743 22.7358 3.85441 22.6779C3.91229 22.621 3.94122 22.5518 3.94118 22.4706V17.7647C3.94122 17.6834 3.91229 17.6138 3.85441 17.5559C3.79743 17.499 3.72832 17.4706 3.64706 17.4706ZM2.47059 18.0588C2.38933 18.0588 2.31972 18.0872 2.26176 18.1441C2.20486 18.2021 2.17643 18.2717 2.17647 18.3529V22.9118C2.17664 23.1972 2.27664 23.4398 2.47647 23.6397C2.67736 23.8405 2.92049 23.941 3.20588 23.9412H11.2941C11.6531 23.941 11.9963 24.0101 12.3235 24.1485C12.6404 24.2828 12.9208 24.472 13.1647 24.7162C13.4098 24.9611 13.5995 25.242 13.7338 25.5588C13.8722 25.8861 13.9413 26.2292 13.9412 26.5882C13.9411 26.9473 13.8715 27.2909 13.7324 27.6191H13.7338C13.5997 27.9359 13.4105 28.2158 13.1662 28.4588H13.1647C12.9208 28.704 12.6404 28.8937 12.3235 29.0279C11.9963 29.1663 11.6531 29.2355 11.2941 29.2353H2.47059C2.38933 29.2353 2.31972 29.2637 2.26176 29.3206C2.20486 29.3785 2.17643 29.4482 2.17647 29.5294C2.17643 29.6107 2.20486 29.6798 2.26176 29.7368C2.31972 29.7946 2.38933 29.8236 2.47059 29.8235H11.2941C11.7331 29.8234 12.1527 29.7386 12.5529 29.5691C12.94 29.4054 13.2827 29.174 13.5809 28.875C13.8797 28.5778 14.111 28.2357 14.275 27.8485C14.4447 27.4473 14.5295 27.0272 14.5294 26.5882C14.5292 26.1492 14.4444 25.7296 14.275 25.3294C14.1112 24.9423 13.8799 24.5992 13.5809 24.3C13.2827 24.002 12.94 23.7711 12.5529 23.6074C12.1527 23.4379 11.7331 23.3531 11.2941 23.3529H3.20588C3.08343 23.3531 2.97902 23.31 2.89265 23.2235C2.80718 23.1381 2.76453 23.0342 2.76471 22.9118V18.3529C2.76474 18.2717 2.73582 18.2021 2.67794 18.1441C2.62096 18.0872 2.55185 18.0588 2.47059 18.0588ZM1.34412 16.6382V16.6397C1.11456 16.8697 0.999858 17.1466 1 17.4706V23.9412C0.999969 24.2666 1.11468 24.544 1.34412 24.7735C1.57347 25.0028 1.85092 25.1175 2.17647 25.1176H9.52941C9.61067 25.1177 9.67979 25.0888 9.73676 25.0309C9.79465 24.9739 9.82357 24.9048 9.82353 24.8235C9.82357 24.7423 9.79465 24.6727 9.73676 24.6147C9.67979 24.5578 9.61067 24.5294 9.52941 24.5294H2.17647C2.01378 24.5295 1.87506 24.4722 1.76029 24.3574C1.64562 24.2428 1.58827 24.104 1.58824 23.9412V17.4706C1.58838 17.3086 1.64573 17.1699 1.76029 17.0544H1.76176C1.87584 16.9396 2.01407 16.8823 2.17647 16.8824H15.4118C15.493 16.8824 15.5621 16.8535 15.6191 16.7956C15.677 16.7386 15.7059 16.6695 15.7059 16.5882C15.7059 16.507 15.677 16.4374 15.6191 16.3794C15.5621 16.3225 15.493 16.2941 15.4118 16.2941H2.17647C1.85097 16.2942 1.57352 16.4089 1.34412 16.6382ZM7.75882 10.5147C8.21806 10.3514 8.66757 10.3739 9.10735 10.5824H9.10882C9.29217 10.6686 9.45541 10.7838 9.59853 10.9279L9.6 10.9294C9.74447 11.073 9.86016 11.2367 9.94706 11.4206C9.98261 11.4937 10.0385 11.5437 10.1147 11.5706C10.1908 11.5983 10.2654 11.5944 10.3382 11.5588C10.4122 11.5243 10.4627 11.4689 10.4897 11.3926C10.5174 11.3164 10.5135 11.2414 10.4779 11.1676C10.3622 10.9227 10.2083 10.7046 10.0162 10.5132C10.0157 10.5127 10.0152 10.5123 10.0147 10.5118C9.82289 10.3193 9.60426 10.1654 9.35882 10.05C8.77213 9.77217 8.17262 9.74227 7.56029 9.96029H7.56176C7.27153 10.0638 7.01271 10.2168 6.78529 10.4191C6.54889 10.6302 6.36212 10.8797 6.225 11.1676C6.19047 11.2414 6.18655 11.3164 6.21324 11.3926C6.24119 11.4689 6.29168 11.5243 6.36471 11.5588C6.43857 11.5944 6.51357 11.5983 6.58971 11.5706C6.66592 11.5437 6.72131 11.4937 6.75588 11.4206C6.85895 11.2046 6.99915 11.0173 7.17647 10.8588C7.34709 10.7073 7.54121 10.5926 7.75882 10.5147ZM2.47059 10.4118C2.38933 10.4117 2.31972 10.4402 2.26176 10.4971C2.20486 10.555 2.17643 10.6246 2.17647 10.7059V12.3235C2.17664 12.933 2.39184 13.4526 2.82206 13.8824H2.82353C3.25329 14.3136 3.7729 14.5292 4.38235 14.5294C4.99102 14.5295 5.51062 14.3138 5.94118 13.8824C6.37263 13.4518 6.58832 12.9322 6.58824 12.3235C6.58827 12.2423 6.55935 12.1727 6.50147 12.1147C6.44449 12.0578 6.37538 12.0294 6.29412 12.0294C6.21286 12.0294 6.14325 12.0578 6.08529 12.1147C6.02839 12.1727 5.99996 12.2423 6 12.3235C5.99992 12.7698 5.84158 13.1507 5.525 13.4662C5.20947 13.7828 4.82859 13.9411 4.38235 13.9412C3.93528 13.9413 3.55391 13.7835 3.23824 13.4676V13.4662C2.92239 13.1515 2.76455 12.7706 2.76471 12.3235V10.7059C2.76474 10.6246 2.73582 10.555 2.67794 10.4971C2.62096 10.4402 2.55185 10.4117 2.47059 10.4118ZM3.64706 8.05882C3.5658 8.05879 3.49619 8.08722 3.43824 8.14412C3.38133 8.20208 3.3529 8.27168 3.35294 8.35294V11.2941C3.3529 11.3754 3.38133 11.4445 3.43824 11.5015C3.49619 11.5594 3.5658 11.5883 3.64706 11.5882C3.72832 11.5883 3.79743 11.5594 3.85441 11.5015C3.91229 11.4445 3.94122 11.3754 3.94118 11.2941V8.35294C3.94122 8.27168 3.91229 8.20208 3.85441 8.14412C3.79743 8.08722 3.72832 8.05879 3.64706 8.05882ZM2.47059 1.58824C2.38933 1.5882 2.31972 1.61663 2.26176 1.67353C2.20486 1.73149 2.17643 1.8011 2.17647 1.88235V9.52941C2.17643 9.61067 2.20486 9.67979 2.26176 9.73676C2.31972 9.79465 2.38933 9.82357 2.47059 9.82353C2.55185 9.82357 2.62096 9.79465 2.67794 9.73676C2.73582 9.67979 2.76474 9.61067 2.76471 9.52941V1.88235C2.76474 1.8011 2.73582 1.73149 2.67794 1.67353C2.62096 1.61663 2.55185 1.5882 2.47059 1.58824ZM3.64706 2.76471C3.5658 2.76467 3.49619 2.7931 3.43824 2.85C3.38133 2.90796 3.3529 2.97757 3.35294 3.05882V7.17647C3.3529 7.25773 3.38133 7.32685 3.43824 7.38382C3.49619 7.44171 3.5658 7.47063 3.64706 7.47059C3.72832 7.47063 3.79743 7.44171 3.85441 7.38382C3.91229 7.32685 3.94122 7.25773 3.94118 7.17647V3.05882C3.94122 2.97757 3.91229 2.90796 3.85441 2.85C3.79743 2.7931 3.72832 2.76467 3.64706 2.76471ZM4.82353 1C4.74227 0.999962 4.67266 1.02839 4.61471 1.08529C4.55781 1.14325 4.52937 1.21286 4.52941 1.29412V9.52941C4.52937 9.61067 4.55781 9.67979 4.61471 9.73676C4.67266 9.79465 4.74227 9.82357 4.82353 9.82353C4.90479 9.82357 4.9739 9.79465 5.03088 9.73676C5.08876 9.67979 5.11769 9.61067 5.11765 9.52941V1.29412C5.11769 1.21286 5.08876 1.14325 5.03088 1.08529C4.9739 1.02839 4.90479 0.999962 4.82353 1ZM19.1485 10.2029C19.0916 10.146 19.0224 10.1176 18.9412 10.1176C18.8599 10.1176 18.7903 10.146 18.7324 10.2029C18.6755 10.2609 18.647 10.3305 18.6471 10.4118V14.8235C18.647 14.9048 18.6755 14.9739 18.7324 15.0309C18.7903 15.0888 18.8599 15.1177 18.9412 15.1176C19.0224 15.1177 19.0916 15.0888 19.1485 15.0309C19.2064 14.9739 19.2353 14.9048 19.2353 14.8235V10.4118C19.2353 10.3305 19.2064 10.2609 19.1485 10.2029ZM17.9721 7.85C17.9151 7.7931 17.846 7.76467 17.7647 7.76471C17.6834 7.76467 17.6138 7.7931 17.5559 7.85C17.499 7.90796 17.4706 7.97757 17.4706 8.05882V13.6471C17.4706 13.7283 17.499 13.7974 17.5559 13.8544C17.6138 13.9123 17.6834 13.9412 17.7647 13.9412C17.846 13.9412 17.9151 13.9123 17.9721 13.8544C18.0299 13.7974 18.0589 13.7283 18.0588 13.6471V8.05882C18.0589 7.97757 18.0299 7.90796 17.9721 7.85ZM10.7059 12.3235C10.7059 12.2423 10.677 12.1727 10.6191 12.1147C10.5621 12.0578 10.493 12.0294 10.4118 12.0294C10.3305 12.0294 10.2609 12.0578 10.2029 12.1147C10.146 12.1727 10.1176 12.2423 10.1176 12.3235C10.1178 12.933 10.333 13.4526 10.7632 13.8824H10.7647C11.1945 14.3136 11.7141 14.5292 12.3235 14.5294C12.9322 14.5295 13.4518 14.3138 13.8824 13.8824C14.3138 13.4518 14.5295 12.9322 14.5294 12.3235V10.7059C14.5295 10.6246 14.5005 10.555 14.4426 10.4971C14.3857 10.4402 14.3166 10.4117 14.2353 10.4118C14.154 10.4117 14.0844 10.4402 14.0265 10.4971C13.9696 10.555 13.9411 10.6246 13.9412 10.7059V12.3235C13.9411 12.7698 13.7828 13.1507 13.4662 13.4662C13.1507 13.7828 12.7698 13.9411 12.3235 13.9412C11.8765 13.9413 11.4951 13.7835 11.1794 13.4676V13.4662C10.8636 13.1515 10.7057 12.7706 10.7059 12.3235ZM10.8485 9.67941C10.5226 9.35497 10.1486 9.1035 9.72647 8.925C9.29001 8.73986 8.83217 8.64721 8.35294 8.64706C7.87376 8.64722 7.41542 8.73987 6.97794 8.925C6.55685 9.10352 6.18332 9.35499 5.85735 9.67941H5.85588V9.68088C5.53144 10.0068 5.27997 10.3808 5.10147 10.8029C4.91633 11.2394 4.82368 11.6972 4.82353 12.1765V12.3235C4.8237 12.4456 4.78105 12.5496 4.69559 12.6353H4.69412C4.60804 12.7215 4.50412 12.7646 4.38235 12.7647C4.2599 12.7649 4.15549 12.7217 4.06912 12.6353C3.98365 12.5499 3.941 12.446 3.94118 12.3235C3.94122 12.2423 3.91229 12.1727 3.85441 12.1147C3.79743 12.0578 3.72832 12.0294 3.64706 12.0294C3.5658 12.0294 3.49619 12.0578 3.43824 12.1147C3.38133 12.1727 3.3529 12.2423 3.35294 12.3235C3.35311 12.6089 3.45311 12.8516 3.65294 13.0515C3.85383 13.2523 4.09696 13.3528 4.38235 13.3529C4.66613 13.353 4.90877 13.253 5.11029 13.0529V13.0515C5.3111 12.8516 5.41159 12.6089 5.41176 12.3235V12.1765C5.41162 11.7773 5.48858 11.3959 5.64265 11.0324C5.79146 10.6803 6.00127 10.368 6.27206 10.0956C6.54444 9.82478 6.8562 9.61498 7.20735 9.46618C7.57183 9.31209 7.9537 9.23513 8.35294 9.23529C8.75213 9.23514 9.13351 9.31211 9.49706 9.46618C9.84913 9.61499 10.1609 9.8248 10.4324 10.0956H10.4338C10.7046 10.368 10.9144 10.6803 11.0632 11.0324C11.2173 11.3959 11.2943 11.7773 11.2941 12.1765V12.3235C11.2943 12.6089 11.3943 12.8516 11.5941 13.0515C11.795 13.2523 12.0381 13.3528 12.3235 13.3529C12.6073 13.353 12.85 13.253 13.0515 13.0529V13.0515C13.2523 12.8516 13.3528 12.6089 13.3529 12.3235C13.353 12.2423 13.3241 12.1727 13.2662 12.1147C13.2092 12.0578 13.1401 12.0294 13.0588 12.0294C12.9776 12.0294 12.908 12.0578 12.85 12.1147C12.7931 12.1727 12.7647 12.2423 12.7647 12.3235C12.7649 12.4456 12.7222 12.5496 12.6368 12.6353H12.6353C12.5492 12.7215 12.4453 12.7646 12.3235 12.7647C12.2011 12.7649 12.0967 12.7217 12.0103 12.6353C11.9248 12.5499 11.8822 12.446 11.8824 12.3235V12.1765C11.8822 11.6972 11.7896 11.2394 11.6044 10.8029C11.4259 10.3808 11.174 10.0068 10.8485 9.68088V9.67941ZM13.2662 8.14412C13.2092 8.08722 13.1401 8.05879 13.0588 8.05882C12.9776 8.05879 12.908 8.08722 12.85 8.14412C12.7931 8.20208 12.7647 8.27168 12.7647 8.35294V11.2941C12.7647 11.3754 12.7931 11.4445 12.85 11.5015C12.908 11.5594 12.9776 11.5883 13.0588 11.5882C13.1401 11.5883 13.2092 11.5594 13.2662 11.5015C13.3241 11.4445 13.353 11.3754 13.3529 11.2941V8.35294C13.353 8.27168 13.3241 8.20208 13.2662 8.14412ZM12.0897 1.08529C12.0327 1.02839 11.9636 0.999962 11.8824 1C11.8011 0.999962 11.7315 1.02839 11.6735 1.08529C11.6166 1.14325 11.5882 1.21286 11.5882 1.29412V9.52941C11.5882 9.61067 11.6166 9.67979 11.6735 9.73676C11.7315 9.79465 11.8011 9.82357 11.8824 9.82353C11.9636 9.82357 12.0327 9.79465 12.0897 9.73676C12.1476 9.67979 12.1765 9.61067 12.1765 9.52941V1.29412C12.1765 1.21286 12.1476 1.14325 12.0897 1.08529ZM13.2662 2.85C13.2092 2.7931 13.1401 2.76467 13.0588 2.76471C12.9776 2.76467 12.908 2.7931 12.85 2.85C12.7931 2.90796 12.7647 2.97757 12.7647 3.05882V7.17647C12.7647 7.25773 12.7931 7.32685 12.85 7.38382C12.908 7.44171 12.9776 7.47063 13.0588 7.47059C13.1401 7.47063 13.2092 7.44171 13.2662 7.38382C13.3241 7.32685 13.353 7.25773 13.3529 7.17647V3.05882C13.353 2.97757 13.3241 2.90796 13.2662 2.85ZM14.4426 1.67353C14.3857 1.61663 14.3166 1.5882 14.2353 1.58824C14.154 1.5882 14.0844 1.61663 14.0265 1.67353C13.9696 1.73149 13.9411 1.8011 13.9412 1.88235V9.52941C13.9411 9.61067 13.9696 9.67979 14.0265 9.73676C14.0844 9.79465 14.154 9.82357 14.2353 9.82353C14.3166 9.82357 14.3857 9.79465 14.4426 9.73676C14.5005 9.67979 14.5295 9.61067 14.5294 9.52941V1.88235C14.5295 1.8011 14.5005 1.73149 14.4426 1.67353ZM15.6191 1.08529C15.5621 1.02839 15.493 0.999962 15.4118 1C15.3305 0.999962 15.2609 1.02839 15.2029 1.08529C15.146 1.14325 15.1176 1.21286 15.1176 1.29412V12.3235C15.1176 12.7023 15.044 13.065 14.8971 13.4118L14.8985 13.4103C14.7565 13.7449 14.5565 14.0414 14.2985 14.3V14.2985C14.0411 14.5571 13.745 14.7566 13.4103 14.8971V14.8985C13.0645 15.0448 12.7022 15.1178 12.3235 15.1176C11.9449 15.1178 11.5826 15.0448 11.2368 14.8985L11.2353 14.8971C10.9016 14.7566 10.6055 14.5571 10.3471 14.2985C10.0892 14.0409 9.88971 13.7453 9.74853 13.4118C9.60252 13.065 9.52948 12.7023 9.52941 12.3235V12.1765C9.52955 11.8522 9.41436 11.5747 9.18382 11.3441C8.95419 11.1146 8.67723 10.9999 8.35294 11C8.02744 11.0001 7.74999 11.1148 7.52059 11.3441V11.3456C7.29103 11.5756 7.17633 11.8525 7.17647 12.1765V12.3235C7.1764 12.7023 7.10287 13.065 6.95588 13.4118L6.95735 13.4103C6.81534 13.7449 6.61534 14.0414 6.35735 14.3V14.2985C6.09991 14.5571 5.80383 14.7566 5.46912 14.8971V14.8985C5.12328 15.0448 4.76102 15.1178 4.38235 15.1176C4.00368 15.1178 3.64143 15.0448 3.29559 14.8985L3.29412 14.8971C2.96038 14.7566 2.6643 14.5571 2.40588 14.2985C2.14804 14.0409 1.94853 13.7453 1.80735 13.4118C1.66134 13.065 1.5883 12.7023 1.58824 12.3235V1.29412C1.58827 1.21286 1.55935 1.14325 1.50147 1.08529C1.44449 1.02839 1.37538 0.999962 1.29412 1C1.21286 0.999962 1.14325 1.02839 1.08529 1.08529C1.02839 1.14325 0.999962 1.21286 1 1.29412V12.3235C0.999931 12.7821 1.08817 13.2213 1.26471 13.6412H1.26618C1.43675 14.0449 1.67793 14.4027 1.98971 14.7147C2.30286 15.0277 2.66168 15.2694 3.06618 15.4397C3.48504 15.617 3.92377 15.7057 4.38235 15.7059C4.84094 15.7057 5.27966 15.617 5.69853 15.4397H5.69706C6.10254 15.2694 6.46136 15.0277 6.77353 14.7147C7.08516 14.4027 7.32682 14.0448 7.49853 13.6412C7.67605 13.2213 7.76477 12.7821 7.76471 12.3235V12.1765C7.76485 12.0145 7.8222 11.8758 7.93676 11.7603H7.93824C8.05231 11.6455 8.19054 11.5881 8.35294 11.5882C8.51492 11.5884 8.65316 11.6457 8.76765 11.7603C8.88319 11.8758 8.94103 12.0145 8.94118 12.1765V12.3235C8.94111 12.7821 9.02934 13.2213 9.20588 13.6412H9.20735C9.37793 14.0449 9.61911 14.4027 9.93088 14.7147C10.244 15.0277 10.6029 15.2694 11.0074 15.4397C11.4262 15.617 11.8649 15.7057 12.3235 15.7059C12.7821 15.7057 13.2208 15.617 13.6397 15.4397H13.6382C14.0437 15.2694 14.4025 15.0277 14.7147 14.7147C15.0263 14.4027 15.268 14.0448 15.4397 13.6412C15.6172 13.2213 15.706 12.7821 15.7059 12.3235V1.29412C15.7059 1.21286 15.677 1.14325 15.6191 1.08529ZM17.9721 2.26176C17.9151 2.20486 17.846 2.17643 17.7647 2.17647C17.6834 2.17643 17.6138 2.20486 17.5559 2.26176C17.499 2.31972 17.4706 2.38933 17.4706 2.47059V6.88235C17.4706 6.96361 17.499 7.03273 17.5559 7.08971C17.6138 7.14759 17.6834 7.17651 17.7647 7.17647C17.846 7.17651 17.9151 7.14759 17.9721 7.08971C18.0299 7.03273 18.0589 6.96361 18.0588 6.88235V2.47059C18.0589 2.38933 18.0299 2.31972 17.9721 2.26176ZM29.8235 23.6471C29.8236 23.5658 29.7946 23.4962 29.7368 23.4382C29.6798 23.3813 29.6107 23.3529 29.5294 23.3529H18.9412C18.8599 23.3529 18.7903 23.3813 18.7324 23.4382C18.6755 23.4962 18.647 23.5658 18.6471 23.6471C18.647 23.7283 18.6755 23.7974 18.7324 23.8544C18.7903 23.9123 18.8599 23.9412 18.9412 23.9412H29.5294C29.6107 23.9412 29.6798 23.9123 29.7368 23.8544C29.7946 23.7974 29.8236 23.7283 29.8235 23.6471ZM31 16.5882C31 16.507 30.9711 16.4374 30.9132 16.3794C30.8563 16.3225 30.7871 16.2941 30.7059 16.2941C30.6246 16.2941 30.555 16.3225 30.4971 16.3794C30.4402 16.4374 30.4117 16.507 30.4118 16.5882V30.7059C30.4117 30.7871 30.4402 30.8563 30.4971 30.9132C30.555 30.9711 30.6246 31 30.7059 31C30.7871 31 30.8563 30.9711 30.9132 30.9132C30.9711 30.8563 31 30.7871 31 30.7059V16.5882ZM20.325 16.3794C20.268 16.3225 20.1989 16.2941 20.1176 16.2941C20.0364 16.2941 19.9668 16.3225 19.9088 16.3794C19.8519 16.4374 19.8235 16.507 19.8235 16.5882V21.2941C19.8235 21.3754 19.8519 21.4445 19.9088 21.5015C19.9668 21.5594 20.0364 21.5883 20.1176 21.5882C20.1989 21.5883 20.268 21.5594 20.325 21.5015C20.3829 21.4445 20.4118 21.3754 20.4118 21.2941V16.5882C20.4118 16.507 20.3829 16.4374 20.325 16.3794ZM28.1441 17.5559C28.0872 17.6138 28.0588 17.6834 28.0588 17.7647V21.5882C28.0588 21.7507 28.0014 21.8895 27.8868 22.0044H27.8853C27.7707 22.119 27.6325 22.1764 27.4706 22.1765H19.5294C19.448 22.1765 19.3784 22.1476 19.3206 22.0897C19.2637 22.0329 19.2352 21.9637 19.2353 21.8824V17.7647C19.2353 17.6834 19.2064 17.6138 19.1485 17.5559C19.0916 17.499 19.0224 17.4706 18.9412 17.4706C18.8599 17.4706 18.7903 17.499 18.7324 17.5559C18.6755 17.6138 18.647 17.6834 18.6471 17.7647V21.8824C18.6471 22.1265 18.7329 22.3343 18.9044 22.5059C19.077 22.6784 19.2853 22.7646 19.5294 22.7647H27.4706C27.7946 22.7648 28.0715 22.6506 28.3015 22.4221V22.4206C28.5319 22.1911 28.6471 21.9136 28.6471 21.5882V17.7647C28.6471 17.6834 28.6182 17.6138 28.5603 17.5559C28.5033 17.499 28.4342 17.4706 28.3529 17.4706C28.2717 17.4706 28.2021 17.499 28.1441 17.5559ZM29.5294 16.8824C29.4482 16.8823 29.3785 16.9107 29.3206 16.9676C29.2637 17.0256 29.2353 17.0952 29.2353 17.1765V22.4706C29.2353 22.5518 29.2637 22.621 29.3206 22.6779C29.3785 22.7358 29.4482 22.7647 29.5294 22.7647C29.6107 22.7647 29.6798 22.7358 29.7368 22.6779C29.7946 22.621 29.8236 22.5518 29.8235 22.4706V17.1765C29.8236 17.0952 29.7946 17.0256 29.7368 16.9676C29.6798 16.9107 29.6107 16.8823 29.5294 16.8824ZM26.9676 16.3794C26.9107 16.4374 26.8823 16.507 26.8824 16.5882V21.2941C26.8823 21.3754 26.9107 21.4445 26.9676 21.5015C27.0256 21.5594 27.0952 21.5883 27.1765 21.5882C27.2577 21.5883 27.3268 21.5594 27.3838 21.5015C27.4417 21.4445 27.4706 21.3754 27.4706 21.2941V16.5882C27.4706 16.507 27.4417 16.4374 27.3838 16.3794C27.3268 16.3225 27.2577 16.2941 27.1765 16.2941C27.0952 16.2941 27.0256 16.3225 26.9676 16.3794ZM26.8662 5.13382V5.13235C26.4648 4.7305 25.98 4.52952 25.4118 4.52941H21.8824C21.8011 4.52937 21.7315 4.5578 21.6735 4.61471C21.6166 4.67266 21.5882 4.74227 21.5882 4.82353C21.5882 4.90479 21.6166 4.9739 21.6735 5.03088C21.7315 5.08876 21.8011 5.11769 21.8824 5.11765H25.4118C25.8177 5.11754 26.1638 5.26117 26.45 5.54853H26.4515C26.7388 5.83572 26.8825 6.18229 26.8824 6.58824C26.8823 6.99428 26.7382 7.34085 26.45 7.62794C26.1638 7.9152 25.8177 8.05882 25.4118 8.05882H22.4706C22.3893 8.05879 22.3197 8.08722 22.2618 8.14412C22.2049 8.20208 22.1764 8.27168 22.1765 8.35294C22.1764 8.4342 22.2049 8.50332 22.2618 8.56029C22.3197 8.61818 22.3893 8.6471 22.4706 8.64706H25.4118C25.9803 8.64706 26.4651 8.44608 26.8662 8.04412C27.2692 7.642 27.4707 7.1567 27.4706 6.58824C27.4705 6.02001 27.269 5.53521 26.8662 5.13382ZM26.6706 3.60735C26.2704 3.43792 25.8508 3.35311 25.4118 3.35294H21C20.6745 3.35304 20.3971 3.46775 20.1676 3.69706V3.69853C19.9381 3.9285 19.8234 4.20546 19.8235 4.52941V15.4118C19.8235 15.493 19.8519 15.5621 19.9088 15.6191C19.9668 15.677 20.0364 15.7059 20.1176 15.7059C20.1989 15.7059 20.268 15.677 20.325 15.6191C20.3829 15.5621 20.4118 15.493 20.4118 15.4118V4.52941C20.4119 4.36743 20.4693 4.2287 20.5838 4.11324H20.5853C20.6994 3.99843 20.8376 3.94108 21 3.94118H25.4118C25.7708 3.941 26.1139 4.01012 26.4412 4.14853C26.758 4.28281 27.0384 4.47202 27.2824 4.71618C27.5275 4.96111 27.7172 5.24199 27.8515 5.55882C27.9899 5.88608 28.059 6.22921 28.0588 6.58824C28.0588 6.94731 27.9892 7.29094 27.85 7.61912H27.8515C27.7174 7.93587 27.5282 8.21577 27.2838 8.45882H27.2824C27.0384 8.70396 26.758 8.89366 26.4412 9.02794C26.1139 9.16635 25.7708 9.23547 25.4118 9.23529H21.2941C21.2129 9.23526 21.1433 9.26369 21.0853 9.32059C21.0284 9.37855 21 9.44815 21 9.52941C21 9.61067 21.0284 9.67979 21.0853 9.73676C21.1433 9.79465 21.2129 9.82357 21.2941 9.82353H25.4118C25.8508 9.82336 26.2704 9.73855 26.6706 9.56912C27.0577 9.40536 27.4003 9.17399 27.6985 8.875C27.9973 8.57784 28.2287 8.23568 28.3926 7.84853C28.5623 7.4473 28.6471 7.0272 28.6471 6.58824C28.6469 6.14922 28.5621 5.72961 28.3926 5.32941C28.2289 4.94233 27.9975 4.59919 27.6985 4.3C27.4003 4.00199 27.0577 3.77111 26.6706 3.60735ZM28.1147 3.88382H28.1162C28.4684 4.23761 28.7414 4.643 28.9353 5.1C29.1355 5.57331 29.2355 6.06939 29.2353 6.58824C29.2355 7.10708 29.1355 7.60316 28.9353 8.07647C28.7412 8.53443 28.4677 8.93933 28.1147 9.29118C27.762 9.64508 27.357 9.91861 26.9 10.1118C26.4267 10.3119 25.9306 10.4119 25.4118 10.4118H21.8824C21.8011 10.4117 21.7315 10.4402 21.6735 10.4971C21.6166 10.555 21.5882 10.6246 21.5882 10.7059C21.5882 10.7871 21.6166 10.8563 21.6735 10.9132C21.7315 10.9711 21.8011 11 21.8824 11H25.4118C26.0106 10.9998 26.5831 10.8841 27.1294 10.6529C27.6567 10.4304 28.1238 10.1152 28.5309 9.70735C28.9377 9.30135 29.2529 8.83419 29.4765 8.30588C29.7077 7.7596 29.8234 7.18705 29.8235 6.58824C29.8234 5.98942 29.7077 5.41687 29.4765 4.87059C29.2528 4.3436 28.9376 3.87644 28.5309 3.46912V3.46765C28.1236 3.06186 27.6564 2.74715 27.1294 2.52353C26.5821 2.29233 26.0095 2.17664 25.4118 2.17647H19.9706C19.605 2.17644 19.2928 2.30536 19.0338 2.56324C18.776 2.82217 18.647 3.13442 18.6471 3.5V9.23529C18.647 9.31655 18.6755 9.38567 18.7324 9.44265C18.7903 9.50053 18.8599 9.52945 18.9412 9.52941C19.0224 9.52945 19.0916 9.50053 19.1485 9.44265C19.2064 9.38567 19.2353 9.31655 19.2353 9.23529V3.5C19.2353 3.29695 19.3069 3.12342 19.45 2.97941C19.594 2.83631 19.7675 2.76474 19.9706 2.76471H25.4118C25.9297 2.76454 26.4258 2.86454 26.9 3.06471C27.357 3.25859 27.7619 3.53163 28.1147 3.88382ZM31 6.58824C30.9998 5.83063 30.8533 5.10563 30.5603 4.41324C30.2779 3.74475 29.8789 3.15259 29.3632 2.63676C28.8474 2.12108 28.2552 1.72206 27.5868 1.43971C26.8944 1.14673 26.1694 1.00016 25.4118 1H18.0588C17.5705 1.00018 17.1544 1.17273 16.8103 1.51765V1.51618C16.4661 1.86142 16.2941 2.27759 16.2941 2.76471V15.4118C16.2941 15.493 16.3225 15.5621 16.3794 15.6191C16.4374 15.677 16.507 15.7059 16.5882 15.7059C16.6695 15.7059 16.7386 15.677 16.7956 15.6191C16.8535 15.5621 16.8824 15.493 16.8824 15.4118V2.76471C16.8824 2.44005 16.9971 2.1626 17.2265 1.93235C17.4559 1.70276 17.7334 1.58805 18.0588 1.58824H25.4118C26.0895 1.58808 26.738 1.71896 27.3574 1.98088C27.9556 2.23382 28.4855 2.59118 28.9471 3.05294C29.4088 3.51456 29.7662 4.04447 30.0191 4.64265C30.281 5.262 30.4119 5.91053 30.4118 6.58824C30.4119 7.26689 30.2811 7.91591 30.0191 8.53529C29.7662 9.13347 29.4088 9.66288 28.9471 10.1235C28.4855 10.5853 27.9556 10.9427 27.3574 11.1956C26.738 11.4575 26.0895 11.5884 25.4118 11.5882H23.0588C22.9776 11.5882 22.908 11.6166 22.85 11.6735C22.7931 11.7315 22.7647 11.8011 22.7647 11.8824C22.7647 11.9636 22.7931 12.0327 22.85 12.0897C22.908 12.1476 22.9776 12.1765 23.0588 12.1765H25.4118C26.1694 12.1763 26.8944 12.0297 27.5868 11.7368C28.2552 11.4544 28.8474 11.0554 29.3632 10.5397C29.8789 10.0249 30.2779 9.43319 30.5603 8.76471C30.8533 8.07233 30.9998 7.34684 31 6.58824Z" fill="black"/>
</svg>
