<svg width="100" height="100" viewBox="0 0 100 100" fill="none" xmlns="http://www.w3.org/2000/svg">
<path d="M100 100V0H0V100H100ZM66.2889 12.9556C67.5185 12.9556 68.5679 13.3926 69.437 14.2667C70.3012 15.1358 70.7333 16.1802 70.7333 17.4L70.7407 82.5852C70.7407 83.8148 70.3086 84.8642 69.4444 85.7333H69.437C68.563 86.5975 67.516 87.0296 66.2963 87.0296L33.7037 87.037C32.4741 87.037 31.4272 86.6049 30.563 85.7407L30.5556 85.7333C29.6914 84.8593 29.2593 83.8123 29.2593 82.5926L29.2519 17.4074C29.2519 16.1778 29.6889 15.1309 30.563 14.2667V14.2593C31.4321 13.3951 32.4765 12.963 33.6963 12.963L66.2889 12.9556ZM67.3333 16.3556C67.0469 16.0642 66.6988 15.9185 66.2889 15.9185L33.6963 15.9259C33.2914 15.9259 32.9457 16.0716 32.6593 16.363H32.6519C32.3605 16.6494 32.2148 16.9975 32.2148 17.4074L32.2222 82.5926C32.2222 82.9975 32.3679 83.3481 32.6593 83.6444C32.9457 83.9309 33.2938 84.0741 33.7037 84.0741L66.2963 84.0667C66.7012 84.0667 67.0519 83.9235 67.3481 83.637V83.6296C67.6346 83.3432 67.7778 82.9951 67.7778 82.5852L67.7704 17.4C67.7704 16.9951 67.6272 16.6494 67.3407 16.363L67.3333 16.3556ZM50 18.8889C52.0049 18.8889 53.9284 19.2765 55.7704 20.0519C57.5432 20.8025 59.1136 21.8617 60.4815 23.2296C61.8444 24.5926 62.9012 26.1605 63.6519 27.9333H63.6593C64.4296 29.7654 64.8148 31.6889 64.8148 33.7037C64.8148 35.7086 64.4296 37.6321 63.6593 39.4741H63.6519C62.9012 41.2469 61.8444 42.8173 60.4815 44.1852C59.1136 45.5481 57.5432 46.6049 55.7704 47.3556V47.363C53.9284 48.1333 52.0049 48.5185 50 48.5185C47.9852 48.5185 46.0617 48.1333 44.2296 47.363V47.3556C42.4568 46.6049 40.8889 45.5481 39.5259 44.1852C38.158 42.8173 37.0988 41.2469 36.3481 39.4741C35.5728 37.6321 35.1852 35.7086 35.1852 33.7037C35.1852 31.6889 35.5728 29.7654 36.3481 27.9333C37.0988 26.1605 38.158 24.5926 39.5259 23.2296C40.8889 21.8617 42.4568 20.8025 44.2296 20.0519C46.0617 19.2765 47.9852 18.8889 50 18.8889ZM50 51.4815C52.0049 51.4815 53.9284 51.8691 55.7704 52.6444C57.5432 53.3951 59.1136 54.4543 60.4815 55.8222C61.8444 57.1852 62.9012 58.7531 63.6519 60.5259H63.6593C64.4296 62.358 64.8148 64.279 64.8148 66.2889C64.8148 68.3037 64.4296 70.2272 63.6593 72.0593H63.6519C63.5728 72.242 63.4914 72.4247 63.4074 72.6074C62.6765 74.158 61.7012 75.5457 60.4815 76.7704C59.1136 78.1333 57.5432 79.1901 55.7704 79.9407V79.9482C53.9284 80.7185 52.0049 81.1037 50 81.1037C47.9852 81.1037 46.0617 80.7185 44.2296 79.9482V79.9407C42.4568 79.1901 40.8889 78.1333 39.5259 76.7704C38.158 75.4025 37.0988 73.8321 36.3481 72.0593C35.5728 70.2272 35.1852 68.3037 35.1852 66.2889C35.1852 64.279 35.5728 62.358 36.3481 60.5259C37.0988 58.7531 38.158 57.1852 39.5259 55.8222C40.2914 55.0519 41.121 54.3827 42.0148 53.8148C42.7161 53.3654 43.4543 52.9753 44.2296 52.6444C46.0617 51.8691 47.9852 51.4815 50 51.4815ZM58.3852 57.9185C57.2889 56.8222 56.0321 55.9728 54.6148 55.3704L54.6222 55.3778C53.1506 54.7556 51.6099 54.4444 50 54.4444C48.3901 54.4444 46.8519 54.7556 45.3852 55.3778V55.3704C44.1358 55.8988 43.0123 56.6222 42.0148 57.5407C41.8815 57.6593 41.7506 57.7852 41.6222 57.9185C40.5259 59.0099 39.6765 60.2642 39.0741 61.6815H39.0815C38.4593 63.1481 38.1481 64.684 38.1481 66.2889C38.1481 67.8988 38.4593 69.437 39.0815 70.9037H39.0741C39.6765 72.321 40.5259 73.5778 41.6222 74.6741C42.7136 75.7654 43.9679 76.6123 45.3852 77.2148C46.8519 77.8321 48.3901 78.1407 50 78.1407C51.6099 78.1407 53.1506 77.8321 54.6222 77.2148H54.6148C56.0321 76.6123 57.2889 75.7654 58.3852 74.6741C59.0173 74.037 59.5679 73.3481 60.037 72.6074C60.3778 72.0691 60.6741 71.5012 60.9259 70.9037C61.5432 69.437 61.8519 67.8988 61.8519 66.2889C61.8519 64.684 61.5432 63.1481 60.9259 61.6815C60.3235 60.2642 59.4765 59.0099 58.3852 57.9185ZM42.0148 62.3333C42.4346 61.4988 43.0025 60.7259 43.7185 60.0148C45.4469 58.2765 47.5407 57.4074 50 57.4074C52.4543 57.4074 54.5506 58.2765 56.2889 60.0148H56.2815C58.0198 61.7432 58.8889 63.8346 58.8889 66.2889C58.8889 68.7482 58.0198 70.8444 56.2815 72.5778H56.2889C56.2741 72.5877 56.2617 72.5975 56.2519 72.6074C54.5235 74.321 52.4395 75.1778 50 75.1778C47.5605 75.1778 45.479 74.321 43.7556 72.6074C43.7407 72.5975 43.7284 72.5877 43.7185 72.5778V72.5704C43.0025 71.8593 42.4346 71.0864 42.0148 70.2519C41.4123 69.0568 41.1111 67.7358 41.1111 66.2889C41.1111 64.842 41.4123 63.5235 42.0148 62.3333ZM45.8148 62.1037L45.8074 62.1111C44.6519 63.2617 44.0741 64.6543 44.0741 66.2889C44.0741 67.9284 44.6519 69.3259 45.8074 70.4815H45.8148C46.9654 71.637 48.3605 72.2148 50 72.2148C51.6346 72.2148 53.0321 71.637 54.1926 70.4815C55.3481 69.3259 55.9259 67.9284 55.9259 66.2889C55.9259 64.6543 55.3481 63.2617 54.1926 62.1111C53.0321 60.9506 51.6346 60.3704 50 60.3704C48.3605 60.3704 46.9654 60.9482 45.8148 62.1037ZM58.3852 25.3259C57.2889 24.2296 56.0321 23.3802 54.6148 22.7778L54.6222 22.7852C53.1506 22.163 51.6099 21.8519 50 21.8519C48.3901 21.8519 46.8519 22.163 45.3852 22.7852V22.7778C43.9679 23.3802 42.7136 24.2296 41.6222 25.3259C40.5259 26.4173 39.6765 27.6716 39.0741 29.0889H39.0815C38.4593 30.5556 38.1481 32.0938 38.1481 33.7037C38.1481 35.3136 38.4593 36.8543 39.0815 38.3259L39.0741 38.3185C39.6765 39.7358 40.5259 40.9926 41.6222 42.0889C42.7136 43.1802 43.9679 44.0272 45.3852 44.6296C46.8519 45.2469 48.3901 45.5556 50 45.5556C51.6099 45.5556 53.1506 45.2469 54.6222 44.6296H54.6148C56.0321 44.0272 57.2889 43.1802 58.3852 42.0889C59.4765 40.9926 60.3235 39.7358 60.9259 38.3185V38.3259C61.5432 36.8543 61.8519 35.3136 61.8519 33.7037C61.8519 32.0938 61.5432 30.5556 60.9259 29.0889C60.3235 27.6716 59.4765 26.4173 58.3852 25.3259ZM56.2889 27.4222H56.2815C58.0198 29.1506 58.8889 31.2444 58.8889 33.7037C58.8889 36.158 58.0222 38.2543 56.2889 39.9926C54.5506 41.7259 52.4543 42.5926 50 42.5926C47.5407 42.5926 45.4469 41.7235 43.7185 39.9852V39.9926C41.9802 38.2543 41.1111 36.158 41.1111 33.7037C41.1111 31.2444 41.9802 29.1506 43.7185 27.4222C45.4469 25.684 47.5407 24.8148 50 24.8148C52.4543 24.8148 54.5506 25.684 56.2889 27.4222ZM55.9259 33.7037C55.9259 32.0642 55.3481 30.6691 54.1926 29.5185C53.0321 28.358 51.6346 27.7778 50 27.7778C48.3605 27.7778 46.9654 28.3556 45.8148 29.5111L45.8074 29.5185C44.6519 30.6691 44.0741 32.0642 44.0741 33.7037C44.0741 35.3383 44.6543 36.7358 45.8148 37.8963C46.9654 39.0519 48.3605 39.6296 50 39.6296C51.6346 39.6296 53.0321 39.0519 54.1926 37.8963C55.3481 36.7358 55.9259 35.3383 55.9259 33.7037Z" fill="black"/>
</svg>
