<svg width="100" height="100" viewBox="0 0 100 100" fill="none" xmlns="http://www.w3.org/2000/svg">
<path d="M0 0V100H100V0H0ZM50.045 84.8425C44.0658 84.8463 38.186 83.313 32.97 80.39L15.0288 85.0075L19.9275 67.6113C16.7723 62.2485 15.1118 56.1383 15.1188 49.9163C15.1188 30.6588 30.7863 14.9913 50.0438 14.9913C69.2812 14.9913 84.97 30.68 84.97 49.9175C84.97 69.1788 69.3025 84.8425 50.045 84.8425ZM50.045 20.9163C34.0538 20.9163 21.045 33.9263 21.045 49.9163C21.0378 55.4635 22.6273 60.8955 25.6238 65.5638L26.3438 66.6888L23.5163 76.7038L33.8913 74.0363L34.96 74.6888C39.5052 77.4587 44.7261 78.9219 50.0488 78.9175C66.04 78.9175 79.0488 65.9075 79.0488 49.9175C79.0488 33.9275 66.0163 20.915 50.0438 20.9163H50.045ZM67.8288 58.83L67.4662 60.52C67.269 61.4663 66.886 62.364 66.3395 63.1613C65.793 63.9586 65.0939 64.6396 64.2825 65.165C62.2088 66.4912 59.52 67.1425 56.1025 66.1763C45.4975 63.1763 39.4987 56.1563 36.2812 51.7675C33.0638 47.3788 31.82 42.99 32.6237 39.4062C33.1637 37.0038 34.9188 35.1563 36.0175 34.205C36.5564 33.7381 37.2555 33.4988 37.9675 33.5375L40.2337 33.6625C40.4524 33.6746 40.6634 33.7476 40.8428 33.8732C41.0222 33.9989 41.1628 34.1723 41.2487 34.3738L44.55 42.0975C44.6365 42.2996 44.6645 42.522 44.6307 42.7393C44.5969 42.9566 44.5026 43.16 44.3587 43.3263L41.4837 46.6513C41.3713 46.7838 41.3009 46.9469 41.2816 47.1197C41.2622 47.2925 41.2947 47.4671 41.375 47.6213C45.1575 54.9075 52.05 57.7975 54.1125 58.5225C54.2838 58.583 54.4699 58.5878 54.6442 58.5362C54.8184 58.4846 54.9718 58.3791 55.0825 58.235L58.09 54.3375C58.2522 54.1268 58.4813 53.9776 58.7395 53.9142C58.9978 53.8508 59.2699 53.8771 59.5113 53.9888L67.17 57.5188C67.4123 57.6301 67.6095 57.8206 67.7292 58.0589C67.8489 58.2972 67.884 58.5691 67.8288 58.83Z" fill="#010101"/>
</svg>
